<?xml version="1.0" encoding="UTF-8"?><svg id="Layer_1" xmlns="http://www.w3.org/2000/svg" viewBox="0 0 500 785.4442"><defs><style>.cls-1{fill:#f3b221;}.cls-2{fill:#e95b32;}.cls-3{fill:#e85535;}.cls-4{fill:#e85637;}.cls-5{fill:#e8562b;}.cls-6{fill:#80b83a;}.cls-7{fill:#32a7d9;}.cls-8{fill:#36a9da;}.cls-9{fill:#3cabdb;}.cls-10{fill:#37a9db;}.cls-11{fill:#3aaadb;}.cls-12{fill:#38a9db;}</style></defs><path class="cls-3" d="m500,687.7664c-3.2559,3.1426-6.5226,5.9114-9.7652,8.7081-5.106,4.4038-6.2659,4.3436-10.5632-.5658-14.267-16.2992-28.5488-32.5852-42.7796-48.916-.7086-.8132-.9897-1.9989-1.4699-3.0112-.4995.3226-.999.6452-1.4986.9678-3.3675,11.4661-6.7376,22.9315-10.1015,34.3986-1.3523,4.61-2.6021,9.2524-4.062,13.8278-1.3225,4.145-3.3812,4.9271-7.3078,3.0475-.2892-.1385-.5716-.2929-.85-.4524-16.4502-9.4246-14.2344-4.8065-9.5824-22.2669,4.0813-15.3187,8.5834-30.5271,13.0521-45.7394.8532-2.9045.474-5.0129-1.442-7.4249-5.0875-6.4045-9.7682-13.1303-14.7805-19.5968-2.5802-3.3288-2.4716-5.9561.9251-8.592,2.7842-2.1606,5.4232-4.5248,7.9939-6.94,3.1652-2.9737,5.6077-1.9627,8.083.9692,8.2818,9.8089,16.6374,19.5554,24.9727,29.319,5.4023,6.3281,10.8186,12.6443,16.9121,19.7647,1.0641-3.9447,1.9579-7.0426,2.7328-10.1699,2.8128-11.3525,5.557-22.722,8.3861-34.0703,1.3643-5.4726,2.6428-6.1969,8.1696-4.909,2.8079.6544,5.6098,1.3354,8.4088,2.027,5.562,1.3741,6.3128,2.5323,4.9591,8.0471-4.5829,18.6695-9.1312,37.3482-13.8847,55.9744-.7574,2.9677-.4108,5.0124,1.6181,7.3656,7.2218,8.3765,14.1989,16.9638,21.5712,25.5902.3025.8414.3025,1.564.3025,2.6478Z"/><path class="cls-4" d="m0,589.3496c2.4498-.9632,4.8975-1.9078,7.3497-1.9196,23.5878-.1129,47.1764-.078,70.7647-.0634,6.8094.0042,7.6258.8764,7.6343,7.8546.0033,2.7279-.133,5.4639.0311,8.1819.2758,4.5671-1.8359,6.5205-6.2958,6.3131-2.0354-.0947-4.0788-.0161-6.6603-.0161,0,2.4528,0,4.3314,0,6.2099.0002,23.4279.0103,46.8558-.0058,70.2836-.0044,6.4203-.8807,7.2868-7.1324,7.3158-2.8883.0134-5.777.0277-8.665-.0032-5.3889-.0577-6.5017-1.0862-6.5147-6.4765-.0432-17.972-.0159-35.9441-.0157-53.9162,0-7.5258,0-15.0517,0-23.1527-1.9757-.0946-3.6632-.2427-5.351-.2453-12.6767-.0199-25.3542.0575-38.0294-.0786-2.1268-.0228-4.2441-.9313-6.7378-1.4507C0,602.0444,0,595.9226,0,589.3496Z"/><path class="cls-9" d="m335.7116,785.4302c-.7369-1.8775-1.2647-3.7542-1.2705-5.6326-.0608-19.8839.0896-39.7695-.1355-59.651-.0517-4.5653,1.5924-5.9801,5.8639-5.7423,6.0712.338,12.1836.0862,18.2347.6006,10.5951.9008,18.7445,9.4236,19.0631,20.0707.2972,9.9331.3219,19.8906-.008,29.8216-.3322,9.9991-7.3247,17.5104-17.9388,20.2226-7.9028.3102-15.63.3102-23.8088.3102m33.1575-52.6541c-3.7133-10.3276-11.6134-11.2433-25.9425-9.1587v53.2417c4.6849,0,9.125.125,13.5555-.0287,7.0434-.2442,12.4937-5.3793,12.6526-12.5097.2281-10.2358-.0546-20.483-.2656-31.5445Z"/><path class="cls-9" d="m451.3185,785.4302c-.7369-1.8775-1.2647-3.7542-1.2704-5.6326-.0608-19.8839.0895-39.7695-.1356-59.6509-.0517-4.5653,1.5924-5.9801,5.8639-5.7422,6.0712.338,12.1836.0861,18.2347.6006,10.5952.9008,18.7445,9.4236,19.063,20.0707.2972,9.9331.322,19.8906-.0079,29.8216-.3322,9.9992-7.3247,17.5103-17.9389,20.2226-7.9027.3102-15.63.3102-23.8088.3102m9.8017-8.5697c3.5316.0006,7.0655.0847,10.5942-.0158,7.3958-.2106,12.8409-5.2715,13.0491-12.681.2659-9.4625.2313-18.9415.0184-28.4065-.1397-6.2117-4.1765-11.4859-10.1631-12.3547-5.2598-.7634-10.7181-.1595-16.339-.1595,0,17.1884-.0295,34.035.0813,50.8807.006.9058,1.1895,1.804,2.7591,2.7366Z"/><path class="cls-11" d="m276.9147,785.4302c-.6378-2.5302-1.035-5.0599-1.0418-7.5906-.0518-19.2649-.0094-38.5302-.0458-57.7951-.0055-2.9135-.0391-5.5437,4.0064-5.6206,4.3138-.0819,4.336,2.6256,4.2882,5.7755-.1071,7.0492-.0335,14.1011-.0335,21.5045h26.9237c0-7.4691.0567-14.8092-.0288-22.1476-.0327-2.8054.027-5.1531,3.8381-5.128,3.5048.0231,4.147,1.8304,4.1321,4.9171-.0985,20.3884-.0349,40.7775-.0806,61.1663-.0031,1.381-.4669,2.761-.835,4.5299-1.7702.3886-3.4218.3886-5.6525.0154-.8431-2.3942-1.3173-4.4134-1.3352-6.4366-.0819-9.2591-.036-18.5194-.036-27.8784h-26.929c0,7.8059.0928,15.3139-.0378,22.8181-.0689,3.9602-.5275,7.9136-.8102,11.8701h-6.3223Z"/><path class="cls-12" d="m407.9582,785.4302c-1.4951-.6213-2.5179-1.298-3.6023-1.855-8.0169-4.1179-12.1856-10.6566-12.255-19.6783-.0715-9.3066-.0694-18.6144-.0031-27.921.0859-12.0533,9.0108-21.4219,20.5791-21.7166,12.2287-.3116,21.9609,8.5622,22.3804,20.937.3315,9.7771.3817,19.5877-.0226,29.3594-.4221,10.2025-5.9416,16.9671-15.789,20.5829-3.7284.2915-7.2861.2915-11.2876.2915m4.9296-62.9395c-7.4519.9773-11.943,4.4011-12.4075,11.6818-.6706,10.5092-.6756,21.1354.0824,31.636.5443,7.539,7.2376,12.4031,13.9139,11.7092,7.3693-.7661,12.2877-6.1928,12.3983-14.034.1266-8.9732.1151-17.9505.005-26.9241-.1045-8.5183-4.5417-13.1584-13.992-14.0689Z"/><path class="cls-10" d="m236.4746,785.4302c-6.372-2.9399-11.9648-6.2965-14.4497-12.9072-.7761-2.0646-1.184-4.2975-1.5165-6.4904-.3424-2.2581.0616-4.2609,3.013-4.3247,2.5552-.0552,4.4504.1708,4.9803,3.6212,1.1429,7.4422,6.6359,12.185,13.2653,12.2218,6.1907.0344,11.4279-4.2826,13.056-10.762,1.2363-4.92-.477-9.6033-5.2593-12.2547-3.1608-1.7523-6.783-2.7275-10.2694-3.8258-7.4091-2.3339-13.7457-6.0368-15.3893-14.2309-1.4631-7.2941,1.017-13.6389,6.8299-18.4186,7.6757-6.3114,20.7161-4.6574,27.1412,3.5742.8615,1.1036,1.1748,3.9198.4275,4.7283-1.5761,1.7055-3.4501,3.3418-6.5304.9235-2.9354-2.3045-6.8352-4.0855-10.5107-4.5646-4.6271-.6031-7.7284,2.6236-9.0265,7.066-1.4029,4.8007.1069,8.7347,4.6386,10.8737,3.2818,1.5491,6.9811,2.1981,10.4646,3.3386,7.6101,2.4915,13.6154,7.0103,15.3711,15.0982,1.7752,8.1777-.3031,15.7053-6.9409,21.2735-2.2729,1.9066-5.2388,2.9871-8.033,4.7525-1.97.1636-3.899.2716-5.8756.3074-1.7384.0315-3.5137,0-5.3862,0Z"/><path class="cls-8" d="m171.8964,785.4302c-.5099-1.8246,9.2334-45.8864,13.9959-66.1412.8321-3.539,2.4205-4.4984,5.8861-4.462,3.2658.0343,4.8659.8769,5.6564,4.2319,4.8082,20.4074,14.674,64.1457,14.5723,66.0088-1.7126.3624-3.3642.3624-5.5903.053-2.9457-8.3408-5.3169-16.372-7.7448-24.5951-3.0218,0-13.1816-.2335-14.1895.2684-1.6799.8365-5.3545,18.228-7.2185,24.6362h-5.3676m17.9955-48.4733c-1.1779,5.0472-2.3557,10.0943-3.5736,15.3132h10.7272c-1.6812-6.9006-3.256-13.3643-4.8308-19.8281-.332.0571-.664.1142-.996.1713-.3814,1.1964-.7628,2.3928-1.3267,4.3437Z"/><path class="cls-7" d="m334.2175,419.2362c24.1465-70.4075,52.8113-138.3766,90.6677-202.2178,18.189-30.674,38.3103-60.0211,60.567-87.895.3912-.49.6612-1.0768,1.7932-1.1886v421.1187h-5.5655c-60.1952,0-120.3903.0008-180.5855-.0009-6.4354-.0002-6.9462-.4335-5.1006-6.4192,12.6504-41.0276,25.403-82.0235,38.2237-123.3972Z"/><path class="cls-6" d="m283.0908,224.5482c22.1118-76.296,48.2006-150.7689,79.6803-224.5482.2951,1.9437.5584,2.8692.5586,3.7948.0191,93.7435.0249,187.4871-.0298,281.2306-.0011,1.8471-.3407,3.8902-1.1684,5.5121-26.6257,52.1754-45.0537,107.4778-62.3679,163.2059-9.1688,29.5109-18.2946,59.0352-27.4155,88.561-.609,1.9715-1.0124,4.0066-1.5991,6.3649h-56.1202c.8104-8.0834,1.2248-15.8694,2.4166-23.5346,10.8359-69.6924,24.1822-138.9024,41.2172-207.3529,7.7345-31.0791,16.4641-61.9106,24.8283-93.2334Z"/><path class="cls-1" d="m78.022,472.3173c-2.823,2.2367-5.6887,4.4221-8.4582,6.7232-3.4092,2.8328-6.313,2.7073-9.6572-.4767-6.784-6.4592-17.7455-22.6915-21.4044-32.6844,18.3486-9.2386,36.7439-18.5006,55.5393-27.9642-5.2117-12.944-13.8563-21.3461-26.8951-24.4303-5.3707-1.2704-11.1288-1.1265-16.7168-1.2082-11.3942-.1666-22.7937-.1441-34.1884.0071-3.4712.0461-5.0422-1.0189-5.7968-4.6291-1.8996-9.0879-4.181-18.1058-6.6341-27.0628-.888-3.2425-.4022-5.0799,2.4586-7.126,11.3504-8.1179,22.3909-16.6689,33.7315-24.801,3.021-2.1663,4.2583-4.478,2.2219-7.4838-2.5535-3.769-.7408-6.442,1.7819-8.7169,8.3281-7.5101,16.7101-14.9729,25.33-22.1428,5.4177-4.5064,11.236-8.5448,17.0038-12.6099,2.1928-1.5455,2.859-3.0169,1.7995-5.5992-1.8839-4.5917-3.1508-9.4557-5.2646-13.9275-1.5248-3.2257-.7549-5.234,1.4688-7.5998,12.1124-12.8865,27.3892-20.3525,43.7626-26.0863,16.151-5.656,32.9136-8.2485,49.7926-10.329.6059-.0747,1.2378.0606,2.3579.1283-2.471,9.3212-4.893,18.3768-7.2718,27.4437-16.0304,61.0987-29.282,122.8019-39.1036,185.194-6.0036,38.1381-10.9858,76.4376-16.3002,114.6822-.3634,2.615-1.3141,3.5248-3.8052,3.8153-6.4926.7574-11.8464-.3819-16.8977-5.3837-19.0554-18.8684-24.9067-41.1396-18.5681-67.3991.1077-.8274.0574-1.1784.0072-1.5294-.0978.3987-.1956.7974-.2934,1.1961m.3182-137.9649c6.3694-1.3102,12.7388-2.6205,20.4735-4.2115-7.7517-2.9379-14.1056-5.4206-20.5316-7.7-.9524-.3378-2.7778-.1316-3.294.5297-3.298,4.2252-6.3427,8.648-10.0625,13.8303,4.8661-.8967,8.7351-1.6096,13.4146-2.4484Z"/><path class="cls-5" d="m203.9595,473.9464c-4.0411,25.0411-9.6667,49.4364-10.7134,74.7644h-54.9396c15.8559-137.1775,41.9396-271.8643,85.3508-403.0429,0,1.5055,0,3.0109,0,4.5164.0004,73.0173.2033,146.0358-.2369,219.0503-.0598,9.9189-3.269,19.8315-5.1416,29.7241-4.7073,24.8673-9.4842,49.7215-14.3193,74.9877Z"/><path class="cls-4" d="m377.504,616.8367c-.0838,16.3659-.1435,32.2503-.2578,48.1342-.1209,16.799-12.0957,28.7408-28.9133,28.7826-19.2598.0479-38.52.0532-57.7798-.0014-16.23-.046-28.3407-12.1307-28.3597-28.249-.028-23.754-.0139-47.5079-.0009-71.2618.0032-5.7665.9966-6.7864,6.6083-6.8702,2.8884-.0432,5.7782-.0396,8.6668-.0047,5.8311.0704,6.7322.9492,6.7354,6.6658.0124,22.7909-.0001,45.5819.0091,68.3728.0031,7.6764,1.5496,9.1894,9.354,9.1811,4.4926-.0047,8.9852-.047,13.4774-.0995.282-.0033.5613-.2433,1.387-.6253,0-1.4684,0-3.1834,0-4.8984,0-23.754-.0094-47.5079.0057-71.2618.0042-6.5251,1.0632-7.5678,7.4775-7.5865,2.889-.0083,5.7783-.0276,8.6669.0038,5.301.0575,6.4135,1.1243,6.4222,6.573.0354,21.9884.0155,43.9769.0159,65.9653,0,3.805,0,7.61,0,11.8792,6.6232,0,12.7018.2969,18.7344-.1027,4.1345-.2738,5.1949-3.454,5.205-7.3007.0602-22.9429.2467-45.8853.3673-68.8281.0416-7.9166.2756-8.1927,8.0606-8.1899,15.4125.0055,14.1328-1.4848,14.1188,14.3143-.0044,4.9754-.0007,9.9509-.0007,15.408Z"/><path class="cls-4" d="m183.0442,609.7068c-7.5426-.0014-14.6053-.0956-21.6639.0308-4.2967.0769-6.2014-1.889-6.1395-6.0828.0521-3.5297.0223-7.0608.0144-10.5912-.0083-3.727,1.7874-5.6886,5.565-5.6894,25.0343-.0055,50.0685-.009,75.1028,0,3.7929.0014,5.5243,2.0272,5.4995,5.738-.0225,3.3698.0457,6.7408-.0152,10.1097-.0957,5.2905-1.2315,6.3777-6.6244,6.4714-1.9164.0333-3.8338.0054-6.4517.0054v5.3269c0,23.911.007,47.822-.0053,71.7329-.003,5.7953-.9133,6.7-6.6538,6.7499-3.0488.0265-6.0984.0372-9.147.0026-5.398-.0612-6.3563-1.0257-6.3601-6.5586-.0161-23.7505-.0069-47.501-.0069-71.2515v-5.9939c-7.725,0-15.1786,0-23.1138-.0002Z"/><path class="cls-4" d="m118.6443,657.2991c-.036-15.7255-.0698-30.9692-.1243-46.213-.001-.2814-.246-.5618-.5156-1.139-4.4656,0-9.0653-.0961-13.6591.0283-4.199.1138-6.3099-1.557-6.119-5.9594.1597-3.6842.1252-7.3836.0086-11.0709-.1132-3.579,1.4839-5.5256,5.0466-5.5427,10.9121-.0522,21.8251-.0554,32.737.0216,3.3058.0233,4.8246,1.8372,4.8196,5.2334-.0465,31.9356-.0401,63.8713-.0143,95.807.0028,3.4142-1.5929,5.0416-4.9578,5.0412-3.8515-.0005-7.7044-.0584-11.5542.0239-4.0955.0874-5.7407-1.8837-5.6999-5.8996.101-9.9488.0326-19.8993.0323-30.3308Z"/><path class="cls-2" d="m119.0654,714.9011c.0016-4.3522,3.5264-7.877,7.8786-7.8785h0c4.3521.0016,7.8769,3.5264,7.8788,7.8785h0c-.0019,4.3522-3.5265,7.877-7.8788,7.8788h0c-4.3522-.0019-7.877-3.5267-7.8786-7.8788h0Zm5.065,0c.0026,1.5533,1.2606,2.811,2.8136,2.8139h0c1.5529-.0029,2.811-1.2609,2.8138-2.8139h0c-.0029-1.553-1.2609-2.811-2.8138-2.8136h0c-1.553.0026-2.811,1.2606-2.8136,2.8136h0Z"/><polygon class="cls-2" points="124.5425 766.476 124.5425 719.971 129.3458 719.971 129.3458 766.476 124.5425 766.476"/><path class="cls-2" d="m121.3794,722.5813c-1.5997.0001-3.1711.1217-4.7053.3553l1.0667,4.7005c1.1889-.1651,2.4032-.2524,3.6386-.2525,7.242.0009,13.776,2.9285,18.5244,7.6728,4.7448,4.7484,7.6719,11.2829,7.6732,18.5248-.0013,7.2415-2.9285,13.7757-7.6732,18.5243-4.7484,4.7448-11.2826,7.6719-18.5244,7.6731-7.242-.0012-13.776-2.9283-18.5244-7.6731-4.2007-4.2039-6.9749-9.8082-7.5572-16.0632l-4.8221-.0035c1.2538,15.9726,14.6087,28.5414,30.9037,28.543,17.122-.0019,30.9992-13.8787,31.0008-31.0006-.0015-17.1222-13.8788-30.9995-31.0008-31.0009Z"/><path class="cls-2" d="m148.0016,753.8708l-5.7159-6.5135-5.7603,6.5135h3.1552c-.3282,2.9701-1.6654,5.6216-3.6713,7.6306-2.3259,2.322-5.5117,3.7501-9.0565,3.7513-3.5449-.0012-6.7307-1.4293-9.0567-3.7513-2.0191-2.0224-3.3619-4.6953-3.6786-7.6892h-5.1152c.6995,9.249,8.4225,16.5333,17.8505,16.535,9.4078-.0017,17.1174-7.2554,17.8456-16.4764h3.2033Z"/><path class="cls-2" d="m113.1247,723.8851c-.619-.851-3.6364-3.3268-3.6364-3.3268,0,0-1.1992.5416-2.2051,1.1606-2.7048,1.6647-5.8802,2.1276-8.1239,2.4758-2.2436.3482-4.1393.6963-4.5262.8897s-3.0948,2.2051-4.6036,3.2883c-1.5088,1.0832-2.1664.5416-2.7467.7737s-1.2766.9672-1.2766.9672v6.4605h1.1606l-1.2379,1.2379s-.1547.4642-.4642,1.5473-.2322,4.2553-.2322,4.2553h2.1664s-2.4758,7.7371-3.0174,9.1298-.503,3.443-.503,3.443h25.5323l5.5319.1934v-28.2016s-1.1992-3.4431-1.8182-4.2942Zm-3.8684,27.0411l-17.9114-.0866s2.9014-8.7336,2.9788-9.0431-1.6248-1.5088-1.8955-1.7796-.5416-1.1606.2322-1.1606,2.0891.0387,2.6307.0387,1.1992-.8125,1.1992-1.6248-.6963-1.6635-1.6248-1.6635-1.6635.5803-1.6635.5803l-1.3153-2.5145,1.354-1.354h1.3926l1.1993-2.2824,2.4372-1.0059h5.5706l3.0174-2.0891,2.3985,4.2554v19.7297h-.0001Z"/><path class="cls-2" d="m95.7305,732.7347v-1.0063h3.9948s-2.1664,1.7361-2.996,1.7361-.9988-.7298-.9988-.7298Z"/></svg>