<?xml version="1.0" encoding="UTF-8" standalone="no"?>
<!-- Generator: Adobe Illustrator 15.1.0, SVG Export Plug-In . SVG Version: 6.00 Build 0)  -->

<svg
   xmlns:dc="http://purl.org/dc/elements/1.1/"
   xmlns:cc="http://creativecommons.org/ns#"
   xmlns:rdf="http://www.w3.org/1999/02/22-rdf-syntax-ns#"
   xmlns:svg="http://www.w3.org/2000/svg"
   xmlns="http://www.w3.org/2000/svg"
   xmlns:xlink="http://www.w3.org/1999/xlink"
   xmlns:sodipodi="http://sodipodi.sourceforge.net/DTD/sodipodi-0.dtd"
   xmlns:inkscape="http://www.inkscape.org/namespaces/inkscape"
   version="1.1"
   id="Layer_1"
   x="0px"
   y="0px"
   width="335px"
   height="390px"
   viewBox="0 0 335 390"
   enable-background="new 0 0 335 390"
   xml:space="preserve"
   sodipodi:docname="Coat_of_arms_of_Netivot.svg"
   inkscape:version="0.92.3 (2405546, 2018-03-11)"><metadata
   id="metadata313"><rdf:RDF><cc:Work
       rdf:about=""><dc:format>image/svg+xml</dc:format><dc:type
         rdf:resource="http://purl.org/dc/dcmitype/StillImage" /><dc:title></dc:title></cc:Work></rdf:RDF></metadata><defs
   id="defs311"><linearGradient
   inkscape:collect="always"
   id="linearGradient980"><stop
     style="stop-color:#159ad6;stop-opacity:1"
     offset="0"
     id="stop976" /><stop
     style="stop-color:#5b71b7;stop-opacity:1"
     offset="1"
     id="stop978" /></linearGradient>
	<defs
   id="defs219">
		<path
   d="M254.375,274l-8.75,15.75l19.625,14.375l9.125-9.25l15.25,3.125c0,0-0.125,4-1.75,9.25    s-4.5,10.875-4.5,10.875l24.375,9.625c0,0,14.375-19.125,14.375-42c0-7.25,0-11.75,0-11.75H254.375z"
   id="SVGID_37_" />
	</defs>
	<clipPath
   id="SVGID_38_">
		<use
   id="use221"
   overflow="visible"
   xlink:href="#SVGID_37_" />
	</clipPath>
	<linearGradient
   y2="4.882812e-04"
   x2="167.5005"
   y1="390"
   x1="167.5005"
   gradientUnits="userSpaceOnUse"
   id="SVGID_39_">
		<stop
   id="stop224"
   style="stop-color:#5D70B6"
   offset="0" />
		<stop
   id="stop226"
   style="stop-color:#119CD8"
   offset="1" />
	</linearGradient>
	

	<defs
   id="defs234">
		<path
   d="M201.125,318.75l12.125,42.875L192,366.75l2,18.5l47.875-12L228.75,330.5l12.75-6.25l31.625,32.625    c0,0,3.75-0.875,9-4.5s8.125-6.875,8.125-6.875l-54.375-45.25L201.125,318.75z"
   id="SVGID_40_" />
	</defs>
	<clipPath
   id="SVGID_41_">
		<use
   id="use236"
   overflow="visible"
   xlink:href="#SVGID_40_" />
	</clipPath>
	<linearGradient
   y2="4.882812e-04"
   x2="167.5005"
   y1="390"
   x1="167.5005"
   gradientUnits="userSpaceOnUse"
   id="SVGID_42_">
		<stop
   id="stop239"
   style="stop-color:#5D70B6"
   offset="0" />
		<stop
   id="stop241"
   style="stop-color:#119CD8"
   offset="1" />
	</linearGradient>
	

	<defs
   id="defs249">
		<polygon
   points="193.875,354.75 193.875,322.25 166.375,323.375 165.125,345 177.25,344.875 177,355.5   "
   id="SVGID_43_" />
	</defs>
	<clipPath
   id="SVGID_44_">
		<use
   id="use251"
   overflow="visible"
   xlink:href="#SVGID_43_" />
	</clipPath>
	<linearGradient
   y2="4.882812e-04"
   x2="167.5005"
   y1="390"
   x1="167.5005"
   gradientUnits="userSpaceOnUse"
   id="SVGID_45_">
		<stop
   id="stop254"
   style="stop-color:#5D70B6"
   offset="0" />
		<stop
   id="stop256"
   style="stop-color:#119CD8"
   offset="1" />
	</linearGradient>
	

	<defs
   id="defs264">
		<path
   d="M157.125,324.25c0,0-2.125,0-12.625,0s-27.375-7.375-27.75-7.625l-3.125,16.25l18.25,11.75    c0,0,0,1.5,0,4.625s-2.25,16.75-2.25,16.75s-1.75,0-2.5,0c-8.875,0-18.875-3.125-18.875-3.125l-8.375,15.5    c0,0,30.125,8.625,45.375,8.625s20.625,0,20.625,0v-22l-8.75-4.25V324.25z"
   id="SVGID_46_" />
	</defs>
	<clipPath
   id="SVGID_47_">
		<use
   id="use266"
   overflow="visible"
   xlink:href="#SVGID_46_" />
	</clipPath>
	<linearGradient
   y2="4.882812e-04"
   x2="167.5005"
   y1="390"
   x1="167.5005"
   gradientUnits="userSpaceOnUse"
   id="SVGID_48_">
		<stop
   id="stop269"
   style="stop-color:#5D70B6"
   offset="0" />
		<stop
   id="stop271"
   style="stop-color:#119CD8"
   offset="1" />
	</linearGradient>
	

	<defs
   id="defs279">
		<polygon
   points="97,307 61.75,365.5 91.5,376 108,311.75   "
   id="SVGID_49_" />
	</defs>
	<clipPath
   id="SVGID_50_">
		<use
   id="use281"
   overflow="visible"
   xlink:href="#SVGID_49_" />
	</clipPath>
	<linearGradient
   y2="4.882812e-04"
   x2="167.5005"
   y1="390"
   x1="167.5005"
   gradientUnits="userSpaceOnUse"
   id="SVGID_51_">
		<stop
   id="stop284"
   style="stop-color:#5D70B6"
   offset="0" />
		<stop
   id="stop286"
   style="stop-color:#119CD8"
   offset="1" />
	</linearGradient>
	

	<defs
   id="defs294">
		<path
   d="M64.75,273c0,0-4.75,3.5-11,3.5s-12.417,0-12.417,0L42,289.25c0,0-3.25,3.667-7.333,3.667    s-10.583,0-10.583,0L17.25,282L0,293.25l11,22.5l40-12.25l5.5,8.5L28,342.75l15.25,12.75l46.25-54L64.75,273z"
   id="SVGID_52_" />
	</defs>
	<clipPath
   id="SVGID_53_">
		<use
   id="use296"
   overflow="visible"
   xlink:href="#SVGID_52_" />
	</clipPath>
	<linearGradient
   y2="4.882812e-04"
   x2="167.5005"
   y1="390"
   x1="167.5005"
   gradientUnits="userSpaceOnUse"
   id="SVGID_54_">
		<stop
   id="stop299"
   style="stop-color:#5D70B6"
   offset="0" />
		<stop
   id="stop301"
   style="stop-color:#119CD8"
   offset="1" />
	</linearGradient>
	

	<defs
   id="defs204">
		<path
   d="M201.25,267.336c6.834,0,11.167,3.083,11.167,3.083L224,247.585l-25.5-9v10.083l-26.166,16.458h-20    L119,246.917v-6.916l-21.833,9.75l9.083,21.333c0,0,0.834-2.75,6.917-2.75S125,272.085,125,277.251s-2.167,9.083-2.167,9.083    l26.667,10.419c0,0,2.333-13.75,10.833-13.75s11.083,12.333,11.083,12.333l23.167-8.25c0,0-2.084-5.833-2.084-9.5    S194.416,267.336,201.25,267.336z"
   id="SVGID_34_" />
	</defs>
	<clipPath
   id="SVGID_35_">
		<use
   id="use206"
   overflow="visible"
   xlink:href="#SVGID_34_" />
	</clipPath>
	<linearGradient
   y2="4.882812e-04"
   x2="167.5005"
   y1="390"
   x1="167.5005"
   gradientUnits="userSpaceOnUse"
   id="SVGID_36_">
		<stop
   id="stop209"
   style="stop-color:#5D70B6"
   offset="0" />
		<stop
   id="stop211"
   style="stop-color:#119CD8"
   offset="1" />
	</linearGradient>
	

	<defs
   id="defs144">
		<polygon
   points="130,211.833 130.833,241.167 158.125,253 185.416,241.167 186.25,211.833 158.125,219.5   "
   id="SVGID_22_" />
	</defs>
	<clipPath
   id="SVGID_23_">
		<use
   id="use146"
   overflow="visible"
   xlink:href="#SVGID_22_" />
	</clipPath>
	<linearGradient
   y2="4.882812e-04"
   x2="167.5005"
   y1="390"
   x1="167.5005"
   gradientUnits="userSpaceOnUse"
   id="SVGID_24_">
		<stop
   id="stop149"
   style="stop-color:#5D70B6"
   offset="0" />
		<stop
   id="stop151"
   style="stop-color:#119CD8"
   offset="1" />
	</linearGradient>
	

	<defs
   id="defs129">
		<path
   d="M99.067,226.666h21v-18l11.167-7.166l26.918,5.166l26.912-5.166l11.167,7.166v18h21    c0,0-0.333-4.833-1.333-12.5s-5.5-14.166-5.5-14.166s-0.834,1.666-6.834,1.666s-14.166-6.666-14.166-10.333    s2.333-7.667,2.333-7.667l-19-8.667l-8.327,9.667H151.9L143.567,175l-19,8.667c0,0,2.333,4,2.333,7.667    s-8.167,10.333-14.167,10.333S105.9,200,105.9,200s-4.5,6.499-5.5,14.166S99.067,226.666,99.067,226.666z"
   id="SVGID_19_" />
	</defs>
	<clipPath
   id="SVGID_20_">
		<use
   id="use131"
   overflow="visible"
   xlink:href="#SVGID_19_" />
	</clipPath>
	<linearGradient
   y2="4.882812e-04"
   x2="167.5005"
   y1="390"
   x1="167.5005"
   gradientUnits="userSpaceOnUse"
   id="SVGID_21_">
		<stop
   id="stop134"
   style="stop-color:#5D70B6"
   offset="0" />
		<stop
   id="stop136"
   style="stop-color:#119CD8"
   offset="1" />
	</linearGradient>
	

	<defs
   id="defs114">
		<path
   d="M185.333,106.833c-4,5.167-6.666,13.167-6.666,13.167s-1-3.167-1-7.167S182,97.667,182,97.667    s-12.833,6.166-12.833,20.833s0,27.333,0,27.333s22.834-19,26.5-22s9.333-4,13.333-4s11.167,2.833,11.167,2.833l-11-13.167    c0,0-0.668-3.667-0.334-5.667s2-7,2-7s-2.666-0.333-6.333,2.333s-5.167,7.167-5.167,7.167s-1.666-0.5-1.666-4.333s0-12,0-12    S189.333,101.667,185.333,106.833z"
   id="SVGID_16_" />
	</defs>
	<clipPath
   id="SVGID_17_">
		<use
   id="use116"
   overflow="visible"
   xlink:href="#SVGID_16_" />
	</clipPath>
	<linearGradient
   y2="4.882812e-04"
   x2="167.5005"
   y1="390"
   x1="167.5005"
   gradientUnits="userSpaceOnUse"
   id="SVGID_18_">
		<stop
   id="stop119"
   style="stop-color:#5D70B6"
   offset="0" />
		<stop
   id="stop121"
   style="stop-color:#119CD8"
   offset="1" />
	</linearGradient>
	

	<defs
   id="defs69">
		<path
   d="M142.625,101.625c0,0-8.5-5.5-10.25-5.5S129.5,97,129.5,97s-0.5,1.25-0.5,2.625S144.375,142,144.375,142    L142.625,101.625z"
   id="SVGID_7_" />
	</defs>
	<clipPath
   id="SVGID_8_">
		<use
   id="use71"
   overflow="visible"
   xlink:href="#SVGID_7_" />
	</clipPath>
	<linearGradient
   y2="4.882812e-04"
   x2="167.5005"
   y1="390"
   x1="167.5005"
   gradientUnits="userSpaceOnUse"
   id="SVGID_9_">
		<stop
   id="stop74"
   style="stop-color:#5D70B6"
   offset="0" />
		<stop
   id="stop76"
   style="stop-color:#119CD8"
   offset="1" />
	</linearGradient>
	

	<defs
   id="defs84">
		<path
   d="M124.25,93.625c0,0-2.5,0.5-5.25,2.5s-3.625,5.25-3.625,5.25L125.75,117.5L124.25,93.625z"
   id="SVGID_10_" />
	</defs>
	<clipPath
   id="SVGID_11_">
		<use
   id="use86"
   overflow="visible"
   xlink:href="#SVGID_10_" />
	</clipPath>
	<linearGradient
   y2="4.882812e-04"
   x2="167.5005"
   y1="390"
   x1="167.5005"
   gradientUnits="userSpaceOnUse"
   id="SVGID_12_">
		<stop
   id="stop89"
   style="stop-color:#5D70B6"
   offset="0" />
		<stop
   id="stop91"
   style="stop-color:#119CD8"
   offset="1" />
	</linearGradient>
	

	<defs
   id="defs99">
		<path
   d="M115.375,122c0,0,0.125-4.375,0.125-7.25s-6.125-11.625-6.125-11.625v11.5h-7.5c0,0-1,1.375-1,2.25    s1.25,2.25,1.25,2.25s5.125,1,8.25,1.5S115.375,122,115.375,122z"
   id="SVGID_13_" />
	</defs>
	<clipPath
   id="SVGID_14_">
		<use
   id="use101"
   overflow="visible"
   xlink:href="#SVGID_13_" />
	</clipPath>
	<linearGradient
   y2="4.882812e-04"
   x2="167.5005"
   y1="390"
   x1="167.5005"
   gradientUnits="userSpaceOnUse"
   id="SVGID_15_">
		<stop
   id="stop104"
   style="stop-color:#5D70B6"
   offset="0" />
		<stop
   id="stop106"
   style="stop-color:#119CD8"
   offset="1" />
	</linearGradient>
	

	<defs
   id="defs159">
		<path
   d="M80,114c2.333-16.667,6-26.333,19-31c1.208-0.458,13.25-3.875,13.25-3.875v-33.25c0,0-2.375,0-6.75,0    c-16.5,0-48.5,23.458-55.167,64.458s-20,154-20,154h28.333C58.667,264.333,77.667,130.667,80,114z"
   id="SVGID_25_" />
	</defs>
	<clipPath
   id="SVGID_26_">
		<use
   id="use161"
   overflow="visible"
   xlink:href="#SVGID_25_" />
	</clipPath>
	<linearGradient
   y2="4.882812e-04"
   x2="167.5005"
   y1="390"
   x1="167.5005"
   gradientUnits="userSpaceOnUse"
   id="SVGID_27_">
		<stop
   id="stop164"
   style="stop-color:#5D70B6"
   offset="0" />
		<stop
   id="stop166"
   style="stop-color:#119CD8"
   offset="1" />
	</linearGradient>
	

	<defs
   id="defs54">
		<path
   d="M153,99.333c0,21,0,74.5,0,74.5h11.833c0,0,0-61.667,0-74.333c0-16,25-19.5,25-19.5l-68.5-62.667v63.333    C121.333,80.667,153,78.333,153,99.333z"
   id="SVGID_4_" />
	</defs>
	<clipPath
   id="SVGID_5_">
		<use
   id="use56"
   overflow="visible"
   xlink:href="#SVGID_4_" />
	</clipPath>
	<linearGradient
   y2="4.882812e-04"
   x2="167.5005"
   y1="390"
   x1="167.5005"
   gradientUnits="userSpaceOnUse"
   id="SVGID_6_">
		<stop
   id="stop59"
   style="stop-color:#5D70B6"
   offset="0" />
		<stop
   id="stop61"
   style="stop-color:#119CD8"
   offset="1" />
	</linearGradient>
	

	<defs
   id="defs39">
		<polygon
   points="172.438,21.438 154.125,1.875 137.812,21.438 153.438,39.188   "
   id="SVGID_1_" />
	</defs>
	<clipPath
   id="SVGID_2_">
		<use
   id="use41"
   overflow="visible"
   xlink:href="#SVGID_1_" />
	</clipPath>
	<linearGradient
   y2="4.882812e-04"
   x2="167.5005"
   y1="390"
   x1="167.5005"
   gradientUnits="userSpaceOnUse"
   id="SVGID_3_">
		<stop
   id="stop44"
   style="stop-color:#5D70B6"
   offset="0" />
		<stop
   id="stop46"
   style="stop-color:#119CD8"
   offset="1" />
	</linearGradient>
	

	<defs
   id="defs189">
		<polygon
   points="191.312,66.438 189.938,16.625 161.188,41.688   "
   id="SVGID_31_" />
	</defs>
	<clipPath
   id="SVGID_32_">
		<use
   id="use191"
   overflow="visible"
   xlink:href="#SVGID_31_" />
	</clipPath>
	<linearGradient
   y2="4.882812e-04"
   x2="167.5005"
   y1="390"
   x1="167.5005"
   gradientUnits="userSpaceOnUse"
   id="SVGID_33_">
		<stop
   id="stop194"
   style="stop-color:#5D70B6"
   offset="0" />
		<stop
   id="stop196"
   style="stop-color:#119CD8"
   offset="1" />
	</linearGradient>
	

	<defs
   id="defs174">
		<path
   d="M230.281,114c2.334,16.667,21.333,150.333,21.333,150.333h28.333c0,0-13.333-113-20-154    c-6.666-41-38.666-64.458-55.166-64.458c-4.375,0-6.75,0-6.75,0v33.25c0,0,12.041,3.417,13.25,3.875    C224.281,87.667,227.947,97.333,230.281,114z"
   id="SVGID_28_" />
	</defs>
	<clipPath
   id="SVGID_29_">
		<use
   id="use176"
   overflow="visible"
   xlink:href="#SVGID_28_" />
	</clipPath>
	<linearGradient
   y2="4.882812e-04"
   x2="167.5005"
   y1="390"
   x1="167.5005"
   gradientUnits="userSpaceOnUse"
   id="SVGID_30_">
		<stop
   id="stop179"
   style="stop-color:#5D70B6"
   offset="0" />
		<stop
   id="stop181"
   style="stop-color:#119CD8"
   offset="1" />
	</linearGradient>
	
<linearGradient
   inkscape:collect="always"
   xlink:href="#linearGradient980"
   id="linearGradient982"
   x1="162.77542"
   y1="21.483047"
   x2="133.85593"
   y2="336.29236"
   gradientUnits="userSpaceOnUse"
   gradientTransform="translate(2)" /></defs><sodipodi:namedview
   pagecolor="#ffffff"
   bordercolor="#666666"
   borderopacity="1"
   objecttolerance="10"
   gridtolerance="10"
   guidetolerance="10"
   inkscape:pageopacity="0"
   inkscape:pageshadow="2"
   inkscape:window-width="1920"
   inkscape:window-height="1001"
   id="namedview309"
   showgrid="false"
   inkscape:zoom="1.711561"
   inkscape:cx="121.33822"
   inkscape:cy="172.15584"
   inkscape:window-x="-9"
   inkscape:window-y="-9"
   inkscape:window-maximized="1"
   inkscape:current-layer="Layer_1" />
<path
   d="M 164.05273 4.8789062 L 147.74023 24.441406 L 163.36523 42.191406 L 182.36133 24.441406 L 164.05273 4.8789062 z M 199.86133 19.628906 L 171.11133 44.691406 L 201.23633 69.441406 L 199.86133 19.628906 z M 131.26172 20.337891 L 131.26172 83.669922 C 131.26172 83.669922 162.92969 81.337891 162.92969 102.33789 L 162.92969 176.83789 L 174.75977 176.83789 L 174.75977 102.50391 C 174.75977 86.503906 199.75781 83.003906 199.75781 83.003906 L 131.26172 20.337891 z M 115.42773 48.878906 C 98.927734 48.878906 66.928719 72.335938 60.261719 113.33594 C 53.594719 154.33594 40.261719 267.33203 40.261719 267.33203 L 68.59375 267.33203 C 68.59375 267.33203 87.594734 133.66895 89.927734 117.00195 C 92.260734 100.33495 95.927734 90.668953 108.92773 86.001953 C 110.13773 85.544953 122.17773 82.128906 122.17773 82.128906 L 122.17773 48.878906 L 115.42773 48.878906 z M 207.95508 48.878906 L 207.95508 82.128906 C 207.95508 82.128906 219.99608 85.544953 221.20508 86.001953 C 234.20508 90.668953 237.87108 100.33495 240.20508 117.00195 C 242.53908 133.66895 261.53711 267.33203 261.53711 267.33203 L 289.87109 267.33203 C 289.87109 267.33203 276.53809 154.33594 269.87109 113.33594 C 263.20509 72.335938 231.20508 48.878906 214.70508 48.878906 L 207.95508 48.878906 z M 207.5918 93.001953 C 207.5918 93.001953 199.25781 104.66994 195.25781 109.83594 C 191.25781 115.00194 188.5918 123.00195 188.5918 123.00195 C 188.5918 123.00195 187.5918 119.83594 187.5918 115.83594 C 187.5918 111.83594 191.92383 100.66992 191.92383 100.66992 C 191.92383 100.66992 179.0918 106.83691 179.0918 121.50391 L 179.0918 148.83594 C 179.0918 148.83594 201.9258 129.83594 205.5918 126.83594 C 209.2578 123.83594 214.92383 122.83594 218.92383 122.83594 C 222.92383 122.83594 230.0918 125.66992 230.0918 125.66992 L 219.0918 112.50195 C 219.0918 112.50195 218.42381 108.83594 218.75781 106.83594 C 219.09181 104.83594 220.75781 99.835938 220.75781 99.835938 C 220.75781 99.835938 218.09083 99.501969 214.42383 102.16797 C 210.75683 104.83397 209.25781 109.33594 209.25781 109.33594 C 209.25781 109.33594 207.5918 108.83495 207.5918 105.00195 L 207.5918 93.001953 z M 134.17773 96.628906 C 134.17773 96.628906 131.67773 97.128906 128.92773 99.128906 C 126.17773 101.12891 125.30273 104.37891 125.30273 104.37891 L 135.67773 120.50391 L 134.17773 96.628906 z M 142.30273 99.128906 C 140.55273 99.128906 139.42773 100.00391 139.42773 100.00391 C 139.42773 100.00391 138.92773 101.25391 138.92773 102.62891 C 138.92773 104.00391 154.30273 145.00391 154.30273 145.00391 L 152.55273 104.62891 C 152.55273 104.62891 144.05273 99.128906 142.30273 99.128906 z M 119.30273 106.12891 L 119.30273 117.62891 L 111.80273 117.62891 C 111.80273 117.62891 110.80273 119.00391 110.80273 119.87891 C 110.80273 120.75391 112.05273 122.12891 112.05273 122.12891 C 112.05273 122.12891 117.17773 123.12891 120.30273 123.62891 C 123.42773 124.12891 125.30273 125.00391 125.30273 125.00391 C 125.30273 125.00391 125.42773 120.62891 125.42773 117.75391 C 125.42773 114.87891 119.30273 106.12891 119.30273 106.12891 z M 153.49414 178.00391 L 134.49414 186.66992 C 134.49414 186.66992 136.82812 190.67089 136.82812 194.33789 C 136.82813 198.00589 128.66016 204.66797 122.66016 204.66797 C 116.66016 204.66797 115.82812 203.00195 115.82812 203.00195 C 115.82812 203.00195 111.32812 209.50097 110.32812 217.16797 C 109.32812 224.83497 108.99414 229.66797 108.99414 229.66797 L 129.99414 229.66797 L 129.99414 211.66797 L 141.16211 204.50195 L 168.08008 209.66797 L 194.98828 204.50195 L 206.1543 211.66797 L 206.1543 229.66797 L 227.1543 229.66797 C 227.1543 229.66797 226.82227 224.83497 225.82227 217.16797 C 224.82227 209.50097 220.32227 203.00195 220.32227 203.00195 C 220.32227 203.00195 219.48828 204.66797 213.48828 204.66797 C 207.48828 204.66797 199.32227 198.00489 199.32227 194.33789 C 199.32227 190.67089 201.6543 186.66992 201.6543 186.66992 L 182.6543 178.00391 L 174.32812 187.66992 L 161.82812 187.66992 L 153.49414 178.00391 z M 139.92773 214.83203 L 140.76172 244.16797 L 168.05273 256 L 195.33984 244.16797 L 196.17383 214.83203 L 168.05273 222.5 L 139.92773 214.83203 z M 208.42383 241.58594 L 208.42383 251.66797 L 182.25781 268.12695 L 162.26172 268.12695 L 128.92969 249.91797 L 128.92969 243.00195 L 107.0957 252.75195 L 116.17969 274.08398 C 116.17969 274.08398 117.0127 271.33398 123.0957 271.33398 C 129.1787 271.33398 134.92969 275.08595 134.92969 280.25195 C 134.92969 285.41795 132.76172 289.33398 132.76172 289.33398 L 159.42969 299.75391 C 159.42969 299.75391 161.76177 286.00391 170.25977 286.00391 C 178.75777 286.00391 181.3418 298.33594 181.3418 298.33594 L 204.50781 290.08594 C 204.50781 290.08594 202.42383 284.25294 202.42383 280.58594 C 202.42383 276.91894 204.33983 270.33594 211.17383 270.33594 C 218.00783 270.33594 222.3418 273.41992 222.3418 273.41992 L 233.92383 250.58594 L 208.42383 241.58594 z M 74.677734 276 C 74.677734 276 69.927734 279.5 63.677734 279.5 L 51.259766 279.5 L 51.927734 292.25 C 51.927734 292.25 48.67675 295.91797 44.59375 295.91797 L 34.011719 295.91797 L 27.177734 285 L 9.9277344 296.25 L 20.927734 318.75 L 60.927734 306.5 L 66.427734 315 L 37.927734 345.75 L 53.177734 358.5 L 99.427734 304.5 L 74.677734 276 z M 264.29883 277 L 255.54883 292.75 L 275.17383 307.125 L 284.29883 297.875 L 299.54883 301 C 299.54883 301 299.42383 305 297.79883 310.25 C 296.17383 315.5 293.29883 321.125 293.29883 321.125 L 317.67383 330.75 C 317.67383 330.75 332.04883 311.625 332.04883 288.75 L 332.04883 277 L 264.29883 277 z M 245.79883 303.25 L 211.04883 321.75 L 223.17383 364.625 L 201.92383 369.75 L 203.92383 388.25 L 251.79883 376.25 L 238.67383 333.5 L 251.42383 327.25 L 283.04883 359.875 C 283.04883 359.875 286.79883 359 292.04883 355.375 C 297.29883 351.75 300.17383 348.5 300.17383 348.5 L 245.79883 303.25 z M 106.92773 310 L 71.677734 368.5 L 101.42773 379 L 117.92773 314.75 L 106.92773 310 z M 126.67773 319.625 L 123.55273 335.875 L 141.80273 347.625 L 141.80273 352.25 C 141.80273 355.375 139.55273 369 139.55273 369 L 137.05273 369 C 128.17773 369 118.17773 365.875 118.17773 365.875 L 109.80273 381.375 C 109.80273 381.375 139.92773 390 155.17773 390 L 175.79883 390 L 175.79883 368 L 167.05273 363.75 L 167.05273 327.25 L 154.42773 327.25 C 143.92773 327.25 127.05273 319.875 126.67773 319.625 z M 203.79883 325.25 L 176.29883 326.375 L 175.04883 348 L 187.17383 347.875 L 186.92383 358.5 L 203.79883 357.75 L 203.79883 325.25 z "
   id="polygon2"
   style="fill:#000000;fill-opacity:1" /><path
   id="path974"
   d="m 162.05273,2.8789062 -16.3125,19.5624998 15.625,17.75 18.9961,-17.75 z m 35.8086,14.7499998 -28.75,25.0625 30.125,24.75 z m -68.59961,0.708985 v 63.332031 c 0,0 31.66797,-2.332031 31.66797,18.667968 v 74.5 h 11.83008 v -74.33398 c 0,-16.000004 24.99804,-19.500004 24.99804,-19.500004 z m -15.83399,28.541015 c -16.499996,0 -48.499011,23.457032 -55.166011,64.457034 -6.667,41 -20,153.99609 -20,153.99609 H 66.59375 c 0,0 19.000984,-133.66308 21.333984,-150.33008 2.333,-16.667 6,-26.332997 18.999996,-30.999997 1.21,-0.457 13.25,-3.873047 13.25,-3.873047 v -33.25 z m 92.52735,0 v 33.25 c 0,0 12.041,3.416047 13.25,3.873047 13,4.667 16.666,14.332997 19,30.999997 2.334,16.667 21.33203,150.33008 21.33203,150.33008 h 28.33398 c 0,0 -13.333,-112.99609 -20,-153.99609 -6.666,-41.000002 -38.66601,-64.457034 -55.16601,-64.457034 z m -0.36328,44.123047 c 0,0 -8.33399,11.667987 -12.33399,16.833987 -4,5.166 -6.66601,13.16601 -6.66601,13.16601 0,0 -1,-3.16601 -1,-7.16601 0,-4 4.33203,-15.16602 4.33203,-15.16602 0,0 -12.83203,6.16699 -12.83203,20.83399 v 27.33203 c 0,0 22.834,-19 26.5,-22 3.666,-3 9.33203,-4 13.33203,-4 4,0 11.16797,2.83398 11.16797,2.83398 l -11,-13.16797 c 0,0 -0.66799,-3.66601 -0.33399,-5.66601 0.334,-2 2,-7.000002 2,-7.000002 0,0 -2.66698,-0.333969 -6.33398,2.332032 -3.667,2.666 -5.16602,7.16797 -5.16602,7.16797 0,0 -1.66601,-0.50099 -1.66601,-4.33399 z m -73.41407,3.626953 c 0,0 -2.5,0.5 -5.25,2.5 -2.75,2.000004 -3.625,5.250004 -3.625,5.250004 l 10.375,16.125 z m 8.125,2.5 c -1.75,0 -2.875,0.875004 -2.875,0.875004 0,0 -0.5,1.25 -0.5,2.625 0,1.375 15.375,42.375 15.375,42.375 l -1.75,-40.375 c 0,0 -8.5,-5.500004 -10.25,-5.500004 z m -23,7.000004 v 11.5 h -7.5 c 0,0 -1,1.375 -1,2.25 0,0.875 1.25,2.25 1.25,2.25 0,0 5.125,1 8.25,1.5 3.125,0.5 5,1.375 5,1.375 0,0 0.125,-4.375 0.125,-7.25 0,-2.875 -6.125,-11.625 -6.125,-11.625 z m 34.19141,71.875 -19,8.66601 c 0,0 2.33398,4.00097 2.33398,7.66797 10e-6,3.668 -8.16796,10.33008 -14.16796,10.33008 -6,0 -6.83204,-1.66602 -6.83204,-1.66602 0,0 -4.5,6.49902 -5.5,14.16602 -1,7.667 -1.33398,12.5 -1.33398,12.5 h 21 v -18 l 11.16797,-7.16602 26.91797,5.16602 26.9082,-5.16602 11.16602,7.16602 v 18 h 21 c 0,0 -0.33203,-4.833 -1.33203,-12.5 -1,-7.667 -5.5,-14.16602 -5.5,-14.16602 0,0 -0.83399,1.66602 -6.83399,1.66602 -6,0 -14.16601,-6.66308 -14.16601,-10.33008 0,-3.667 2.33203,-7.66797 2.33203,-7.66797 l -19,-8.66601 -8.32618,9.66601 h -12.5 z m -13.56641,36.82812 0.83399,29.33594 27.29101,11.83203 27.28711,-11.83203 0.83399,-29.33594 -28.1211,7.66797 z m 68.4961,26.75391 v 10.08203 l -26.16602,16.45898 h -19.99609 l -33.33203,-18.20898 v -6.91602 l -21.83399,9.75 9.08399,21.33203 c 0,0 0.83301,-2.75 6.91601,-2.75 6.083,0 11.83399,3.75197 11.83399,8.91797 0,5.166 -2.16797,9.08203 -2.16797,9.08203 l 26.66797,10.41993 c 0,0 2.33208,-13.75 10.83008,-13.75 8.498,0 11.08203,12.33203 11.08203,12.33203 l 23.16601,-8.25 c 0,0 -2.08398,-5.833 -2.08398,-9.5 0,-3.667 1.916,-10.25 8.75,-10.25 6.834,0 11.16797,3.08398 11.16797,3.08398 l 11.58203,-22.83398 z M 72.677734,274 c 0,0 -4.75,3.5 -11,3.5 H 49.259766 l 0.667968,12.75 c 0,0 -3.250984,3.66797 -7.333984,3.66797 H 32.011719 L 25.177734,283 7.9277344,294.25 l 10.9999996,22.5 40,-12.25 5.5,8.5 -28.5,30.75 15.25,12.75 46.25,-54 z m 189.621096,1 -8.75,15.75 19.625,14.375 9.125,-9.25 15.25,3.125 c 0,0 -0.125,4 -1.75,9.25 -1.625,5.25 -4.5,10.875 -4.5,10.875 l 24.375,9.625 c 0,0 14.375,-19.125 14.375,-42 V 275 Z m -18.5,26.25 -34.75,18.5 12.125,42.875 -21.25,5.125 2,18.5 47.875,-12 -13.125,-42.75 12.75,-6.25 31.625,32.625 c 0,0 3.75,-0.875 9,-4.5 5.25,-3.625 8.125,-6.875 8.125,-6.875 z M 104.92773,308 69.677734,366.5 99.42773,377 l 16.5,-64.25 z m 19.75,9.625 -3.125,16.25 18.25,11.75 v 4.625 c 0,3.125 -2.25,16.75 -2.25,16.75 h -2.5 c -8.875,0 -18.875,-3.125 -18.875,-3.125 l -8.375,15.5 c 0,0 30.125,8.625 45.375,8.625 h 20.6211 v -22 l -8.7461,-4.25 v -36.5 h -12.625 c -10.5,0 -27.375,-7.375 -27.75,-7.625 z m 77.1211,5.625 -27.5,1.125 -1.25,21.625 12.125,-0.125 -0.25,10.625 16.875,-0.75 z"
   inkscape:connector-curvature="0"
   style="fill:url(#linearGradient982);fill-opacity:1" />



































</svg>