<?xml version="1.0" encoding="utf-8"?>
<!-- Generator: Adobe Illustrator 15.0.0, SVG Export Plug-In . SVG Version: 6.00 Build 0)  -->
<!DOCTYPE svg PUBLIC "-//W3C//DTD SVG 1.1//EN" "http://www.w3.org/Graphics/SVG/1.1/DTD/svg11.dtd">
<svg version="1.1" id="Layer_1" xmlns="http://www.w3.org/2000/svg" xmlns:xlink="http://www.w3.org/1999/xlink" x="0px" y="0px"
	 width="1517.88px" height="1229.688px" viewBox="0 0 1517.88 1229.688" enable-background="new 0 0 1517.88 1229.688"
	 xml:space="preserve">
<g>
	<path fill-rule="evenodd" clip-rule="evenodd" fill="#212263" d="M815.164,1124.267l266.801,0.428
		c47.432,0,85.885-38.463,85.885-85.895l0.121-983.173h-47.739l-0.064,47.097h-47.683V55.627h-49.32v47.859h-47.748V56.399h-47.739
		v46.324h-48.538V55.627H831.39v46.315h-47.739V56.399h-47.748v46.324h-47.757V55.627h-47.748v47.097h-48.529V55.627h-48.529v47.097
		h-46.967V55.627h-47.747v47.859h-48.53V56.399h-48.529l0.298,982.4c0,47.432,38.463,85.895,85.895,85.895l259.822-0.428
		c28.116,0,58.205,24.172,61.518,51.376C762.392,1148.438,787.047,1124.267,815.164,1124.267"/>
	<path fill="#212263" d="M757.317,1175.856c-3.117-25.595-32.15-49.794-59.736-49.794l-259.818,0.428
		c-48.357,0-87.694-39.337-87.694-87.69L349.77,54.604h52.121v47.087h44.938V53.831h51.339v47.097h43.375V53.831h52.121v47.097
		h44.938V53.831h51.34v47.097h44.166V54.604h51.339v45.543h44.147V53.831h51.34v47.097h44.947V54.604h51.33v47.087h44.156V53.831
		h52.912v47.097h44.091l0.065-47.097h51.33l-0.121,984.969c0,48.354-39.337,87.69-87.681,87.69l-266.801-0.428
		c-26.153,0-51.014,22.804-54.284,49.794H757.317z M697.576,1122.471c26.684,0,53.698,20.292,61.43,44.464
		c7.006-25.177,30.601-44.464,56.158-44.464l266.801,0.428c46.371,0,84.089-37.728,84.089-84.099l0.121-981.377h-44.146
		l-0.065,47.097h-51.274V57.423h-45.729v47.859h-51.34V58.194h-44.147v46.325h-52.13V57.423h-44.156v46.314h-51.33V58.194h-44.157
		v46.325H686.35V57.423h-44.156v47.097h-52.121V57.423h-44.938v47.097h-50.559V57.423H450.42v47.859h-52.121V58.194h-44.938
		l0.298,980.605c0,46.371,37.728,84.099,84.099,84.099L697.576,1122.471z"/>
	<path fill-rule="evenodd" clip-rule="evenodd" fill="#212263" d="M417.038,526.272c27.466-32.745,69.548-60.368,113.369-60.368
		c42.37,0,83.754,20.794,109.08,53.521c0,0,27.818,25.326,60.811,58.801c24.088,24.451,48.398,54.819,72.449,74.823
		c60.746,50.464,166.142,100.39,236.154,134.461c54.586,26.534,98.222,52.214,98.222,52.214s-206.381-119.314-311.98-201.617
		c56.54-76.553,163.21-103.2,256.008-55.917c20.515,10.458,36.676,29.81,52.195,45.013v435.156H416.201V530.348L417.038,526.272z"/>
	<path fill="#212263" d="M1105.141,1064.153H414.405V530.348l1.256-5.229c32.043-38.202,74.939-61.011,114.746-61.011
		c42.277,0,84.619,20.775,110.498,54.219c0.07,0.023,28.024,25.512,60.672,58.639c8.699,8.829,17.565,18.58,26.135,28.01
		c15.188,16.7,30.889,33.969,46.185,46.696c57.149,47.478,153.371,94.202,223.626,128.311l12.16,5.908
		c6.978,3.396,13.779,6.773,20.338,10.085c-70.049-42.453-171.332-106.064-235.985-156.455l-1.377-1.07l1.042-1.414
		c37.076-50.203,97.254-80.177,160.959-80.177c33.661,0,66.402,7.983,97.31,23.729c16.524,8.426,29.94,22.186,42.9,35.495
		c3.294,3.378,6.532,6.694,9.732,9.835l0.54,0.529v210.047l2.893,1.684l-1.814,3.099l-0.009-0.01l-1.069-0.614V1064.153z
		 M417.997,1060.563h683.553V838.569c-11.77-6.764-49.199-27.939-93.431-49.441l-12.16-5.917
		c-70.422-34.192-166.866-81.019-224.36-128.785c-15.486-12.877-31.275-30.243-46.543-47.036
		c-8.551-9.402-17.389-19.125-26.037-27.902c-32.578-33.053-60.462-58.48-60.741-58.736c-25.423-32.811-66.677-53.052-107.87-53.052
		c-38.635,0-80.363,22.19-111.703,59.383l-0.744,3.629L417.997,1060.563z M797.635,637.771
		c94.101,73.026,263.86,173.249,303.914,196.63V627.956c-3.052-3.001-6.122-6.154-9.248-9.365
		c-12.766-13.1-25.968-26.646-41.971-34.801c-30.387-15.486-62.578-23.339-95.672-23.339
		C892.684,560.451,834.116,589.321,797.635,637.771z"/>
	<path fill-rule="evenodd" clip-rule="evenodd" fill="#FFFFFF" d="M291.127,929.525v147.254l-214.652-0.224
		c11.006-20.487,19.25-46.464,19.25-73.604c0-28.303-7.052-52.66-18.961-73.613L291.127,929.525z"/>
	<path fill="#212263" d="M297.254,1082.91l-231.018-0.241l4.843-9.016c11.941-22.228,18.52-47.339,18.52-70.701
		c0-25.633-6.108-49.386-18.162-70.59l-5.206-9.154l231.022,0.195V1082.91z M86.375,1070.442L285,1070.647v-135l-198.109-0.177
		c9.932,20.673,14.96,43.319,14.96,67.481C101.852,1025.179,96.4,1048.793,86.375,1070.442z"/>
	<polygon fill="#212263" points="287.466,1081.282 196.976,1013.801 204.298,1003.976 294.789,1071.457 	"/>
	<path fill-rule="evenodd" clip-rule="evenodd" fill="#FFFFFF" d="M1226.752,929.525v147.254l214.643-0.224
		c-11.007-20.487-19.231-46.464-19.231-73.604c0-28.303,7.053-52.66,18.952-73.613L1226.752,929.525z"/>
	<path fill="#212263" d="M1220.63,1082.91V923.403l231.018-0.195l-5.201,9.154c-12.048,21.214-18.161,44.957-18.161,70.59
		c0,23.391,6.578,48.492,18.506,70.701l4.848,9.016L1220.63,1082.91z M1232.875,935.647v135l198.621-0.205
		c-10.011-21.631-15.454-45.254-15.454-67.49c0-24.153,5.024-46.809,14.951-67.481L1232.875,935.647z"/>
	<polygon fill="#212263" points="1230.418,1081.282 1223.086,1071.457 1313.586,1003.976 1320.918,1013.801 	"/>
	<rect x="202.163" y="869.31" fill="#FFFFFF" width="1113.555" height="139.56"/>
	<path fill="#212263" d="M1321.839,1014.991H196.037V863.188h1125.803V1014.991z M208.29,1002.747h1101.306V875.433H208.29V1002.747
		z"/>
	<path fill-rule="evenodd" clip-rule="evenodd" fill="#FFCF01" d="M630.704,880.251c0-35.932,29.996-65.071,65.928-65.071
		s65.054,29.14,65.054,65.071c0-35.932,25.958-65.071,61.89-65.071c35.923,0,65.053,29.14,65.053,65.071l-0.139,194.072h-257.58
		L630.704,880.251z"/>
	<path fill="#212263" d="M893.084,1078.919H626.317l-0.209-198.658c0-38.426,31.638-69.678,70.523-69.678
		c29.363,0,54.54,18.264,64.765,44.036c9.347-26.293,33.001-44.036,62.179-44.036c38.406,0,69.649,31.252,69.649,69.668
		L893.084,1078.919z M635.5,1069.727h248.393l0.14-189.476c0-33.345-27.121-60.476-60.457-60.476
		c-32.666,0-57.294,25.995-57.294,60.476h-9.192c0-33.345-27.121-60.476-60.457-60.476c-33.82,0-61.332,27.131-61.332,60.476
		L635.5,1069.727z"/>
	<path fill-rule="evenodd" clip-rule="evenodd" fill="#FFFFFF" d="M795.142,638.106c56.54-76.553,163.21-103.2,256.008-55.917
		c20.515,10.458,36.955,28.88,52.474,44.083V587.81c-15.519-15.203-31.959-19.706-52.474-30.164
		c-16.757-8.541-33.866-14.607-51.005-18.365c-21.529-111.812-118.514-196.077-236.6-196.077
		c-81.949,0-154.408,40.668-198.268,102.948c-10.773-2.847-23.465-4.782-34.871-4.782c-43.821,0-88.09,15.268-113.369,49.925v34.979
		c27.466-32.755,69.548-60.368,113.369-60.368c42.37,0,83.754,20.794,109.08,53.521c0,0,27.818,25.344,60.811,58.801
		c24.088,24.451,48.398,54.819,72.449,74.805c60.746,50.482,166.142,100.39,236.154,134.479
		c54.586,26.534,98.222,52.232,98.222,52.232S900.742,720.409,795.142,638.106"/>
	<path fill="#FFFFFF" d="M1106.219,841.296l-3.814-2.224c-10.644-6.141-48.892-27.875-94.286-49.944l-12.532-6.094
		c-70.311-34.154-166.597-80.926-223.988-128.627c-15.496-12.877-31.294-30.248-46.571-47.051
		c-8.541-9.393-17.37-19.101-26.009-27.869c-32.583-33.039-60.462-58.48-60.741-58.736c-25.423-32.811-66.677-53.052-107.87-53.052
		c-38.765,0-80.633,22.33-111.992,59.728l-3.172,3.781v-40.5l0.344-0.47c23.483-32.201,65.337-50.665,114.82-50.665
		c10.435,0,22.799,1.647,34.122,4.526c45.794-64.322,120.096-102.692,199.017-102.692c115.686,0,215.647,82.513,238.135,196.374
		c17.194,3.876,34.108,10.017,50.288,18.265c5.489,2.795,10.662,5.158,15.668,7.443c13.779,6.279,25.679,11.709,37.244,23.036
		l0.539,0.53v43.486l-3.052-2.986c-2.484-2.438-4.996-4.959-7.545-7.513c-13.528-13.569-27.512-27.601-44.492-36.253
		c-30.387-15.486-62.578-23.339-95.672-23.339c-61.975,0-120.543,28.87-157.023,77.32c96.37,74.785,272.122,178.134,306.557,198.193
		c0.009,0,0.009,0,0.009,0l3.833,2.232L1106.219,841.296z M530.407,464.108c42.277,0,84.619,20.775,110.498,54.219
		c0.07,0.023,28.024,25.53,60.672,58.639c8.689,8.82,17.543,18.557,26.106,27.977c15.193,16.71,30.908,33.992,46.213,46.711
		c57.057,47.412,153.12,94.082,223.263,128.152l12.532,6.085c6.932,3.378,13.696,6.736,20.218,10.039
		c-70.031-42.464-171.258-106.056-235.874-156.409l-1.377-1.07l1.042-1.414c37.076-50.203,97.254-80.177,160.959-80.177
		c33.661,0,66.402,7.983,97.31,23.729c17.482,8.914,31.671,23.148,45.394,36.918c1.498,1.504,2.987,2.996,4.467,4.467v-33.406
		c-10.951-10.537-22.432-15.77-35.681-21.813c-5.043-2.299-10.253-4.676-15.817-7.509c-16.263-8.294-33.28-14.421-50.566-18.212
		l-1.163-0.252l-0.224-1.163c-21.706-112.769-120.477-194.62-234.832-194.62c-78.172,0-151.738,38.202-196.797,102.186l-0.722,1.023
		l-1.21-0.321c-11.355-3.001-23.896-4.722-34.41-4.722c-48.083,0-88.709,17.747-111.573,48.716v29.544
		C450.495,485.451,491.893,464.108,530.407,464.108z"/>
	
		<rect x="405.574" y="393.356" transform="matrix(0.8525 0.5227 -0.5227 0.8525 281.4351 -193.3877)" fill="#FFFFFF" width="155.722" height="17.408"/>
	<polygon fill="#FFFFFF" points="487.72,455.265 413.624,420.831 420.955,405.042 495.051,439.476 	"/>
	
		<rect x="415.001" y="454.652" transform="matrix(0.9493 0.3144 -0.3144 0.9493 167.4709 -111.7001)" fill="#FFFFFF" width="30.069" height="17.406"/>
	<polygon fill="#FFFFFF" points="999.578,541.55 996.657,524.394 1102.377,506.418 1105.298,523.574 	"/>
	<polygon fill="#FFFFFF" points="992.19,513.885 987.222,497.202 1099.819,463.703 1104.787,480.386 	"/>
	<polygon fill="#FFFFFF" points="982.999,489.639 976.225,473.599 1100.666,421.077 1107.439,437.117 	"/>
	<polygon fill="#FFFFFF" points="970.8,464.531 962.167,449.412 1099.735,370.924 1108.369,386.043 	"/>
	
		<rect x="1019.734" y="284.049" transform="matrix(0.5892 0.808 -0.808 0.5892 729.085 -675.0328)" fill="#FFFFFF" width="17.4" height="190.972"/>
	<polygon fill="#FFFFFF" points="939.158,421.892 927.323,409.117 1098.135,250.931 1109.969,263.705 	"/>
	<polygon fill="#FFFFFF" points="919.638,403.391 906.408,392.077 1097.223,168.828 1110.454,180.142 	"/>
	<polygon fill="#FFFFFF" points="899.551,385.578 885.111,375.874 1030.867,158.896 1045.307,168.601 	"/>
	
		<rect x="913.321" y="150.791" transform="matrix(0.8879 0.46 -0.46 0.8879 225.8693 -394.2551)" fill="#FFFFFF" width="17.416" height="231.226"/>
	
		<rect x="872.817" y="156.978" transform="matrix(0.935 0.3548 -0.3548 0.935 149.9639 -295.746)" fill="#FFFFFF" width="17.414" height="208.244"/>
	
		<rect x="833.904" y="160.594" transform="matrix(0.9697 0.2443 -0.2443 0.9697 88.4688 -198.0462)" fill="#FFFFFF" width="17.404" height="194.043"/>
	
		<rect x="796.568" y="162.944" transform="matrix(0.9913 0.1315 -0.1315 0.9913 40.5967 -103.7105)" fill="#FFFFFF" width="17.401" height="184.942"/>
	
		<rect x="759.516" y="163.736" transform="matrix(0.9999 0.016 -0.016 0.9999 4.1628 -12.2488)" fill="#FFFFFF" width="17.409" height="181.023"/>
	
		<rect x="640.786" y="246.291" transform="matrix(0.0958 0.9954 -0.9954 0.0958 916.0894 -498.5217)" fill="#FFFFFF" width="183.332" height="17.404"/>
	<polygon fill="#FFFFFF" points="706.526,352.754 666.073,165.586 683.089,161.911 723.543,349.078 	"/>
	<polygon fill="#FFFFFF" points="681.67,360.569 615.724,166.33 632.21,160.738 698.157,354.978 	"/>
	
		<rect x="504.469" y="256.692" transform="matrix(0.4287 0.9035 -0.9035 0.4287 592.2762 -405.7857)" fill="#FFFFFF" width="225.013" height="17.404"/>
	
		<rect x="447.818" y="262.458" transform="matrix(0.5295 0.8483 -0.8483 0.5295 500.2721 -359.72)" fill="#FFFFFF" width="253.251" height="17.408"/>
	
		<rect x="381.387" y="270.111" transform="matrix(0.623 0.7823 -0.7823 0.623 417.3621 -308.2806)" fill="#FFFFFF" width="294.179" height="17.4"/>
	<polygon fill="#FFFFFF" points="593.944,417.774 412.302,237.408 424.565,225.052 606.206,405.419 	"/>
	
		<rect x="395.751" y="355.881" transform="matrix(0.7836 0.6213 -0.6213 0.7836 334.6157 -231.502)" fill="#FFFFFF" width="207.747" height="17.405"/>
	<polygon fill="#FFFFFF" points="1051.569,566.354 1050.657,548.975 1103.596,546.183 1104.508,563.563 	"/>
	<path fill-rule="evenodd" clip-rule="evenodd" fill="#212263" d="M949.215,976.343v-65.872h34.853v65.872h10.867v-69.742
		c0-1.656-0.856-2.959-1.981-4.262c-1.126-1.153-2.68-1.786-4.652-1.786h-50.66v9.918h3.945l-3.238,7.61v48.344h-6.494v9.918
		H949.215z M1018.995,900.553v9.918h6.477v22.683h10.857v-26.553c0-1.656-0.828-2.959-1.963-4.262
		c-1.136-1.153-2.68-1.786-4.652-1.786H1018.995z M1057.821,900.553v9.918h6.484v22.683h10.877v-26.553
		c0-1.656-0.847-2.959-1.973-4.262c-1.135-1.153-2.689-1.786-4.671-1.786H1057.821z M1140.272,976.343h10.858v-69.742
		c0-1.656-0.708-2.959-1.843-4.262c-1.116-1.153-2.67-1.786-4.643-1.786h-49.962v9.918h45.589V976.343z M1174.297,900.553v9.918
		h6.494v22.683h10.867v-26.553c0-1.656-0.856-2.959-1.973-4.262c-1.136-1.153-2.698-1.786-4.671-1.786H1174.297z M1235.573,966.425
		v-59.824c0-1.656-0.847-2.959-1.973-4.262c-0.986-1.153-2.68-1.786-4.521-1.786h-10.867v9.918h6.494v55.954h-11.574v9.918h41.496
		c4.931,0,9.024-1.284,12.271-4.912c2.54-2.94,3.536-4.876,3.536-9.527v-55.303c0-1.656-0.847-2.959-1.981-4.262
		c-1.127-1.153-2.689-1.786-4.662-1.786h-10.857v9.918h6.624v51.433c0,1.042,0.149,2.195-0.837,3.237
		c-0.986,1.023-1.973,1.284-3.387,1.284H1235.573z"/>
	<path fill="#212263" d="M1254.627,977.227h-42.38v-11.686h11.574v-54.187h-6.494v-11.686h11.751c2.158,0,4.057,0.763,5.191,2.094
		c1.08,1.246,2.187,2.8,2.187,4.838v58.94h18.878c1.321,0,2.019-0.261,2.744-1.015c0.596-0.623,0.614-1.256,0.596-2.242v-50.93
		h-6.624v-11.686h11.741c2.149,0,3.982,0.707,5.294,2.047c1.126,1.293,2.233,2.838,2.233,4.885v55.303
		c0,4.959-1.107,7.043-3.75,10.104C1264.377,975.57,1260.275,977.227,1254.627,977.227z M1214.016,975.459h40.611
		c5.099,0,8.792-1.47,11.611-4.624c2.438-2.819,3.313-4.596,3.313-8.932v-55.303c0-1.451-0.848-2.624-1.768-3.676
		c-0.949-0.977-2.308-1.488-3.992-1.488h-9.974v8.15h6.624l0.01,52.66c0.01,0.977,0.037,2.316-1.089,3.498
		c-1.247,1.303-2.512,1.563-4.028,1.563h-20.646v-60.708c0-1.368-0.707-2.466-1.759-3.685c-0.791-0.921-2.232-1.479-3.852-1.479
		h-9.983v8.15h6.494v57.722h-11.573V975.459z M1152.014,977.227h-12.626v-65.872h-45.589v-11.686h50.846
		c2.187,0,3.964,0.688,5.275,2.057c1.461,1.665,2.094,3.162,2.094,4.875V977.227z M1141.157,975.459h9.09v-68.858
		c0-1.275-0.484-2.373-1.629-3.676c-0.939-0.977-2.289-1.488-3.973-1.488h-49.078v8.15h45.59V975.459z M995.819,977.227h-12.635
		v-65.872h-33.085v65.872H930.97v-11.686h6.494l0.065-47.804l2.717-6.383h-3.489v-11.686h51.544c2.178,0,3.954,0.688,5.285,2.047
		c1.182,1.367,2.232,2.865,2.232,4.885V977.227z M984.952,975.459h9.1v-68.858c0-1.359-0.707-2.457-1.768-3.685
		c-0.949-0.968-2.299-1.479-3.982-1.479h-49.776v8.15h4.401l-3.694,8.671v49.051h-6.494v8.15h15.594v-65.872h36.62V975.459z
		 M1192.542,934.038h-12.635v-22.684h-6.494v-11.686h11.603c2.177,0,3.964,0.688,5.304,2.047c1.172,1.367,2.223,2.875,2.223,4.885
		V934.038z M1181.675,932.271h9.099v-25.67c0-1.359-0.707-2.457-1.758-3.685c-0.959-0.968-2.317-1.479-4.001-1.479h-9.835v8.15
		h6.495V932.271z M1076.066,934.038h-12.645v-22.684h-6.484v-11.686h11.602c2.177,0,3.964,0.688,5.304,2.047
		c1.116,1.293,2.224,2.847,2.224,4.885V934.038z M1065.189,932.271h9.108v-25.67c0-1.368-0.707-2.466-1.758-3.685
		c-0.959-0.968-2.316-1.479-4.001-1.479h-9.834v8.15h6.484V932.271z M1037.212,934.038h-12.626v-22.684h-6.475v-11.686h11.602
		c2.168,0,3.945,0.688,5.285,2.047c1.116,1.274,2.214,2.818,2.214,4.885V934.038z M1026.354,932.271h9.091v-25.67
		c0-1.191-0.512-2.262-1.749-3.676c-0.959-0.977-2.308-1.488-3.982-1.488h-9.834v8.15h6.475V932.271z"/>
	<path fill-rule="evenodd" clip-rule="evenodd" fill="#212263" d="M266.435,946.812c0,2.084-0.382,9.807-7.49,15.092
		c-6.987,5.303-10.411,4.261-10.411,4.521v9.918c0,0.242,11.174-0.763,19.297-8.504c4.316-4,8.392-11.221,8.392-19.482v-41.756
		c0-1.656-0.763-2.959-1.786-4.262c-1.023-1.153-2.41-1.786-4.057-1.786h-47.115v9.918h43.171V946.812z M222.929,1004.329h9.77
		v-71.176h-9.77V1004.329z M332.865,976.343h9.778v-69.742c0-1.656-0.642-2.959-1.656-4.262c-1.014-1.153-2.409-1.786-4.195-1.786
		h-44.957v9.918h41.03V976.343z M408.543,966.425h-41.143v9.918h56.01v-9.918h-5.098v-59.824c0-1.656-0.764-2.959-1.768-4.262
		c-1.023-1.153-2.42-1.786-4.188-1.786h-44.957v9.918h41.143V966.425z"/>
	<path fill="#212263" d="M233.583,1005.213h-11.537v-72.942h11.537V1005.213z M223.813,1003.445h8.002v-69.407h-8.002V1003.445z
		 M248.752,977.264h-0.889l-0.214-0.921v-9.918c0-0.409,0.21-0.912,1.205-0.949c2.707-0.084,5.922-1.525,9.556-4.279
		c6.442-4.792,7.141-11.658,7.141-14.385v-35.457H222.38v-11.686h47.999c1.88,0,3.508,0.717,4.717,2.084
		c1.015,1.284,2.01,2.828,2.01,4.848v41.756c0,8.913-4.479,16.244-8.676,20.134C260.829,975.738,250.474,977.264,248.752,977.264z
		 M249.417,967.225v8.226c2.759-0.289,11.3-2.057,17.804-8.254c3.926-3.637,8.117-10.494,8.117-18.84v-41.756
		c0-1.479-0.768-2.661-1.6-3.713c-0.843-0.949-1.982-1.451-3.359-1.451h-46.231v8.15h43.171v37.225
		c0,2.996-0.764,10.533-7.844,15.799C254.26,966.573,250.925,967.122,249.417,967.225z M424.295,977.227h-57.777v-11.686h41.142
		v-54.187h-41.142v-11.686h45.84c1.991,0,3.624,0.697,4.848,2.084c1.056,1.358,1.991,2.847,1.991,4.848v58.94h5.099V977.227z
		 M368.286,975.459h54.242v-8.15h-5.1v-60.708c0-1.387-0.637-2.484-1.586-3.722c-0.837-0.94-2.023-1.442-3.484-1.442h-44.072v8.15
		h41.142v57.722h-41.142V975.459z M343.528,977.227h-11.547v-65.872h-41.03v-11.686h45.841c2.01,0,3.643,0.697,4.861,2.084
		c1.307,1.675,1.875,3.163,1.875,4.848V977.227z M333.749,975.459h8.011v-68.858c0-1.284-0.441-2.392-1.47-3.713
		c-0.833-0.949-2.023-1.451-3.498-1.451h-44.073v8.15h41.03V975.459z"/>
	<path fill-rule="evenodd" clip-rule="evenodd" fill="#212263" d="M434.409,912.108h30.35v-9.807h-30.35V912.108z M484.771,900.553
		v9.918h5.853v22.683h9.769v-26.553c0-1.656-0.763-2.959-1.776-4.262c-1.015-1.153-2.41-1.786-4.197-1.786H484.771z
		 M516.079,976.343h20.06v-69.742c0-1.656-0.633-2.959-1.638-4.262c-1.014-1.153-2.419-1.786-4.196-1.786h-10.541v9.918h6.605
		v55.954h-10.29V976.343z M596.641,966.425h-41.15v9.918h56.01v-9.918h-5.08v-59.824c0-1.656-0.764-2.959-1.777-4.262
		c-1.014-1.153-2.419-1.786-4.196-1.786h-44.956v9.918h41.15V966.425z"/>
	<path fill="#212263" d="M612.384,977.227h-57.778v-11.686h41.152v-54.187h-41.152v-11.686h45.841c1.981,0,3.661,0.717,4.861,2.084
		c1.005,1.293,1.996,2.838,1.996,4.848v58.94h5.08V977.227z M556.374,975.459h54.242v-8.15h-5.079v-60.708
		c0-1.387-0.638-2.494-1.591-3.713c-0.833-0.949-2.024-1.451-3.499-1.451h-44.073v8.15h41.152v57.722h-41.152V975.459z
		 M537.022,977.227h-21.827v-11.686h10.29v-54.187h-6.605v-11.686h11.425c1.981,0,3.661,0.717,4.861,2.084
		c1.298,1.675,1.856,3.163,1.856,4.848V977.227z M516.962,975.459h18.292v-68.858c0-1.284-0.438-2.4-1.456-3.722
		c-0.828-0.94-2.02-1.442-3.494-1.442h-9.657v8.15h6.605v57.722h-10.29V975.459z M501.276,934.038h-11.537v-22.684h-5.852v-11.686
		h10.531c2.01,0,3.643,0.697,4.861,2.084c1.006,1.293,1.996,2.838,1.996,4.848V934.038z M491.506,932.271h8.002v-25.67
		c0-1.387-0.637-2.494-1.591-3.713c-0.833-0.949-2.023-1.451-3.499-1.451h-8.764v8.15h5.852V932.271z M465.642,912.992h-32.117
		v-11.574h32.117V912.992z M435.292,911.225h28.581v-8.039h-28.581V911.225z"/>
</g>
</svg>
