<?xml version="1.0" encoding="UTF-8" standalone="no"?>
<!-- Created with Inkscape (http://www.inkscape.org/) -->

<svg
   xmlns:dc="http://purl.org/dc/elements/1.1/"
   xmlns:cc="http://creativecommons.org/ns#"
   xmlns:rdf="http://www.w3.org/1999/02/22-rdf-syntax-ns#"
   xmlns:svg="http://www.w3.org/2000/svg"
   xmlns="http://www.w3.org/2000/svg"
   xmlns:sodipodi="http://sodipodi.sourceforge.net/DTD/sodipodi-0.dtd"
   xmlns:inkscape="http://www.inkscape.org/namespaces/inkscape"
   version="1.1"
   id="svg2"
   xml:space="preserve"
   width="327.93671"
   height="399.84772"
   viewBox="0 0 327.9367 399.84771"
   sodipodi:docname="Ofakim.svg"
   inkscape:version="0.92.3 (2405546, 2018-03-11)"><metadata
     id="metadata8"><rdf:RDF><cc:Work
         rdf:about=""><dc:format>image/svg+xml</dc:format><dc:type
           rdf:resource="http://purl.org/dc/dcmitype/StillImage" /><dc:title></dc:title></cc:Work></rdf:RDF></metadata><defs
     id="defs6"><clipPath
       clipPathUnits="userSpaceOnUse"
       id="clipPath18"><path
         d="M 15.331,15.331 H 621.945 V 868.559 H 15.331 Z"
         id="path16"
         inkscape:connector-curvature="0" /></clipPath><clipPath
       clipPathUnits="userSpaceOnUse"
       id="clipPath88"><path
         d="M 15.331,15.331 H 621.945 V 868.559 H 15.331 Z"
         id="path86"
         inkscape:connector-curvature="0" /></clipPath><clipPath
       clipPathUnits="userSpaceOnUse"
       id="clipPath162"><path
         d="M 15.331,15.331 H 621.945 V 868.559 H 15.331 Z"
         id="path160"
         inkscape:connector-curvature="0" /></clipPath><clipPath
       clipPathUnits="userSpaceOnUse"
       id="clipPath252"><path
         d="M 15.331,15.331 H 621.945 V 868.559 H 15.331 Z"
         id="path250"
         inkscape:connector-curvature="0" /></clipPath><clipPath
       clipPathUnits="userSpaceOnUse"
       id="clipPath338"><path
         d="M 15.331,15.331 H 621.945 V 868.559 H 15.331 Z"
         id="path336"
         inkscape:connector-curvature="0" /></clipPath><clipPath
       clipPathUnits="userSpaceOnUse"
       id="clipPath354"><path
         d="m 82.14,832.794 h 4.811 v -9.058 H 82.14 Z"
         id="path352"
         inkscape:connector-curvature="0" /></clipPath><clipPath
       clipPathUnits="userSpaceOnUse"
       id="clipPath370"><path
         d="m 82.14,826.645 h 4.811 v -9.064 H 82.14 Z"
         id="path368"
         inkscape:connector-curvature="0" /></clipPath><clipPath
       clipPathUnits="userSpaceOnUse"
       id="clipPath386"><path
         d="m 79.7868,832.794 h 4.807 v -9.058 h -4.807 z"
         id="path384"
         inkscape:connector-curvature="0" /></clipPath><clipPath
       clipPathUnits="userSpaceOnUse"
       id="clipPath402"><path
         d="m 79.7868,826.645 h 4.807 v -9.064 h -4.807 z"
         id="path400"
         inkscape:connector-curvature="0" /></clipPath><clipPath
       clipPathUnits="userSpaceOnUse"
       id="clipPath434"><path
         d="m 82.14,839.087 h 4.811 v -9.065 H 82.14 Z"
         id="path432"
         inkscape:connector-curvature="0" /></clipPath><clipPath
       clipPathUnits="userSpaceOnUse"
       id="clipPath450"><path
         d="m 79.7868,839.087 h 4.807 v -9.065 h -4.807 z"
         id="path448"
         inkscape:connector-curvature="0" /></clipPath><clipPath
       clipPathUnits="userSpaceOnUse"
       id="clipPath478"><path
         d="M 63.0049,809.795 H 104.796 V 767.993 H 63.0049 Z"
         id="path476"
         inkscape:connector-curvature="0" /></clipPath><clipPath
       clipPathUnits="userSpaceOnUse"
       id="clipPath498"><path
         d="m 65.9,780.569 c 3.18,-6.748 10.044,-11.417 18,-11.417 v 0 c 7.824,0 14.587,4.511 17.837,11.075 v 0 l -18.302,10.555 z"
         id="path496"
         inkscape:connector-curvature="0" /></clipPath><clipPath
       clipPathUnits="userSpaceOnUse"
       id="clipPath526"><path
         d="M 15.331,15.331 H 621.945 V 868.559 H 15.331 Z"
         id="path524"
         inkscape:connector-curvature="0" /></clipPath><clipPath
       clipPathUnits="userSpaceOnUse"
       id="clipPath546"><path
         d="M 15.331,15.331 H 621.945 V 868.559 H 15.331 Z"
         id="path544"
         inkscape:connector-curvature="0" /></clipPath><clipPath
       clipPathUnits="userSpaceOnUse"
       id="clipPath566"><path
         d="M 15.331,15.331 H 621.945 V 868.559 H 15.331 Z"
         id="path564"
         inkscape:connector-curvature="0" /></clipPath><clipPath
       clipPathUnits="userSpaceOnUse"
       id="clipPath592"><path
         d="M 0,0 H 637.276 V 883.89 H 0 Z"
         id="path590"
         inkscape:connector-curvature="0" /></clipPath></defs><sodipodi:namedview
     pagecolor="#ffffff"
     bordercolor="#666666"
     borderopacity="1"
     objecttolerance="10"
     gridtolerance="10"
     guidetolerance="10"
     inkscape:pageopacity="0"
     inkscape:pageshadow="2"
     inkscape:window-width="1920"
     inkscape:window-height="1005"
     id="namedview4"
     showgrid="false"
     fit-margin-top="0"
     fit-margin-left="0"
     fit-margin-right="0"
     fit-margin-bottom="0"
     inkscape:zoom="1.7050903"
     inkscape:cx="124.96988"
     inkscape:cy="170.63041"
     inkscape:window-x="-9"
     inkscape:window-y="-9"
     inkscape:window-maximized="1"
     inkscape:current-layer="g10" /><g
     id="g10"
     inkscape:groupmode="layer"
     inkscape:label="טופס שאלון אישי"
     transform="matrix(1.3333333,0,0,-1.3333333,113.67055,1262.0975)"><path
       inkscape:connector-curvature="0"
       id="path342"
       style="fill:#08509c;fill-opacity:1;fill-rule:nonzero;stroke:none;stroke-width:3.61685157"
       d="m 10.930011,890.15534 -0.115739,0.0471 h -0.0434 v 0.0542 l -47.214381,17.67555 -0.0651,-0.12289 c -0.40147,0.076 -0.806557,0.12289 -1.244197,0.12289 -1.985651,0 -3.732591,-0.88613 -4.955087,-2.27862 h -0.06148 l -41.199555,-40.20853 0.07595,-0.14102 c -0.842727,-1.10312 -1.359937,-2.46668 -1.359937,-3.97491 0,-0.3436 0.06149,-0.67635 0.104888,-0.9874 l -0.07595,-0.0868 v -194.09473 -0.48104 -2.37264 c 0,-2.89349 2.35457,-5.25529 5.248052,-5.25529 h 22.970616 c 2.897098,0 5.244435,2.3618 5.244435,5.25529 v 2.85368 c 0,0.37978 -0.04703,0.74507 -0.112129,1.09952 v 182.26401 c 0.09766,0.48104 0.311049,0.90783 0.607631,1.28036 l 18.333821,17.76598 c 0.585929,0.52444 1.359936,0.84634 2.206279,0.84634 0.444873,0 0.87166,-0.0868 1.251431,-0.24595 l 40.244707,-14.59037 v 0.11574 c 1.667368,-0.26404 2.983901,1.161 3.027303,3.50472 l 0.567846,25.74475 c 0.05787,2.6403 -1.482909,5.4072 -3.436009,6.21014" /><path
       inkscape:connector-curvature="0"
       id="path346"
       style="fill:none;stroke:#0e4b9c;stroke-width:1.66736853;stroke-linecap:butt;stroke-linejoin:miter;stroke-miterlimit:4;stroke-dasharray:none;stroke-opacity:1"
       d="M 21.622509,922.26683 H 9.1516049 L 23.897509,889.509 v -28.36696 c 1.623966,-9.16149 13.476388,-11.11458 13.476388,-11.11458 h 1.316534 c 0,0 11.888591,1.95309 13.527025,11.11458 V 889.509 l 12.141763,32.75783 H 50.343926" /><path
       d="m 45.706399,923.0582 c 0,0 6.380127,-16.1167 -7.768996,-24.77543 0,0 -4.965937,18.31935 7.642407,25.53134"
       style="fill:#99c00d;fill-opacity:1;fill-rule:nonzero;stroke:none;stroke-width:3.61685157"
       id="path356"
       inkscape:connector-curvature="0" /><path
       d="m 45.706399,900.81457 c 0,0 6.380127,-16.14202 -7.768996,-24.7899 0,0 -4.965937,18.30488 7.642407,25.54943"
       style="fill:#99c00d;fill-opacity:1;fill-rule:nonzero;stroke:none;stroke-width:3.61685157"
       id="path372"
       inkscape:connector-curvature="0" /><path
       d="m 29.906545,923.0582 c 0,0 -6.398209,-16.1167 7.740063,-24.77543 0,0 4.969554,18.31935 -7.613472,25.53134"
       style="fill:#99c00d;fill-opacity:1;fill-rule:nonzero;stroke:none;stroke-width:3.61685157"
       id="path388"
       inkscape:connector-curvature="0" /><path
       d="m 29.906545,900.81457 c 0,0 -6.398209,-16.14202 7.740063,-24.7899 0,0 4.969554,18.30488 -7.613472,25.54943"
       style="fill:#99c00d;fill-opacity:1;fill-rule:nonzero;stroke:none;stroke-width:3.61685157"
       id="path404"
       inkscape:connector-curvature="0" /><path
       inkscape:connector-curvature="0"
       id="path414"
       style="fill:#99c00d;fill-opacity:1;fill-rule:nonzero;stroke:none;stroke-width:3.61685157"
       d="m 47.324941,927.30583 c 0,0 -2.727107,-5.30231 -2.983902,-6.95882" /><path
       inkscape:connector-curvature="0"
       id="path418"
       style="fill:#99c00d;fill-opacity:1;fill-rule:nonzero;stroke:none;stroke-width:3.61685157"
       d="m 28.458359,927.30583 c 0,0 2.737956,-5.30231 2.994752,-6.95882" /><path
       inkscape:connector-curvature="0"
       id="path422"
       style="fill:#99c00d;fill-opacity:1;fill-rule:nonzero;stroke:none;stroke-width:3.61685157"
       d="m 47.324941,904.5222 c 0,0 -2.727107,-5.32039 -2.983902,-6.96606" /><path
       inkscape:connector-curvature="0"
       id="path426"
       style="fill:#99c00d;fill-opacity:1;fill-rule:nonzero;stroke:none;stroke-width:3.61685157"
       d="m 28.458359,904.5222 c 0,0 2.737956,-5.32039 2.994752,-6.96606" /><path
       d="m 45.706399,945.80638 c 0,0 6.380127,-16.13115 -7.768996,-24.78627 0,0 -4.965937,18.29764 7.642407,25.55304"
       style="fill:#99c00d;fill-opacity:1;fill-rule:nonzero;stroke:none;stroke-width:3.61685157"
       id="path436"
       inkscape:connector-curvature="0" /><path
       d="m 29.906545,945.80638 c 0,0 -6.398209,-16.13115 7.740063,-24.78627 0,0 4.969554,18.29764 -7.613472,25.55304"
       style="fill:#99c00d;fill-opacity:1;fill-rule:nonzero;stroke:none;stroke-width:3.61685157"
       id="path452"
       inkscape:connector-curvature="0" /><path
       inkscape:connector-curvature="0"
       id="path462"
       style="fill:#ffffff;fill-opacity:1;fill-rule:nonzero;stroke:none;stroke-width:3.61685157"
       d="m 13.212243,876.89958 c -0.108505,0.0326 -0.202542,0.0216 -0.289346,0.0326 v 0.0253 c 0,0 -42.743953,16.11308 -46.132941,17.3826 -0.159143,0.1194 -0.372537,0.13021 -0.553379,0.20254 -0.271264,0.1229 -0.589547,0.19531 -0.911447,0.19531 -0.625715,0 -1.189944,-0.2568 -1.602265,-0.6655 -0.07596,-0.0615 -0.07596,-0.076 -0.137439,-0.14833 l -35.202816,-33.52821 0.01447,-0.008 c -0.01447,-0.0143 -0.05424,-0.0218 -0.08318,-0.0542 -0.455722,-0.40871 -0.726986,-1.0308 -0.726986,-1.6963 l -0.0217,-0.35807 v -199.3493 h 0.0217 c 0,-0.0398 -0.0217,-0.076 -0.0217,-0.1194 0,-0.63295 0.509975,-1.14293 1.14654,-1.14293 h 7.403696 c 0.632949,0 1.142926,0.50998 1.142926,1.14293 0,0.0434 -0.01809,0.0795 -0.03256,0.1194 h 0.05787 L -62.347399,854.24 v 0.0143 c 0,0.63296 0.274881,1.20804 0.679968,1.61674 l 27.357865,26.64534 0.350834,0.34361 c 0.408705,0.33275 0.900596,0.53892 1.443124,0.53892 0.260414,0 0.484658,-0.0687 0.705286,-0.14102 l 0.339984,-0.13386 44.393236,-17.04262 v 0.0326 c 0.651034,-0.20977 1.200794,0.18085 1.222495,0.88614 l 0.220628,8.23917 c 0.0217,0.71976 -0.506358,1.46483 -1.153776,1.66014" /><path
       inkscape:connector-curvature="0"
       id="path466"
       style="fill:#08509c;fill-opacity:1;fill-rule:nonzero;stroke:none;stroke-width:3.61685157"
       d="m 64.523796,890.15534 0.115739,0.0471 h 0.0434 v 0.0542 l 47.207145,17.67555 0.0652,-0.12289 c 0.40872,0.076 0.81741,0.12289 1.25143,0.12289 1.98204,0 3.73621,-0.88613 4.95509,-2.27862 h 0.0542 l 41.2104,-40.20853 -0.0795,-0.14102 c 0.84273,-1.10312 1.35271,-2.46668 1.35271,-3.97491 0,-0.3436 -0.0471,-0.67635 -0.0905,-0.9874 l 0.0687,-0.0868 v -194.09473 -0.48104 -2.37264 c 0,-2.89349 -2.35096,-5.25529 -5.24444,-5.25529 h -22.97063 c -2.89709,0 -5.24442,2.3618 -5.24442,5.25529 v 2.85368 c 0,0.37978 0.0326,0.74507 0.10493,1.09952 v 182.26401 c -0.0976,0.48104 -0.31105,0.90783 -0.59677,1.28036 l -18.34107,17.76598 c -0.59316,0.52444 -1.36716,0.84634 -2.20627,0.84634 -0.44487,0 -0.87166,-0.0868 -1.25504,-0.24595 l -40.241067,-14.5904 v 0.11574 c -1.667372,-0.26404 -2.980289,1.161 -3.038158,3.50472 l -0.556995,25.74475 c -0.0651,2.6403 1.482909,5.4072 3.436012,6.21014" /><path
       inkscape:connector-curvature="0"
       id="path470"
       style="fill:#ffffff;fill-opacity:1;fill-rule:nonzero;stroke:none;stroke-width:3.61685157"
       d="m 62.24156,876.89958 c 0.104881,0.0326 0.191693,0.0216 0.289347,0.0326 v 0.0253 c 0,0 42.733103,16.11308 46.132943,17.3826 0.16638,0.1194 0.37253,0.13021 0.56062,0.20254 0.26764,0.1229 0.58593,0.19531 0.90421,0.19531 0.62209,0 1.18994,-0.2568 1.60226,-0.6655 0.0723,-0.0615 0.0652,-0.076 0.13752,-0.14833 l 35.20643,-33.52821 -0.0253,-0.008 c 0.0289,-0.0143 0.0615,-0.0218 0.0905,-0.0542 0.44488,-0.40871 0.72337,-1.0308 0.72337,-1.6963 l 0.0218,-0.35807 v -199.3493 h -0.0218 c 0,-0.0398 0.0218,-0.076 0.0218,-0.1194 0,-0.63295 -0.50997,-1.14293 -1.15378,-1.14293 h -7.39284 c -0.63295,0 -1.13568,0.50998 -1.13568,1.14293 0,0.0434 0.0143,0.0795 0.0143,0.1194 h -0.0579 L 137.79767,854.24 v 0.0143 c 0,0.63296 -0.26403,1.20804 -0.66912,1.61674 l -27.37594,26.64534 -0.33999,0.34361 c -0.39786,0.33275 -0.9006,0.53892 -1.44312,0.53892 -0.25318,0 -0.47744,-0.0687 -0.70892,-0.14102 l -0.32912,-0.13386 -44.400473,-17.04262 v 0.0326 c -0.651034,-0.20977 -1.19356,0.18085 -1.211644,0.88614 l -0.231479,8.23917 c -0.03256,0.71976 0.513593,1.46483 1.153776,1.66014" /><path
       d="m 111.68247,768.61647 c 0,-39.75644 -32.204443,-71.94641 -71.960874,-71.94641 -39.74196528,0 -71.957261,32.18997 -71.957261,71.94641 0,39.77451 32.21529572,72.01151 71.957261,72.01151 39.756431,0 71.960874,-32.237 71.960874,-72.01151"
       style="fill:#07b5da;fill-opacity:1;fill-rule:nonzero;stroke:none;stroke-width:3.61685157"
       id="path480"
       inkscape:connector-curvature="0" /><path
       inkscape:connector-curvature="0"
       id="path490"
       style="fill:#016330;fill-opacity:1;fill-rule:nonzero;stroke:none;stroke-width:3.61685157"
       d="m 39.715446,696.67151 c 38.110761,0 69.233774,29.65094 71.682384,67.17578 l -5.46869,4.77063 h -8.904687 v 9.78359 H 83.374461 v -8.48877 h -6.040143 v 12.14178 l -4.380009,3.05986 H 56.569975 v 5.98227 h 4.166612 c 0.488276,5.94611 -4.622335,7.2337 -4.622335,7.2337 h -13.55596 v 6.27162 c 6.04376,-0.24594 5.779729,6.99499 5.779729,6.99499 H 17.829879 c -0.97655,-6.6116 3.924283,-6.77074 3.924283,-6.77074 V 788.49975 H 6.3536084 c 0.039777,-7.19031 4.8718996,-5.61698 4.8718996,-5.61698 V 776.3616 H -6.2077168 l -6.4126772,-4.39809 v -3.34559 h -19.632271 c 0,-39.75644 32.2152974,-71.94641 71.968111,-71.94641" /><path
       style="fill:#9cbd12;fill-opacity:1;fill-rule:nonzero;stroke:none;stroke-width:3.61685157"
       d="M 38.03436,774.30574 25.525489,698.07636 c 4.587505,-0.91638 9.330771,-1.40401 14.188374,-1.40401 3.03227,0 6.015657,0.20779 8.948535,0.57217 z m 0,0 -42.0670898,-62.80926 c 4.97435548,-3.81236 10.4555891,-6.99287 16.3341048,-9.41475 z m 0.132384,0 26.130329,-73.30483 c 6.091526,2.2191 11.803451,5.22733 16.996381,8.92204 z m -0.667553,-0.77882 -61.935065,-37.51602 c 2.701221,-5.30285 6.036092,-10.22333 9.912787,-14.6652 z m 1.207965,0 53.664666,-53.83954 c 4.145511,4.47339 7.744618,9.46206 10.654508,14.88243 z"
       id="path502"
       inkscape:connector-curvature="0" /><path
       inkscape:connector-curvature="0"
       id="path530"
       style="fill:none;stroke:#ffffff;stroke-width:1.76502359;stroke-linecap:butt;stroke-linejoin:miter;stroke-miterlimit:4;stroke-dasharray:none;stroke-opacity:1"
       d="m 111.3971,763.84874 -5.46867,4.767 h -8.904693 v 9.78359 H 83.373745 v -8.48514 h -6.040143 v 12.14178 l -4.3764,3.05986 h -16.38795 v 5.98227 h 4.170229 c 0.488276,5.94611 -4.625952,7.2337 -4.625952,7.2337 H 42.557568 v 6.27162 c 6.047377,-0.24594 5.783347,6.99499 5.783347,6.99499 H 17.832772 c -0.976549,-6.61521 3.920667,-6.77437 3.920667,-6.77437 V 788.49757 H 6.3528851 c 0.039777,-7.18668 4.8718999,-5.61335 4.8718999,-5.61335 v -6.5248 H -6.2084402 l -6.4126768,-4.39446 v -3.34922 h -19.628654" /><path
       inkscape:connector-curvature="0"
       id="path534"
       style="fill:#08509c;fill-opacity:1;fill-rule:nonzero;stroke:none;stroke-width:3.61685157"
       d="m -40.631101,657.66702 v 14.98461 6.0076 h -2.842845 v 8.26811 h 30.551544 v -29.26032 z m 18.084258,20.99221 h -8.655126 v -1.16464 -11.55944 h 8.655126 z" /><path
       inkscape:connector-curvature="0"
       id="path538"
       style="fill:#08509c;fill-opacity:1;fill-rule:nonzero;stroke:none;stroke-width:3.61685157"
       d="m -5.4239451,669.22864 v 9.42914 h -3.6168507 v 8.26812 H 4.1353943 v -17.69726 z" /><path
       inkscape:connector-curvature="0"
       id="path550"
       style="fill:#08509c;fill-opacity:1;fill-rule:nonzero;stroke:none;stroke-width:3.61685157"
       d="m 34.240618,668.00145 -6.202899,-10.33335 -7.620707,4.97317 9.624442,16.01542 H 18.543483 V 646.68735 H 8.9841447 v 24.54394 c 0,2.32565 1.4865263,4.77786 3.0996423,7.4254 H 7.6929289 v 8.26813 H 37.792367 v -8.26813 c 0,-3.93874 -1.743323,-7.68581 -3.551749,-10.65524" /><path
       inkscape:connector-curvature="0"
       id="path554"
       style="fill:#08509c;fill-opacity:1;fill-rule:nonzero;stroke:none;stroke-width:3.61685157"
       d="M 63.440184,657.66702 H 42.060975 v 8.26813 h 15.371619 c 0.904213,0 1.291215,0.5172 1.291215,1.42141 v 10.07656 c 0,0.8391 -0.318283,1.42142 -1.421421,1.42142 h -5.616971 v -3.36006 h 2.973051 v -6.4597 H 42.060975 v 17.89256 h 21.574519 c 3.421548,-1.61673 4.777869,-4.32937 4.777869,-8.46342 v -11.55946 c 0,-3.55537 -1.030806,-6.7165 -4.973179,-9.23744" /><path
       inkscape:connector-curvature="0"
       id="path558"
       style="fill:#08509c;fill-opacity:1;fill-rule:nonzero;stroke:none;stroke-width:3.61685157"
       d="m 75.523357,657.66702 v 20.99221 h -3.616849 v 8.26811 h 13.176195 v -29.26032 z" /><path
       inkscape:connector-curvature="0"
       id="path570"
       style="fill:#08509c;fill-opacity:1;fill-rule:nonzero;stroke:none;stroke-width:3.61685157"
       d="M 112.21741,656.43946 98.524,671.03708 v -13.37151 h -9.55933 v 8.85043 c 0,3.29496 1.743314,4.97317 5.360179,8.85045 l -6.333115,6.58628 6.785211,6.13418 12.597505,-13.43298 v 12.27197 h 9.62082 v -6.78159 c 0,-4.26427 -2.45585,-6.39459 -5.22997,-10.07656 l 7.16859,-7.42901 z" /></g></svg>