<?xml version="1.0" encoding="utf-8"?>
<!-- Generator: Adobe Illustrator 15.1.0, SVG Export Plug-In . SVG Version: 6.00 Build 0)  -->
<!DOCTYPE svg PUBLIC "-//W3C//DTD SVG 1.1//EN" "http://www.w3.org/Graphics/SVG/1.1/DTD/svg11.dtd">
<svg version="1.1" id="Layer_1" xmlns="http://www.w3.org/2000/svg" xmlns:xlink="http://www.w3.org/1999/xlink" x="0px" y="0px"
	 width="535.377px" height="740.153px" viewBox="0 0 535.377 740.153" enable-background="new 0 0 535.377 740.153"
	 xml:space="preserve">
<g>
	<path fill="#008559" d="M3.478,532.203c56.811,0,113.617,0,170.428,0c0,6.079,0,12.16,0,18.239c-56.99,0-113.981,0-170.972,0
		c0-5.807,0-11.615,0-17.423C2.922,532.554,3.136,532.314,3.478,532.203z"/>
	<path fill="#008559" d="M354.95,532.203c59.168,0,118.336,0,177.507,0c0,5.809,0,11.616,0,17.422c-59.35,0-118.703,0-178.052,0
		c0-5.534,0-11.068,0-16.605C354.393,532.554,354.609,532.314,354.95,532.203z"/>
	<path fill="#008559" d="M3.206,716.787c175.977,0,351.903,0,527.89,0c1.083,4.092,0.549,11.246,0.272,15.79
		c-176.155,0-352.278,0-528.435,0c0-4.99,0-9.983,0-14.973C2.91,717.217,2.888,716.833,3.206,716.787z"/>
	<g>
		<path d="M7.899,692.143v-29.332h8.135l4.883,20.008l4.83-20.008h8.152v29.332H28.85v-23.089l-5.344,23.089h-5.234l-5.325-23.089
			v23.089H7.899z"/>
		<path d="M39.262,662.811h5.436v15.886c0,2.521,0.067,4.156,0.202,4.903c0.232,1.199,0.786,2.164,1.662,2.889
			c0.875,0.728,2.071,1.093,3.589,1.093c1.542,0,2.705-0.344,3.488-1.029c0.783-0.688,1.255-1.532,1.415-2.533
			c0.16-1,0.239-2.66,0.239-4.982v-16.224h5.435v15.405c0,3.521-0.146,6.008-0.44,7.463c-0.293,1.455-0.836,2.681-1.625,3.682
			c-0.789,1.001-1.845,1.796-3.168,2.39c-1.321,0.593-3.049,0.891-5.177,0.891c-2.571,0-4.521-0.322-5.849-0.971
			c-1.328-0.647-2.378-1.486-3.15-2.521c-0.771-1.033-1.278-2.119-1.524-3.251c-0.354-1.681-0.533-4.161-0.533-7.443L39.262,662.811
			L39.262,662.811z"/>
		<path d="M66.512,692.143v-29.332H71.8l11.018,19.588v-19.588h5.05v29.332h-5.453l-10.853-19.129v19.129H66.512z"/>
		<path d="M93.45,692.143v-29.332h5.436v29.332H93.45z"/>
		<path d="M121.288,681.359l5.27,1.82c-0.809,3.2-2.151,5.578-4.031,7.132c-1.879,1.556-4.262,2.332-7.152,2.332
			c-3.574,0-6.513-1.333-8.814-3.992c-2.302-2.662-3.452-6.298-3.452-10.914c0-4.882,1.156-8.672,3.47-11.374
			c2.313-2.698,5.356-4.052,9.126-4.052c3.293,0,5.968,1.061,8.024,3.182c1.224,1.255,2.143,3.055,2.755,5.402l-5.381,1.4
			c-0.318-1.52-0.982-2.72-1.992-3.602c-1.009-0.881-2.237-1.321-3.681-1.321c-1.997,0-3.615,0.78-4.857,2.342
			c-1.242,1.56-1.863,4.088-1.863,7.583c0,3.706,0.612,6.347,1.835,7.922c1.224,1.574,2.816,2.36,4.774,2.36
			c1.444,0,2.686-0.498,3.729-1.5C120.089,685.078,120.836,683.505,121.288,681.359z"/>
		<path d="M131.057,692.143v-29.332h5.436v29.332H131.057z"/>
		<path d="M141.67,692.143v-29.332h8.723c3.304,0,5.459,0.147,6.463,0.439c1.542,0.44,2.834,1.398,3.875,2.872
			c1.04,1.474,1.561,3.377,1.561,5.711c0,1.8-0.301,3.315-0.901,4.541c-0.601,1.229-1.361,2.191-2.286,2.893
			c-0.926,0.698-1.864,1.163-2.819,1.391c-1.299,0.279-3.177,0.419-5.638,0.419h-3.544v11.064h-5.434V692.143z M147.106,667.772
			v8.323h2.975c2.143,0,3.574-0.152,4.297-0.46c0.721-0.308,1.288-0.786,1.698-1.44c0.411-0.653,0.616-1.413,0.616-2.28
			c0-1.066-0.288-1.949-0.864-2.642c-0.576-0.693-1.304-1.128-2.185-1.299c-0.649-0.134-1.952-0.202-3.911-0.202H147.106
			L147.106,667.772z"/>
		<path d="M188.239,692.143h-5.913l-2.35-6.664h-10.76l-2.222,6.664h-5.767l10.485-29.332h5.748L188.239,692.143z M178.232,680.538
			l-3.709-10.884l-3.637,10.884H178.232z"/>
		<path d="M191.268,692.143v-29.091h5.436v24.148h13.516v4.94h-18.951V692.143z"/>
		<path d="M213.928,692.143v-29.332h5.435v29.332H213.928z"/>
		<path d="M230.601,692.143v-24.371h-7.987v-4.961h21.392v4.961h-7.969v24.371H230.601z"/>
		<path d="M254.583,692.143v-12.345l-9.861-16.987h6.373l6.333,11.604l6.207-11.604h6.262L260,679.836v12.307H254.583
			L254.583,692.143z"/>
		<path d="M281.265,677.656c0-2.987,0.409-5.494,1.23-7.521c0.61-1.495,1.447-2.834,2.506-4.021
			c1.059-1.188,2.218-2.068,3.479-2.642c1.677-0.772,3.611-1.161,5.803-1.161c3.967,0,7.14,1.341,9.521,4.021
			c2.382,2.682,3.571,6.409,3.571,11.185c0,4.735-1.181,8.438-3.544,11.114c-2.363,2.674-5.521,4.013-9.474,4.013
			c-4.005,0-7.187-1.333-9.55-3.992C282.445,685.989,281.265,682.326,281.265,677.656z M286.865,677.457
			c0,3.321,0.704,5.838,2.112,7.552c1.406,1.714,3.192,2.571,5.361,2.571c2.165,0,3.943-0.85,5.334-2.551
			c1.39-1.7,2.084-4.251,2.084-7.651c0-3.361-0.678-5.869-2.03-7.522c-1.352-1.653-3.148-2.48-5.388-2.48
			c-2.24,0-4.046,0.837-5.418,2.511C287.55,671.557,286.865,674.083,286.865,677.457z"/>
		<path d="M311.656,692.143v-29.332h18.454v4.963h-13.02v6.943h11.236v4.961H317.09v12.467h-5.435V692.143z"/>
		<path d="M345.057,692.143v-29.332h11.438c2.879,0,4.967,0.265,6.271,0.791c1.304,0.527,2.348,1.464,3.132,2.811
			c0.782,1.349,1.175,2.889,1.175,4.623c0,2.2-0.596,4.018-1.782,5.451c-1.188,1.434-2.963,2.338-5.326,2.71
			c1.176,0.748,2.146,1.566,2.911,2.463c0.765,0.894,1.795,2.479,3.094,4.761l3.287,5.723h-6.5l-3.931-6.384
			c-1.395-2.281-2.351-3.719-2.864-4.312c-0.513-0.591-1.058-1.001-1.633-1.22c-0.576-0.219-1.488-0.33-2.736-0.33h-1.102v12.245
			H345.057L345.057,692.143z M350.492,675.215h4.021c2.608,0,4.235-0.12,4.884-0.358c0.649-0.242,1.157-0.652,1.524-1.241
			c0.366-0.587,0.551-1.32,0.551-2.201c0-0.985-0.241-1.783-0.726-2.391c-0.482-0.606-1.166-0.991-2.046-1.151
			c-0.44-0.064-1.763-0.101-3.967-0.101h-4.241V675.215z"/>
		<path d="M396.472,692.143h-5.913l-2.352-6.664h-10.759l-2.222,6.664h-5.766l10.484-29.332h5.748L396.472,692.143z
			 M386.464,680.538l-3.709-10.884l-3.636,10.884H386.464z"/>
		<path d="M423.631,692.143h-5.915l-2.35-6.664h-10.76l-2.225,6.664h-5.765l10.486-29.332h5.748L423.631,692.143z M413.622,680.538
			l-3.709-10.884l-3.636,10.884H413.622z"/>
		<path d="M426.57,692.143v-29.332h5.288l11.018,19.588v-19.588h5.048v29.332h-5.453l-10.852-19.129v19.129H426.57z"/>
		<path d="M477.947,692.143h-5.912l-2.352-6.664h-10.761l-2.223,6.664h-5.766l10.486-29.332h5.748L477.947,692.143z M467.94,680.538
			l-3.71-10.884l-3.636,10.884H467.94z"/>
		<path d="M480.885,692.143v-29.332h5.29l11.017,19.588v-19.588h5.049v29.332h-5.453l-10.853-19.129v19.129H480.885z"/>
		<path d="M532.264,692.143h-5.913l-2.352-6.664H513.24l-2.223,6.664h-5.767l10.486-29.332h5.748L532.264,692.143z M522.255,680.538
			l-3.709-10.884l-3.635,10.884H522.255z"/>
	</g>
	<g>
		<path d="M287.02,588.5c16.879,0,34.03,0,50.91,0c0,17.605,0,35.211,0,52.816c-4.991,0-9.983,0-14.974,0
			c0-12.705,0-25.409,0-38.114c-7.078,0-14.156,0-21.236,0c0,12.705,0,25.409,0,38.114c-8.349,0-16.697,0-25.047,0
			c0-4.901,0-9.803,0-14.701c3.359,0,6.989,0,10.347,0V588.5z"/>
		<g>
			<rect x="451.35" y="588.315" width="14.467" height="22.749"/>
			<polygon points="527.076,626.314 526.596,625.899 526.596,588.315 512.13,588.315 512.13,620.896 507.135,626.677 
				498.262,626.677 498.262,588.315 483.796,588.315 483.796,626.677 475.637,626.677 475.637,641.142 514.268,641.142 
				514.268,641.112 514.285,641.126 			"/>
			<polygon points="183.534,626.314 183.054,625.899 183.054,588.315 168.589,588.315 168.589,620.896 163.592,626.677 
				154.719,626.677 154.719,588.315 140.254,588.315 140.254,626.677 132.094,626.677 132.094,641.142 170.724,641.142 
				170.724,641.112 170.742,641.126 			"/>
			<rect x="371.977" y="588.315" width="14.465" height="22.749"/>
			<rect x="348.487" y="588.315" width="14.465" height="22.749"/>
			<rect x="8.57" y="615.679" width="14.465" height="25.551"/>
			<polygon points="92.192,588.315 92.192,588.23 68.884,588.23 68.884,602.708 77.226,602.708 77.226,626.583 68.884,626.583 
				68.884,641.06 77.226,641.06 77.226,641.23 92.272,641.23 92.272,588.315 			"/>
			<polygon points="123.843,588.315 123.843,588.23 100.535,588.23 100.535,602.708 108.876,602.708 108.876,626.583 
				100.535,626.583 100.535,641.06 108.876,641.06 108.876,641.23 123.923,641.23 123.923,588.315 			"/>
			<polygon points="428.355,588.5 428.355,588.5 395.778,588.5 395.778,602.966 428.355,602.966 428.355,640.985 442.82,640.985 
				442.82,588.5 			"/>
			<polygon points="225.592,588.5 225.592,588.5 193.014,588.5 193.014,602.966 225.592,602.966 225.592,640.985 240.057,640.985 
				240.057,588.5 			"/>
			<polygon points="44.918,588.5 44.918,588.5 8.385,588.5 8.385,602.966 44.918,602.966 44.918,640.985 59.384,640.985 
				59.384,588.5 			"/>
		</g>
	</g>
</g>
<path fill="#008559" d="M241.303,481.205h-18.091c-12.216,17.998-23.421,36.955-34.863,55.703c16.451-3.101,37.571-4.529,51.188,0
	c19.387,6.45,26.927,21.373,31.263,41.39v0.144c0.006-0.023,0.012-0.049,0.017-0.072c0.004,0.023,0.011,0.049,0.016,0.072v-0.144
	c4.336-20.017,11.877-34.939,31.264-41.39c13.618-4.529,34.736-3.101,51.188,0c-11.439-18.748-22.646-37.705-34.861-55.703h-18.091
	c0.19,0.051,21.524,36.45,21.622,36.57c-22.071,1.413-39.134,8.354-51.137,19.953c-12.003-11.6-29.065-18.54-51.136-19.953
	L241.303,481.205z"/>
<g>
	<rect x="260.296" y="377.977" fill="#008559" width="5.992" height="103.204"/>
	<polygon fill="#008559" points="234.92,437.769 234.92,458.265 240.542,450.325 	"/>
	<path fill="#008559" d="M158.792,389.349c1.932-0.031,3.936-0.156,5.992-0.358v-11.014h-5.992V389.349z"/>
	<path fill="#008559" d="M171.48,388.093c1.978-0.33,3.98-0.714,5.992-1.143v-8.974h-5.992V388.093z"/>
	<path fill="#008559" d="M184.168,385.379c2.01-0.513,4.012-1.06,5.992-1.629v-5.773h-5.992V385.379z"/>
	<polygon fill="#008559" points="247.608,420.546 253.6,434.852 253.6,377.977 247.608,377.977 	"/>
	<polygon fill="#008559" points="222.231,476.182 228.223,467.721 228.223,422.817 222.231,409.437 	"/>
	<polygon fill="#008559" points="234.92,390.252 240.912,404.559 240.912,377.977 234.92,377.977 	"/>
	<path fill="#008559" d="M196.856,381.723c2.053-0.655,4.056-1.319,5.992-1.983v-1.763h-5.992V381.723z"/>
	<polygon fill="#008559" points="240.912,481.181 240.912,480.147 240.154,481.181 	"/>
	<polygon fill="#008559" points="247.608,481.181 253.6,481.181 253.6,462.822 247.608,471.003 	"/>
	<path fill="#008559" d="M209.544,481.181h5.992v-85.089c-0.962,0.331-3.037,1.021-5.992,1.89V481.181z"/>
	<path fill="#008559" d="M171.48,481.181h5.992v-76.48c-1.96,0.245-3.96,0.463-5.992,0.646V481.181z"/>
	<path fill="#008559" d="M158.792,481.181h5.992v-75.373c-1.981,0.098-3.98,0.153-5.992,0.169V481.181z"/>
	<path fill="#008559" d="M196.856,481.181h5.992v-81.356c-1.848,0.477-3.851,0.964-5.992,1.45V481.181z"/>
	<path fill="#008559" d="M184.168,481.181h5.992v-78.503c-1.928,0.371-3.929,0.728-5.992,1.06V481.181z"/>
	<path fill="#008559" d="M336.423,379.75c1.937,0.664,3.939,1.328,5.992,1.981v-3.754h-5.992V379.75z"/>
	<polygon fill="#008559" points="304.351,458.305 304.351,437.706 298.7,450.325 	"/>
	<polygon fill="#008559" points="298.36,404.49 304.351,390.184 304.351,377.977 298.36,377.977 	"/>
	<path fill="#008559" d="M361.8,386.957c2.012,0.428,4.015,0.812,5.991,1.141v-10.12H361.8V386.957z"/>
	<path fill="#008559" d="M374.487,377.977v11.017c2.058,0.202,4.062,0.325,5.993,0.355v-11.372H374.487z"/>
	<polygon fill="#008559" points="285.671,434.785 291.663,420.479 291.663,377.977 285.671,377.977 	"/>
	<path fill="#008559" d="M349.112,383.759c1.979,0.568,3.981,1.114,5.992,1.628v-7.41h-5.992V383.759z"/>
	<polygon fill="#008559" points="311.047,467.761 317.039,476.222 317.039,409.375 311.047,422.754 	"/>
	<path fill="#008559" d="M361.8,481.181h5.991v-75.832c-2.03-0.184-4.03-0.399-5.991-0.646V481.181z"/>
	<path fill="#008559" d="M278.976,449.927v-71.95h-5.992v103.204h5.992v-27.463l-0.786-1.072l1.409-3.364
		C279.392,449.488,279.181,449.704,278.976,449.927z"/>
	<path fill="#008559" d="M336.423,481.181h5.992V401.28c-2.14-0.483-4.144-0.972-5.992-1.447V481.181z"/>
	<path fill="#008559" d="M374.487,481.181h5.993v-75.204c-2.012-0.015-4.011-0.071-5.993-0.167V481.181z"/>
	<path fill="#008559" d="M349.112,481.181h5.992v-77.438c-2.062-0.333-4.064-0.689-5.992-1.061V481.181z"/>
	<polygon fill="#008559" points="285.671,481.181 291.663,481.181 291.663,471.042 285.671,462.861 	"/>
	<path fill="#008559" d="M323.737,481.181h5.991v-83.19c-2.938-0.864-5.013-1.552-5.991-1.888V481.181z"/>
	<polygon fill="#008559" points="298.36,481.181 299.089,481.181 298.36,480.184 	"/>
</g>
<path fill="#008559" d="M376.444,162.281c0,0,35.335-155.411-109.249-155.48v0c-0.008,0-0.017,0-0.026,0s-0.017,0-0.026,0v0
	c-144.583,0.069-109.25,155.48-109.25,155.48S42.556,178.757,42.556,282.41c0,103.655,69.501,121.33,113.54,121.33
	c0,0,0.937-1.572,0.937-6.066s-1.236-7.863-1.236-7.863c-62.462,0-98.86-43.14-98.86-107.399
	c0-64.259,57.519-97.062,103.803-103.803c10.635-1.647,16.327-2.247,16.327-2.247S129.45,22.731,267.169,22.678
	c137.719,0.053,90.103,153.683,90.103,153.683s5.691,0.6,16.327,2.247c46.285,6.741,103.803,39.544,103.803,103.803
	c0,64.26-36.397,107.399-98.859,107.399c0,0-1.236,3.369-1.236,7.863s0.937,6.066,0.937,6.066
	c44.038,0,113.539-17.675,113.539-121.33C491.781,178.757,376.444,162.281,376.444,162.281z"/>
<rect x="208.822" y="73.306" fill="#008559" width="6.291" height="82.384"/>
<rect x="221.52" y="73.306" fill="#008559" width="6.292" height="82.384"/>
<rect x="234.219" y="73.306" fill="#008559" width="6.292" height="82.384"/>
<rect x="246.918" y="73.306" fill="#008559" width="6.292" height="82.384"/>
<rect x="259.616" y="73.306" fill="#008559" width="6.292" height="82.384"/>
<rect x="272.316" y="73.306" fill="#008559" width="6.291" height="82.384"/>
<rect x="285.015" y="73.306" fill="#008559" width="6.291" height="82.384"/>
<rect x="297.714" y="73.306" fill="#008559" width="6.292" height="82.384"/>
<rect x="310.414" y="73.306" fill="#008559" width="6.291" height="82.384"/>
<rect x="323.113" y="73.306" fill="#008559" width="6.291" height="82.384"/>
<polygon fill="#008559" points="83.299,247.659 118.05,223.094 148.008,247.659 "/>
<rect x="386.434" y="190.291" fill="#008559" width="6.291" height="39.095"/>
<rect x="400.589" y="194.335" fill="#008559" width="6.291" height="27.973"/>
<path fill="#008559" d="M413.433,247.108v-23.415l-34.75,23.415v-23.415l-34.752,23.415v-23.415l-11.203,7.548l-18.244-55.78h3.983
	v-8.987H214.514v8.987h5.606l-17.332,53.985l-7.748-6.353l-34.75,24.565h64.708l-14.656-12.017l20.821-60.181h17.295l-12.451,72.124
	h2.877l-0.105,0.074h64.708l-1.733-1.421l-13.471-70.776h15.506l20.548,61.433l-15.532,10.466h34.752h0.373h34.377h0.375h34.377
	h0.373h34.752v-23.667L413.433,247.108z M288.533,235.396l-15.003-12.302l-26.589,18.796l11.771-66.429h20.524L288.533,235.396z"/>
<polygon fill="#008559" points="425.716,258.145 367.898,258.145 367.898,278.73 425.716,278.73 425.716,342.925 446.388,342.925 
	446.388,278.816 446.388,258.145 "/>
<g>
	<polygon fill="#008559" points="134.527,258.145 81.802,258.145 81.802,278.73 134.527,278.73 134.527,342.925 155.198,342.925 
		155.198,278.73 155.198,258.145 	"/>
	<rect x="81.802" y="292.297" fill="#008559" width="20.372" height="50.628"/>
</g>
<polygon fill="#008559" points="193.732,258.145 174.971,258.145 174.971,278.73 193.732,278.73 193.732,322.554 171.076,322.554 
	171.076,342.925 193.732,342.925 213.616,342.925 213.616,322.554 213.616,278.73 213.616,258.145 "/>
<polygon fill="#008559" points="246.009,258.145 227.247,258.145 227.247,278.73 246.009,278.73 246.009,322.554 223.353,322.554 
	223.353,342.925 246.009,342.925 265.893,342.925 265.893,322.554 265.893,278.73 265.893,258.145 "/>
<polygon fill="#008559" points="338.578,258.145 328.805,258.145 328.805,278.73 338.578,278.73 338.578,322.554 316.672,322.554 
	316.672,278.73 316.672,258.145 296.786,258.145 287.014,258.145 287.014,278.73 296.786,278.73 296.786,322.554 285.216,322.554 
	285.216,342.925 296.786,342.925 316.672,342.925 338.578,342.925 358.463,342.925 358.463,322.554 358.463,278.73 358.463,258.145 
	"/>
<polygon fill="#008559" points="370.745,351.014 360.26,351.014 361.459,356.556 319.365,356.556 318.273,350.939 310.071,350.939 
	311.145,356.556 225.356,356.556 226.429,350.939 218.228,350.939 217.137,356.556 173.623,356.556 175.571,351.313 
	165.535,351.313 159.843,366.292 375.389,366.292 "/>
</svg>
