<?xml version="1.0" encoding="utf-8"?>
<!-- Generator: Adobe Illustrator 15.0.0, SVG Export Plug-In . SVG Version: 6.00 Build 0)  -->
<!DOCTYPE svg PUBLIC "-//W3C//DTD SVG 1.1//EN" "http://www.w3.org/Graphics/SVG/1.1/DTD/svg11.dtd">
<svg version="1.1" id="Layer_1" xmlns="http://www.w3.org/2000/svg" xmlns:xlink="http://www.w3.org/1999/xlink" x="0px" y="0px"
	 width="931.511px" height="1089.953px" viewBox="0 0 931.511 1089.953" enable-background="new 0 0 931.511 1089.953"
	 xml:space="preserve">
<g>
	<path fill="#A08B4D" d="M530.608,190.063v167.043H400.927V190.063c-17.645-6.495-24.217-31.891-24.217-31.891
		c-67.993,21.348-54.693-56.549-54.693-56.549l12.178-14.756l-26.337-35.589h315.791l-26.308,35.589l12.192,14.756
		c0,0,13.281,77.896-54.693,56.549C554.84,158.172,548.977,182.703,530.608,190.063"/>
	<path fill="#A08B4D" d="M401.814,362.104h127.882c8.135,0,8.252,11.427,0.379,11.795v314l-23.153-10.135l-6.912,9.145
		l-16.037-3.115l-1.631-11.417l-33.226,0.204l-2.602,11.154l-15.936,3.699l-6.111-9.767l-23.041,10.407V373.899
		C393.577,373.531,393.699,362.104,401.814,362.104 M465.771,599.501l16.639-22.174h33.298l-16.658-22.201l16.658-22.183h-33.298
		l-16.639-22.173l-16.654,22.173l-33.317,0.01l16.659,22.173l-16.659,22.201h33.317L465.771,599.501z"/>
	<path fill="#008FD5" d="M127.48,605.907h271.188v83.4l25.799-11.64l6.111,9.767l15.936-3.699l2.602-11.154l33.226-0.204
		l1.631,11.417l16.037,3.115l6.912-9.145l26.152,11.475v-83.332h270.946v120.679c-0.523,9.212-19.833,312.078-333.145,312.078
		h-10.212c-313.326,0-332.63-302.866-333.184-312.078V605.907 M588.273,815.354c-78.886-26.008-119.208-24.561-121.674-24.406
		h-1.669c-2.49-0.154-42.793-1.602-121.698,24.406c0,0-9.188,2.971-23.663,5.242c-14.586,2.281-34.385,3.834-55.451,0.98
		c-2.349-0.456-57.868-11.883-57.912-65.402c0.024-0.494,0.248-4.775,1.655-10.504c1.485-6.203,4.325-13.862,9.519-20.152
		c9.854-12,29.794-20.893,71.692,0.077l2.597,1.291l50.573-61.499l-2.311-2.301c-0.252-0.262-42.068-41.977-108.597-26.998
		l-0.407,0.137c-0.214,0.058-16.31,5.824-32.464,19.735c-16.173,13.97-32.521,36.288-32.545,69.295
		c-0.131,1.688-1.116,16.581,2.252,35.677c3.577,20.182,12.115,45.433,31.982,64.645c0,0,8.553,7.543,21.853,15.018
		c13.105,7.33,31.187,14.873,50.559,14.95c3.495,0.631,22.765,2.155,83.25-20.882c0.053-0.029,61.12-24.114,108.984-23.318h1.923
		c47.879-0.796,108.932,23.289,109,23.318c60.489,23.037,79.74,21.513,83.254,20.882c19.367-0.077,37.434-7.62,50.529-14.95
		c13.3-7.475,21.882-15.018,21.882-15.018c19.843-19.212,28.405-44.463,31.948-64.645c3.379-19.096,2.418-33.988,2.281-35.677
		c-0.058-33.007-16.387-55.325-32.54-69.295c-16.145-13.911-32.27-19.678-32.444-19.735l-0.446-0.137
		c-66.547-14.979-108.369,26.736-108.582,26.998l-2.32,2.301l50.578,61.499l2.572-1.291c41.947-20.97,61.868-12.077,71.731-0.077
		c5.184,6.29,7.999,13.949,9.523,20.152c1.33,5.505,1.602,9.699,1.621,10.446c0,53.548-55.549,65.004-57.858,65.46
		c-21.105,2.854-40.929,1.301-55.48-0.98C597.496,818.325,588.273,815.354,588.273,815.354z M465.872,968.816
		c19.119,0.038,35.303,4.796,35.303,4.796c29.162,7.076,58.732,8.377,58.732,8.377c20.309-2.445,28.793-9.854,28.793-9.854
		c-24.454,4.825-52.558-0.446-52.558-0.446c-20.465-3.747-27.639-7.174-27.639-7.174c-2.786-0.971-19.794-8.902-42.758-8.902
		c-22.944,0-39.919,7.932-42.71,8.902c0,0-7.208,3.427-27.677,7.174c0,0-28.08,5.271-52.529,0.446c0,0,9.071,7.971,28.798,9.854
		c0,0,29.565-1.301,58.718-8.377c0,0,16.193-4.758,35.337-4.796H465.872z M466.212,936.314c10.533,0,34.38,7.28,34.38,7.28
		c58.276,14.979,79.178,12.087,79.178,12.087c25.376,1.194,54.364-18.3,54.364-18.3c-25.959,12.397-52.559,7.806-52.559,7.806
		c-26.871-1.077-88.769-17.484-88.769-17.484c-11.514-3.378-18.62-4.29-26.765-4.29c-7.698,0-15.684,1.358-27.294,4.62
		c0,0-61.921,16.397-88.788,17.493c0,0-26.59,4.593-52.567-7.814c0,0,28.968,19.504,54.368,18.3c0,0,23.6,1.951,79.173-12.067
		C430.934,943.944,456.358,936.314,466.212,936.314z M466.222,903.638c25.09,0,53.709,12.688,53.709,12.688
		c56.849,16.145,79.157,13.785,79.157,13.785c25.396,1.195,54.403-18.299,54.403-18.299c-25.998,12.396-52.598,7.824-52.598,7.824
		c-26.871-1.106-88.769-19.23-88.769-19.23c-20.619-8.01-32.234-8.641-45.836-9.582c-12.838,0.66-23.652,1.379-46.894,9.979
		c0,0-61.912,18.135-88.759,19.222c0,0-26.614,4.582-52.597-7.795c0,0,29.002,19.493,54.378,18.279c0,0,29.73,2.495,79.197-13.805
		C411.615,916.704,443.374,903.638,466.222,903.638z M466.037,871.874c44.137,0,73.153,13.532,73.153,13.532
		c58.976,22.405,79.178,18.921,79.178,18.921c25.396,1.184,54.373-18.309,54.373-18.309c-25.968,12.406-52.587,7.785-52.587,7.785
		c-26.853-1.078-88.769-24.279-88.769-24.279c-25.183-10.193-48.898-9.504-65.349-10.708c-16.513,1.155-36.783-0.796-65.921,10.795
		c0,0-61.897,23.183-88.735,24.28c0,0-26.595,4.582-52.597-7.815c0,0,28.992,19.503,54.374,18.31c0,0,20.191,3.494,79.177-18.912
		C392.335,885.474,424.623,871.874,466.037,871.874z M465.771,827.839c0,0-43.308-1.758-84.969,14.727
		c0,0-61.893,23.202-88.773,24.27c0,0-26.585,4.592-52.592-7.775c0,0,29.002,19.483,54.397,18.26c0,0,20.183,3.524,79.158-18.891
		c0,0,40.787-17.785,92.778-17.785c52.956,0,92.738,17.785,92.738,17.785c58.985,22.415,79.197,18.891,79.197,18.891
		c25.376,1.224,54.383-18.26,54.383-18.26c-25.997,12.367-52.597,7.775-52.597,7.775c-26.852-1.067-88.769-24.27-88.769-24.27
		C508.844,826.237,465.771,827.839,465.771,827.839z"/>
	<path fill="#B2E2F9" d="M804.021,605.829H533.074l-0.058-414.194c9.096-4.213,15.057-12.251,18.736-19.144
		c2.427-4.563,3.932-8.767,4.718-11.301c33.569,9.66,48.044-4.873,53.49-22.58c2.708-8.757,3.184-18.115,2.99-25.201
		c-0.078-3.136-0.311-5.951-0.544-8.175l25.804,31.474h185.031l51.724,72.799c-30.085,18.28-70.945,50.985-70.945,89.478V605.829
		 M679.042,452.213h47.044l-23.493-31.337l23.493-31.366h-47.044l-22.93-30.551l-22.949,30.551h-47.074l23.542,31.366
		l-23.542,31.337h47.074l22.949,30.541L679.042,452.213z M679.042,263.531h47.044l-23.493-31.327l23.493-31.337h-47.044
		l-22.93-30.57l-22.949,30.57h-47.074l23.542,31.337l-23.542,31.327h47.074l22.949,30.579L679.042,263.531z M398.669,605.829H127.48
		V298.984c0-38.492-40.851-71.197-70.916-89.478l51.704-72.799h185.032l25.837-31.474c-0.229,2.214-0.471,5.039-0.554,8.175
		c-0.184,7.086,0.277,16.444,2.985,25.201c5.451,17.707,19.955,32.259,53.534,22.571c0.845,2.572,2.451,6.921,4.985,11.658
		c3.728,6.902,9.645,14.95,18.425,18.834L398.669,605.829z M298.358,452.213h47.073l-23.527-31.337l23.527-31.366h-47.073
		l-22.939-30.551l-22.926,30.551h-47.059l23.513,31.366l-23.513,31.337h47.059l22.926,30.541L298.358,452.213z M298.358,263.531
		h47.073l-23.527-31.327l23.527-31.337h-47.073l-22.939-30.57l-22.926,30.57h-47.059l23.513,31.337l-23.513,31.327h47.059
		l22.926,30.579L298.358,263.531z"/>
	<path fill="#231F20" d="M773.383,892.251c-46.238,82.973-134.92,165.703-302.507,165.703l-10.236-0.039
		c-167.602,0-256.277-82.711-302.502-165.664c-45.879-82.284-49.869-164.646-49.908-165.17l-0.01-428.097
		c0-35.599-50.902-67.79-79.905-82.992l69.989-98.574h185.9l25.58-31.182l-40.161-54.237h392.246l-40.123,54.237l25.57,31.23
		h185.887l69.993,98.525c0,0-14.212,7.465-20.892,11.62c-22.891,14.338-59.033,42.365-59.033,71.372v428.097
		C823.271,727.604,819.243,809.995,773.383,892.251 M804.021,726.586V298.984c0-38.492,40.86-71.197,70.945-89.478l-51.724-72.799
		H638.211l-40.899-49.841l26.337-35.589H307.857l26.361,35.561l-40.918,49.869H108.269l-51.704,72.799
		c30.065,18.28,70.916,50.985,70.916,89.478v427.602c0.554,9.212,19.857,312.078,333.184,312.078h10.212
		C784.188,1038.664,803.497,735.798,804.021,726.586z"/>
	<path fill="#B2E2F9" d="M496.224,800.298c19.901,2.708,49.801,8.736,89.808,21.93c0.185,0.059,38.589,12.465,82.546,6.484
		c0.185-0.048,16.076-2.961,31.88-13.406c15.921-10.514,32.085-28.832,32.085-59.247c0,0-0.165-5.164-1.835-12.086
		c-1.67-6.796-4.834-15.61-10.989-23.065c-12.562-15.281-35.978-23.261-77.935-3.039l-42.617-51.859
		c1.106-0.961,2.621-2.203,4.494-3.582c4.65-3.466,11.523-7.932,20.377-11.979c17.64-8.077,43.025-14.358,74.333-7.368
		c3.67,1.379,60.023,23.609,60.023,82.478c0.02,0.067,4.854,59.072-31.919,94.69c-1.515,1.33-32.978,28.065-67.858,28.065h-0.388
		c0,0-4.214,0.942-15.3-0.922c-11.921-2.01-32.075-7.087-64.615-19.493c-0.854-0.33-16.154-6.281-37.22-12.154
		c-21.601-6.039-49.588-12.048-74.47-11.611l-1.786-0.029c-24.866-0.378-52.811,5.611-74.4,11.641
		c-21.712,6.028-37.283,12.192-37.283,12.192c-32.502,12.368-52.65,17.445-64.553,19.455c-11.096,1.864-15.318,0.922-15.318,0.922
		h-0.354c-34.924,0-66.349-26.735-67.893-28.065c-36.759-35.618-31.919-94.623-31.914-94.69c0-58.868,56.373-81.099,60.038-82.478
		c31.298-6.99,56.718-0.709,74.323,7.368c8.849,4.048,15.736,8.514,20.367,11.979c1.893,1.379,3.397,2.621,4.543,3.582
		l-42.646,51.859c-41.977-20.222-65.382-12.242-77.954,3.039c-6.145,7.455-9.334,16.27-10.965,23.065
		c-1.699,6.922-1.845,12.086-1.845,12.086c0,30.415,16.135,48.733,32.07,59.247c15.828,10.445,31.696,13.358,31.904,13.406
		c43.909,5.98,82.371-6.426,82.541-6.484c39.997-13.193,69.906-19.222,89.808-21.93c19.586-2.68,29.425-2.127,29.425-2.127h2.067
		C466.799,798.171,476.652,797.618,496.224,800.298"/>
	<polyline fill="#EC1C24" points="481.264,574.949 465.771,595.607 450.286,574.949 420.497,574.949 435.38,555.126 
		420.497,535.302 450.286,535.302 465.771,514.673 481.264,535.302 511.038,535.302 496.146,555.126 511.038,574.949 
		481.264,574.949 	"/>
	<polyline fill="#EC1C24" points="296.023,258.871 275.419,286.296 254.828,258.871 214.798,258.871 234.806,232.204 
		214.798,205.565 254.828,205.565 275.419,178.102 296.023,205.565 336.039,205.565 316.041,232.204 336.039,258.871 
		296.023,258.871 	"/>
	<polyline fill="#EC1C24" points="296.023,447.524 275.419,474.958 254.828,447.524 214.798,447.524 234.806,420.876 
		214.798,394.218 254.828,394.199 275.419,366.784 296.023,394.199 336.039,394.218 316.041,420.876 336.039,447.524 
		296.023,447.524 	"/>
	<polyline fill="#EC1C24" points="676.692,258.871 656.112,286.296 635.492,258.871 595.477,258.871 615.494,232.204 
		595.477,205.565 635.492,205.565 656.112,178.102 676.692,205.565 716.689,205.565 696.72,232.204 716.689,258.871 
		676.692,258.871 	"/>
	<polyline fill="#EC1C24" points="676.692,447.524 656.112,474.958 635.492,447.524 595.477,447.524 615.494,420.876 
		595.477,394.218 635.492,394.199 656.112,366.784 676.692,394.199 716.689,394.218 696.72,420.876 716.689,447.524 
		676.692,447.524 	"/>
	<path fill="#231F20" d="M317.07,57.491h297.395l-16.988,22.105H334.049L317.07,57.491 M458.945,90.188
		c2.175,1.039,4.757,2.544,6.801,4.796c2.028-2.252,4.659-3.806,6.849-4.806c2.427-1.106,4.441-1.65,4.791-1.728
		c10.819-3.116,18.896-0.029,24.294,3.814c5.339,3.835,7.999,8.485,8.038,8.533c8.232,18.154-4.155,30.056-4.232,30.104
		c-21.261,18.746-34.124,0.66-34.289,0.369c-3.397-7.912-2.63-13.368-0.791-16.901c0.918-1.738,2.029-2.951,2.941-3.757
		c0.485-0.389,0.898-0.689,1.165-0.874l0.433-0.243c3.484-2.582,7.105-2.494,9.863-2.242c1.543,0.194,4.63,1.719,4.63,1.719
		s1.971,2.087-0.922,2.097c-8.252,0.592-7.223,4.989-7.494,6.232c1.126,6.038,4.446,7.145,7.523,6.553
		c3.485-0.66,6.883-3.563,7.728-6.106c3.951-14.931-12.62-14.727-13.989-14.697c-8.96,0.932-14.484,9.688-15.562,11.514
		l-0.951,1.786l-0.972-1.758c-1.058-1.844-6.581-10.601-15.552-11.513c-1.388-0.059-17.959-0.233-13.993,14.678
		c0.858,2.563,4.242,5.446,7.717,6.126c3.063,0.582,6.384-0.524,7.534-6.582c-0.272-1.214,0.762-5.641-7.49-6.232
		c-2.917,0-0.912-2.077-0.912-2.077s3.072-1.534,4.631-1.709c2.757-0.281,6.339-0.359,9.844,2.223l0.397,0.272
		c0.311,0.155,0.704,0.446,1.175,0.854c0.922,0.806,2.063,2.009,2.971,3.747c1.83,3.543,2.621,9.019-0.815,16.931
		c-0.15,0.271-13.038,18.338-34.259-0.369c-0.098-0.078-12.46-11.97-4.224-30.104c0.039-0.077,2.709-4.718,8.028-8.572
		c5.374-3.824,13.484-6.901,24.284-3.795C454.484,88.547,456.509,89.071,458.945,90.188z M519.328,141.668
		c-3.339,5.747-8.563,12.484-15.94,15.893c-9.436,5.795-15.979,7.543-16.037,7.553c0,0-2.68,0.641-1.815-1.806
		c2.534-9.747-5.358-15.728-10.533-19.222c-1.203-2.253,1.607-1.913,1.607-1.913c7.761,6.33,21.371,1.428,22.614,1.078
		c9.854-3.582,15.406-16.591,15.406-16.591c7.067-18.057-9.893-37.695-9.893-37.695h39.618c0,0-13.145,9.514-16.271,28.793
		C526.6,123.98,522.454,136.28,519.328,141.668z M529.793,344.388l-0.01,12.591H401.742v-12.591
		c21.629,8.456,35.574-0.417,35.574-0.417c14.3,5.767,24.843,2.019,27.978,0.602v-0.456l0.477,0.232l0.451-0.232v0.456
		c3.15,1.417,13.669,5.165,28.002-0.602C494.224,343.971,508.154,352.844,529.793,344.388z M528.026,329.467
		c0,0-1.34,6.883-6.437,9.61c-10.63,5.699-18.377,1.903-18.377,1.903c-5.465-5.116-1.339-9.951,3.835-9.679
		C520.688,334.864,528.026,329.467,528.026,329.467z M470.862,283.325c0.203,0.01,0.393-0.058,0.499,0.146l-0.232-0.097
		L470.862,283.325z M471.361,283.471c1.389,0.495,0.379,0.369,2.194,0.379c2.976,0.01,5.786,0.068,8.776-0.059
		c0.844-0.038,4.504-0.106,8.863-0.203l-1.447-7.99c-0.582-1.388-14.969-21.134-14.969-21.134c-1.709-7.262,4.664-3.038,4.664-3.038
		l12.004,15.202v-16.581c1.99-5.602,5.815-0.534,5.815-0.534l-0.272,17.989c0.272-0.544,9.989-12.484,9.989-12.484
		c5.136-4.417,5.233,1.922,5.233,1.922l-11.806,19.474l-2.028,7.058c5.397-0.097,10.096-0.136,10.29-0.106
		c1.961,0.476,6.796,1.077,8.854,0.65c1.98-0.456-1.825-5.019-0.893-6.989c2.873-6.087,1.834-4.757,1.533-10.126
		c-0.33-6.368,1.845-8.805,1.98-9.203c0,0-2.621-8.989-3.902-13.775c0,0-1.068-2.446-1.291-2.971
		c0.049,0.146-1.864-1.164-3.845-1.164c-3.873,0-6.329-1-10.184-1.438c-0.728-0.038-4.291-0.65-6.737-0.689
		c-3.106-0.019-8.076,0.903-11.843,1.185c-7.364,0.563-7.121-2.058-11.543,0.786c-0.296,0.194-0.592,0.408-0.845,0.651
		c-0.354,0.893-0.597,2.048-0.441,4.048c0.121,1.524,1.718,2.028,2.65,3.407c-0.544-0.165-0.908,0.971-1.005,1.262
		c-0.563,1.68,0.223,1.068,0.335,2.729c0.16,2.116-1.364,3.446-0.617,5.456c0.423,1.126,3.456,1.466,1.68,3.223
		c0.194,0.146,0.476,0.737,0.515,0.835c0.32,0.699-1.223,5.621-1.912,6.688c0.097-0.087,0.33-0.077,0.757,0.951
		c2.106,4.689-2.446,7.301-1.796,8.572c0.083,0.146,0.68,1.389,1.077,0.903c-0.291,0.98-0.752,1.679-1.014,2.417
		c0.092,0.786,0.126,1.446,0.043,1.932c0.122,0.32,0.277,0.485,0.394,0.554l0.51,0.116L471.361,283.471z M460.169,283.471
		c0.111-0.203,0.306-0.136,0.495-0.146c0.35-0.136,0.515-0.301,0.626-0.621c-0.088-0.485-0.044-1.146,0.054-1.932
		c-0.224-0.738-0.729-1.437-0.995-2.417c0.383,0.485,0.98-0.758,1.053-0.903c0.655-1.271-3.912-3.883-1.815-8.572
		c0.451-1.028,0.694-1.038,0.763-0.951c-0.665-1.067-2.219-5.989-1.903-6.688c0.024-0.098,0.33-0.689,0.539-0.835
		c-1.801-1.757,1.262-2.097,1.655-3.223c0.752-2.01-0.763-3.34-0.616-5.456c0.131-1.66,0.893-1.049,0.325-2.729
		c-0.103-0.291-0.438-1.427-0.99-1.262c0.946-1.379,2.509-1.883,2.649-3.407c0.165-2-0.077-3.155-0.466-4.048
		c-0.223-0.243-0.49-0.457-0.811-0.651c-4.422-2.844-4.198-0.223-11.542-0.786c-3.786-0.281-8.742-1.203-11.849-1.185
		c-2.427,0.039-6.02,0.651-6.762,0.689c-3.825,0.438-6.301,1.438-10.188,1.438c-1.956,0-3.863,1.311-3.811,1.164
		c-0.242,0.524-1.286,2.971-1.286,2.971c-1.276,4.786-3.917,13.775-3.917,13.775c0.131,0.398,2.296,2.835,1.976,9.203
		c-0.281,5.369-1.325,4.039,1.563,10.126c0.913,1.971-2.888,6.533-0.897,6.989c2.038,0.427,6.868-0.175,8.839-0.65
		c0.18-0.029,4.897,0.01,10.28,0.106l-2.028-7.058l-11.805-19.474c0,0,0.106-6.339,5.252-1.922c0,0,9.713,11.94,9.989,12.484
		l-0.276-17.989c0,0,3.8-5.067,5.805,0.534v16.581l11.989-15.202c0,0,6.383-4.224,4.689,3.038c0,0-14.383,19.746-14.97,21.134
		l-1.456,7.99c4.339,0.097,8.028,0.165,8.868,0.203c3.004,0.127,5.824,0.068,8.771,0.059
		C459.877,283.84,458.669,283.966,460.169,283.471z M524.474,184.684l0.252,0.428C524.658,184.976,524.59,184.819,524.474,184.684z
		 M524.726,185.111c1.01,2.358-0.602,6.329,0.408,8.94c1.34,3.534,2.019,8.106,2.776,12.105c0.611,3.185,0.175,15.902,0.136,16.009
		c-0.563,1.689-0.786,1.165-0.815,3.067c-0.039,2.99-4.922,9.961-3.242,12.62c0.971,1.515,2.543,0.99,2.058,3.097
		c-0.407,1.874-1.65,1.379-0.621,3.33c0.505,0.903,3.087,6.175,3.087,6.397c0.049,3.912-1.825,5.835,0.389,10.028
		c1.029,1.874,1.175,1.709,0.427,3.767c-1.242,3.146,0,11.368-1.533,13.349c-2.768,3.631-0.408,3.815-1.961,6.572
		c-0.66,1.175-1.398,1.602-1.884,2.893c-0.719,2.01-0.233,1.262,0.33,3.155c0.786,2.67,0,3.825,0.951,6.728
		c0.641,1.951-0.505,1.99-0.534,3.873c-0.038,3.437,3.524,6.485,3.389,10.058c-0.098,1.883-2.912,8.62-2.427,10.61
		c1.349,5.407-5.641,8.999-7.708,8.611c-1.787-0.35-16.397-1.757-22.426-2.271l5.029,12.348v2.835
		c-2.894,0.951-3.534-0.961-3.534-0.961c-1.175-1.874-4.951-5.281-4.951-5.281c0,1.301-3.533,3.262-3.533,3.262
		c-10.62,2.301-17.916-0.32-21.493-2.281c-0.68-0.271-1.083-0.602-1.271-0.864c-0.219,0.263-0.598,0.593-1.302,0.864
		c-3.577,1.961-10.882,4.582-21.479,2.281c0,0-3.563-1.961-3.563-3.262c0,0-3.732,3.407-4.917,5.281c0,0-0.66,1.912-3.548,0.961
		v-2.835l5.053-12.348c-6.058,0.515-20.644,1.922-22.43,2.271c-2.098,0.388-9.053-3.204-7.718-8.611
		c0.476-1.99-2.35-8.728-2.413-10.61c-0.155-3.572,3.408-6.621,3.369-10.058c0-1.883-1.175-1.922-0.544-3.873
		c0.946-2.902,0.194-4.058,0.98-6.728c0.544-1.894,1.01-1.146,0.291-3.155c-0.476-1.291-1.208-1.718-1.863-2.893
		c-1.534-2.757,0.815-2.941-1.961-6.572c-1.505-1.98-0.307-10.203-1.505-13.349c-0.796-2.058-0.636-1.893,0.374-3.767
		c2.257-4.193,0.358-6.116,0.427-10.028c0-0.223,2.602-5.494,3.063-6.397c1.039-1.951-0.199-1.456-0.631-3.33
		c-0.471-2.106,1.106-1.582,2.067-3.097c1.699-2.659-3.208-9.63-3.242-12.62c0-1.902-0.218-1.378-0.791-3.067
		c-0.068-0.106-0.51-12.824,0.121-16.009c0.787-3.999,1.438-8.571,2.763-12.105c1.004-2.611-0.578-6.582,0.422-8.94
		c0.068-0.136,0.146-0.292,0.242-0.428l2.263-4.009l-0.35,0.495c-0.874-0.33-11.902-5-15.877-16.892c0,0-7.039-15.95-7.917-34.425
		c-1.757-12.096-9.242-23.152-19.615-23.386c-1.33-0.049-20.939-0.398-16.313,17.027c0.961,3.039,4.917,6.446,9.009,7.232
		c3.66,0.709,7.523-0.155,8.863-7.242c-0.291-1.33-2.131-9.105-8.796-7.698c0,0-2.883,0.146-0.912-2.097
		c0,0,0.524-0.437,1.485-0.864c0.917-0.417,2.208-0.883,3.771-1.165c3.087-0.563,7.218-0.437,11.169,2.534
		c1.286,0.709,12.193,11.63,4.126,25.046c-0.068,0.039-14.736,20.668-38.992-0.689c-0.092-0.077-14.256-13.591-4.849-34.316
		c0.059-0.175,11.62-24.513,40.259-13.058c0,0,21.619,5.543,24.464,49.724c-0.034,0.068-1.928,18.746,15.081,31.716l2.927-5.203
		l10.849,16.658c2.732-3.437,7.256-7.941,8.358-1.524c0,0,8.091-3.698,5.97,2.505c0,0,8.242-3.98,5.515,3.835l-2.757,9.009
		c0,0,9.042,14.212,8.11,15.988c0,0,3.232,7.912-2.907,5.845c-8.121-12.067-20.993-31.647-28.809-7.476c0,0-4.611,5.728-4.125-0.146
		c0,0,3.606-19.153,7.736-24.026l-9.159-2.272c-0.242,3.438-0.121,8.67-1.276,9.912c-2.723,2.961-3.82,11.601-2.606,13.339
		c1.213,1.747-0.461,1.417-0.155,3.417c0.257,1.505,0.345,7.252,1.703,8.96c1.127,1.398,2.995,5.369,2.714,7.476
		c-0.291,2.193,0.752,3.339,1.067,3.466c1.942,0.747,1.01-1.059,3.01-1.524c2.092-0.466,0.597,0.224,2.713,0.379
		c2.768,0.155-0.116-0.563,5.33-0.98c2.82-0.194,4.223-1.864,6.762-0.689c1.825,0.825,0.199,1.067,2.34,0.116
		c1.888-0.845,1.146-1.796,3.111-0.68c1.621,0.942,0.383-0.223,2.311,0.146c2.373,0.418,3.582-0.825,6.62-0.893
		c1.189-0.039,4.52,1.718,5.946,2c2.636,0.563,1.48,0.602,3.523,2.271c0.277,0.194,0.524,0.262,0.763,0.175
		c-0.17-0.165-0.32-0.466-0.418-1c-0.306-2.175,1.67-0.593,1.301-2.757c-0.373-2.136-0.868-0.359,0.33-2.165
		c1.277-1.932,0.689-0.923-0.456-2.641c-1.175-1.709,0.165-0.99-0.369-2.835c0-0.077-0.32-1.136-0.626-1.175
		c1.631-0.242,2.15-7.223,1.951-8.863c-0.257-2.388-3.649-3.902-2.067-5.669c1.495-1.602,2.597,0.446,2.577-1.825
		c-0.063-2.534-2.767-2.427-2.791-4.912c-0.067-2.049,0.15-0.65,0.956-2.397c0.738-1.632-0.767-3.136-0.373-5.311
		c0.267-1.456,0.971-0.864,1.237-2.311c0.394-2.165-0.393-0.059-1.417-1.98c-1.049-1.932,0.757-0.786,1.34-2.835
		c0.611-2.136-1.495-0.893-0.98-3.116c0.087-0.446,0.218-0.863,0.397-1.252c-3.306-2.699-9.193-7.786-9.698-10.019
		c0,0-3.649-6.873,2.384-3.533c0,0,8.945,7.396,10.396,7.066l0.729-5.319l-7.102-2.621c0,0-6.407-5.825,2.588-8.854
		c0,0-1.485-6.34,2.742-8.979c0,0-0.345-7.737,3.839-8.427c4.17,0.689,3.451,8.319,3.451,8.319c4.204,2.66,2.753,8.999,2.753,8.999
		c8.984,2.99,2.553,8.863,2.553,8.863l-7.106,2.621l0.733,5.301c1.456,0.34,10.44-7.048,10.44-7.048
		c6.005-3.388,2.364,3.485,2.364,3.485c-0.534,2.262-6.432,7.378-9.752,10.076c0.224,0.398,0.369,0.835,0.452,1.32
		c0.49,2.224-1.598,0.98-0.985,3.116c0.592,2.049,2.358,0.903,1.334,2.835c-1.038,1.922-1.791-0.185-1.417,1.98
		c0.262,1.446,0.985,0.854,1.242,2.311c0.389,2.175-1.116,3.679-0.368,5.311c0.781,1.747,1.01,0.349,0.971,2.397
		c-0.029,2.485-2.733,2.378-2.796,4.912c-0.063,2.271,1.067,0.224,2.538,1.825c1.617,1.767-1.801,3.281-2.058,5.669
		c-0.189,1.641,0.311,8.621,1.966,8.863c-0.32,0.039-0.592,1.098-0.636,1.175c-0.539,1.845,0.796,1.126-0.34,2.835
		c-1.17,1.718-1.747,0.709-0.49,2.641c1.213,1.806,0.714,0.029,0.35,2.165c-0.379,2.164,1.606,0.582,1.276,2.757
		c-0.083,0.534-0.219,0.835-0.413,1c0.253,0.087,0.515,0.02,0.777-0.175c2.058-1.67,0.883-1.709,3.519-2.271
		c1.408-0.282,4.781-2.039,5.946-2c3.01,0.067,4.252,1.311,6.602,0.893c1.971-0.368,0.728,0.797,2.33-0.146
		c1.961-1.116,1.242-0.165,3.126,0.68c2.136,0.951,0.514,0.709,2.319-0.116c2.534-1.175,3.951,0.495,6.767,0.689
		c5.456,0.417,2.582,1.136,5.34,0.98c2.116-0.155,0.621-0.845,2.718-0.379c1.99,0.466,1.049,2.271,3.01,1.524
		c0.311-0.127,1.368-1.272,1.067-3.466c-0.301-2.106,1.593-6.077,2.709-7.476c1.34-1.708,1.446-7.455,1.68-8.96
		c0.311-2-1.359-1.67-0.127-3.417c1.214-1.738,0.088-10.378-2.631-13.339c-1.146-1.242-1-6.475-1.262-9.912l-9.174,2.272
		c4.146,4.873,7.757,24.026,7.757,24.026c0.466,5.873-4.136,0.146-4.136,0.146c-7.824-24.172-20.678-4.592-28.804,7.476
		c-6.135,2.067-2.897-5.845-2.897-5.845c-0.946-1.776,8.111-15.988,8.111-15.988l-2.758-9.009c-2.747-7.815,5.515-3.835,5.515-3.835
		c-2.155-6.203,5.97-2.505,5.97-2.505c1.107-6.417,5.621-1.912,8.358,1.524l10.834-16.658l2.933,5.203
		c17.018-12.97,15.096-31.647,15.096-31.716c2.844-44.181,24.435-49.724,24.435-49.724c28.657-11.455,40.21,12.883,40.277,13.058
		c9.397,20.726-4.767,34.239-4.854,34.316c-24.26,21.357-38.958,0.729-38.987,0.689c-8.048-13.416,2.864-24.337,4.126-25.046
		c3.932-2.971,8.077-3.097,11.164-2.534c1.563,0.282,2.864,0.748,3.786,1.165c0.951,0.428,1.495,0.864,1.495,0.864
		c1.922,2.242-0.951,2.097-0.951,2.097c-6.631-1.407-8.504,6.368-8.786,7.698c1.311,7.087,5.214,7.951,8.845,7.242
		c4.087-0.786,8.066-4.193,9.037-7.232c4.611-17.426-15.008-17.076-16.299-17.027c-10.388,0.233-17.882,11.29-19.649,23.386
		c-0.863,18.475-7.911,34.425-7.911,34.425c-3.961,11.892-14.989,16.562-15.883,16.892l-0.339-0.495l2.252,4.009
		C524.59,184.819,524.658,184.976,524.726,185.111z M406.795,185.111l0.242-0.428C406.94,184.819,406.863,184.976,406.795,185.111z
		 M465.771,335.933c0.257-0.379,0.698-0.66,0.698-0.66c6.407,2.814,17.97-4.407,21.911-7.087
		c-5.185,0.621-12.514,1.893-14.203,2.427c-1.242,0.437-5.319,0.194-8.406-0.33c-3.111,0.524-7.17,0.767-8.422,0.33
		c-1.694-0.534-9.038-1.806-14.198-2.427c3.922,2.68,15.499,9.901,21.921,7.087C465.071,335.272,465.508,335.554,465.771,335.933z
		 M459.319,321.827c-0.315-5.116-1-15.223-1.102-16.94c-0.335-6.058,1.806-4.902,3.291-7.621c1.533-2.844-0.189-2.883-0.758-4.193
		c-8.494-0.933-19.692,0.232-28.618,0.136c-2.777-0.039-5.82-0.097-8.611,0.116c-1.845,0.117-3.728-0.281-5.349,0.233
		c-1.297,0.397-1.272,0.106-1.263,0.049c-4.271,6.048-4.563,18.648-1.606,26.473c1.354,3.515,9.067,2.097,15.096,0.776
		l-10.329-17.047c0,0,0.097-6.319,5.257-1.922c0,0,9.703,11.94,9.979,12.484l-0.276-17.988c0,0,3.806-5.067,5.805,0.553v16.571
		l11.994-15.192c0,0,6.393-4.242,4.675,3.01c0,0-9.737,13.387-13.499,18.891C448.558,321.525,455.78,323.924,459.319,321.827z
		 M472.216,321.827c3.534,2.097,10.757-0.302,15.319-1.612c-3.776-5.504-13.514-18.891-13.514-18.891
		c-1.718-7.252,4.655-3.01,4.655-3.01l12.023,15.192v-16.571c1.99-5.62,5.824-0.553,5.824-0.553l-0.301,17.988
		c0.301-0.544,9.979-12.484,9.979-12.484c5.155-4.397,5.262,1.922,5.262,1.922l-10.349,17.047c6.019,1.32,13.746,2.738,15.105-0.776
		c2.941-7.824,2.67-20.425-1.621-26.473c0.029,0.058,0.029,0.349-1.271-0.049c-1.611-0.515-3.485-0.116-5.32-0.233
		c-2.796-0.213-5.834-0.155-8.62-0.116c-8.912,0.097-20.105-1.068-28.59-0.136c-0.592,1.311-2.296,1.35-0.786,4.193
		c1.48,2.719,3.631,1.563,3.311,7.621C473.221,306.604,472.488,316.711,472.216,321.827z M403.519,329.467
		c0,0,7.295,5.397,20.969,1.835c5.16-0.272,9.281,4.563,3.83,9.679c0,0-7.752,3.796-18.382-1.903
		C404.854,336.35,403.519,329.467,403.519,329.467z M412.178,141.668c-3.141-5.388-7.237-17.688-8.723-23.91
		c-3.146-19.279-16.266-28.793-16.266-28.793h39.604c0,0-16.965,19.639-9.917,37.695c0,0,5.549,13.009,15.431,16.591
		c1.248,0.35,14.863,5.252,22.62-1.078c0,0,2.776-0.34,1.592,1.913c-5.165,3.494-13.076,9.475-10.523,19.222
		c0.835,2.446-1.806,1.806-1.806,1.806c-0.087-0.01-6.602-1.758-16.037-7.553C420.75,154.152,415.527,147.415,412.178,141.668z
		 M500.68,552.971v4.329l-1.631-2.174L500.68,552.971z M430.831,557.3v-4.329l1.627,2.155L430.831,557.3z M515.911,373.899v307.797
		l5.165,2.281V373.919L515.911,373.899z M506.922,677.765l-0.02-100.438h8.805l-8.805-11.727v-20.901l8.805-11.756h-8.805V373.899
		h-6.223v159.044H491.7V373.899h-6.232v159.044h-3.059l-5.946-7.902V373.899h-6.203v142.871l-4.489-6l-4.505,6V373.899h-6.213
		v151.142l-5.937,7.902h-3.082V373.899h-6.208v159.044h-8.995V373.899h-6.208v159.044h-8.824l8.824,11.766v20.853l-8.824,11.766
		h8.824v100.594l5.956,9.514l0.252-0.059V577.327h8.995v107.961l6.208-1.455V577.327h3.082l5.937,7.922v87.283l6.213-0.029v-78.992
		l4.505,5.99l4.489-5.99v78.963l6.203-0.067v-87.157l5.946-7.922h3.059v106.768l6.232,1.193V577.327h8.979v108.66L506.922,677.765z
		 M415.614,681.667V373.899l-5.174,0.02v310.078L415.614,681.667z M401.427,688.075V373.899c-7.85-0.368-7.728-11.795,0.388-11.795
		h127.882c8.135,0,8.252,11.427,0.379,11.795v314l7.29,3.233l-3.155,11.038l13.388,9.387l10.038-5.533l22.366,24.57l-7.368,8.854
		l8.417,13.999l11.407-0.99l10.455,31.551l-10.339,5.106l1.971,16.202l10.854,3.737l-1.049,10.504
		c-3.223-0.621-6.097-1.252-8.533-1.834l0.301-2.699l-9.475-3.271l-3.437-27.697l9.125-4.494l-5.94-17.892l-9.98,0.894
		l-14.387-23.939l6.504-7.757l-12.678-13.95l-8.786,4.854l-22.862-15.998l2.777-9.767l-17.261-7.543l-6.038,7.989l-27.405-5.31
		l-1.438-10.058l-18.833,0.098l-2.252,9.766l-27.196,6.311l-5.432-8.602l-17.135,7.775l1.897,9.834l-22.284,16.805l-8.416-5.631
		l-12.538,14.067l5.752,8.213l-13.514,24.415l-9.999-1.748l-5.747,17.96l8.606,5.194l-2.418,27.783l-9.839,2.485l0.229,1.913
		c-2.407,0.582-5.306,1.213-8.528,1.834l-1.146-10.31l11.174-2.815l1.412-16.27l-9.81-5.893l10.106-31.688l11.353,1.951
		l7.897-14.279l-6.548-9.388l22.109-24.843l9.577,6.437l13.028-9.854l-2.185-11.261L401.427,688.075z M465.771,772.562
		c-15.058,0-28.1,8.641-34.425,21.241c-3.136,0.446-6.514,1.01-10.096,1.612c6.437-18.339,23.949-31.521,44.521-31.521
		c20.551,0,38.045,13.183,44.49,31.521c-3.592-0.603-6.931-1.166-10.105-1.612C493.854,781.202,480.808,772.562,465.771,772.562z"/>
	<path fill="#AEB0B3" d="M335.655,817.315c5.51-1.301,8.641-2.34,8.641-2.34c32.196-10.62,57.873-16.59,77.124-19.979
		c6.572-18.135,23.944-31.104,44.351-31.104c20.405,0,37.753,12.969,44.345,31.104c19.241,3.389,44.938,9.358,77.109,19.979
		c0,0,3.146,1.039,8.65,2.34l0.242-2.291l-9.475-3.271l-3.437-27.697l9.125-4.494l-5.94-17.892l-9.98,0.894l-14.387-23.939
		l6.504-7.757l-12.678-13.95l-8.786,4.854l-22.862-15.998l2.777-9.767l-17.261-7.543l-6.038,7.989l-27.405-5.31l-1.438-10.058
		l-18.833,0.098l-2.252,9.766l-27.196,6.311l-5.432-8.602l-17.135,7.775l1.897,9.834l-22.284,16.805l-8.416-5.631l-12.538,14.067
		l5.752,8.213l-13.514,24.415l-9.999-1.748l-5.747,17.96l8.606,5.194l-2.418,27.783l-9.839,2.485L335.655,817.315"/>
</g>
</svg>
