<?xml version="1.0" encoding="utf-8"?>
<!-- Generator: Adobe Illustrator 15.0.2, SVG Export Plug-In . SVG Version: 6.00 Build 0)  -->
<!DOCTYPE svg PUBLIC "-//W3C//DTD SVG 1.1//EN" "http://www.w3.org/Graphics/SVG/1.1/DTD/svg11.dtd">
<svg version="1.1" id="Layer_1" xmlns="http://www.w3.org/2000/svg" xmlns:xlink="http://www.w3.org/1999/xlink" x="0px" y="0px"
	 width="1744.3px" height="1044.057px" viewBox="0 0 1744.3 1044.057" enable-background="new 0 0 1744.3 1044.057"
	 xml:space="preserve">
<path fill-rule="evenodd" clip-rule="evenodd" fill="#2C73B8" d="M1383.183,128.891h22.601V0h175.725v236.707h-57.319
	l41.436,420.575l-38.381,3.766l-45.306-462.825h61.086V38.483h-98.755v128.892h-99.468V38.483h-113.823v128.892h-97.229V38.483
	h-94.987v159.74h58.744l-52.738,462.825l-38.483-4.48l47.545-419.861h-53.552V0h171.854v128.891h20.361V0h190.689V128.891z
	 M1419.427,189.162l4.479,8.349l6.82,5.294c2.512,1.968,4.277,4.208,5.296,6.719l1.426,6.821c0,7.059-2.987,13.847-8.961,20.362
	l-6.108,6.821l16.596,21.075l-9.062,21.075h-3.768l-6.006-9.774c-3.529-4.547-9.061-10.316-16.596-17.308l-21.073-20.362
	l-3.055,10.486c0,5.023,1.019,8.314,3.055,9.875c0,0.476,1.764,1.222,5.293,2.24c1.969,0,2.715,0.237,2.239,0.713l-4.479,20.362
	c-1.018,1.018-2.783,1.527-5.295,1.527l-10.588-1.527c-5.021-1.493-7.533-6.007-7.533-13.541c0-3.529,1.255-9.57,3.767-18.123
	c2.512-9.026,3.767-15.542,3.767-19.546c0-2.511-0.746-4.548-2.239-6.108l-8.348-12.015l12.113-23.416h3.055l3.768,9.062l4.48,6.108
	l30.948,30.135c2.986-3.054,4.48-6.346,4.48-9.875c0-2.512-2.003-5.77-6.008-9.774c-3.529-3.53-5.057-5.769-4.581-6.719l8.35-18.937
	H1419.427z M1329.732,192.216c0.95,2.512,2.715,4.039,5.294,4.582l10.486,6.007c4.005,3.529,6.008,7.806,6.008,12.827
	c0,5.974-2.75,14.491-8.246,25.555l-9.775,12.115l-7.532,5.294l-3.769-3.054l3.769-9.061c2.984-6.516,4.478-11.776,4.478-15.78
	l-0.712-3.054c-2.036-2.987-5.565-5.736-10.589-8.247l-3.766-3.768l-1.527-2.341l10.589-23.313h3.766L1329.732,192.216z
	 M1309.371,219.399c0,8.009-1.765,16.289-5.294,24.842c-3.529,9.569-7.568,16.595-12.115,21.075
	c-5.974,6.04-16.765,12.59-32.377,19.649l-3.766-0.814l4.581-24.129l25.554-14.253c3.055-2.036,4.582-5.057,4.582-9.061
	c0-6.041-1.255-10.079-3.767-12.115l-9.876-1.426h-17.309c-2.511,0-5.768-1.256-9.772-3.767c-2.512-1.561-3.767-4.853-3.767-9.876
	l1.527-16.595l-3.055-18.834v-0.713l14.355-13.541h2.952c1.019,0,1.798,0.984,2.341,2.953l1.426,10.588l-2.239,18.834
	c0,2.512,0.746,3.767,2.239,3.767l6.108,0.814h10.487c7.057,0,11.334,0.238,12.827,0.713c4.005,0,6.787,1.256,8.348,3.767
	C1307.368,205.282,1309.371,211.322,1309.371,219.399z M1316.09,316.627l12.827,12.013h118.405v28.711h-118.405l-12.827,13.54
	l1.527,50.497l18.122,3.768l21.89-37.669l39.908,23.314l-20.361,34.717l14.354,9.773l30.137-27.081l30.949,33.901l-30.237,27.083
	l9.062,15.066l37.67-13.54l15.882,42.963l-37.67,14.355l2.239,15.068h38.484v46.017h-40.012l-3.766,18.021
	c-12.558,0.543-24.095,2.545-34.615,6.005c-8.077,2.036-20.668,9.095-37.771,21.177c18.121-21.652,27.183-46.017,27.183-73.1
	c0-25.18-7.534-47.817-22.601-67.906c-14.594-19.071-33.699-32.138-57.32-39.197l9.773,409.375l21.89-1.527
	c5.022-0.543,24.13-2.307,57.319-5.293c34.14-4.005,60-8.28,77.578-12.828c44.729-12.082,91.223-33.937,139.479-65.565
	c18.599-11.539,43.711-33.395,75.339-65.565l42.251-44.49l-15.78,85.926c-2.512,17.58-5.293,22.094-8.348,13.541l-6.007-34.615
	l-45.204,54.978c-36.176,40.724-70.111,72.658-101.81,95.803c-35.701,25.587-67.091,44.931-94.174,58.031
	c-22.125,10.521-44.489,17.782-67.091,21.787c-27.693,5.565-44.796,9.096-51.312,10.589c-15.544,3.529-26.606,7.805-33.19,12.827
	c-9.503,7.534-19.785,19.854-30.849,36.958c-12.082-17.104-23.144-29.424-33.189-36.958c-6.517-5.022-17.308-9.298-32.376-12.827
	c-7.06-2.036-24.4-5.565-52.024-10.589c-45.271-8.552-98.789-35.158-160.554-79.818c-31.696-23.145-65.634-55.079-101.81-95.803
	l-45.203-54.978l-6.007,34.615c-2.512,7.535-5.532,3.021-9.062-13.541l-15.882-85.926l42.251,44.49
	c32.172,32.171,57.285,54.026,75.339,65.565c49.276,31.629,96.04,53.483,140.294,65.565c20.09,5.021,65.056,11.063,134.898,18.121
	l21.889,1.527l9.773-409.375c-23.146,7.059-42.251,20.125-57.319,39.197c-15.068,20.089-22.602,42.726-22.602,67.906
	c0,27.083,8.552,50.702,25.655,70.861c-16.628-11.064-28.438-17.377-35.43-18.938c-10.587-2.985-22.397-4.987-35.429-6.005
	l-3.768-18.021h-37.669v-46.017h36.142c0-5.023,0.747-10.316,2.24-15.882l-35.43-13.542l15.882-42.963l35.43,12.828l9.774-15.882
	l-28.609-25.556l30.85-33.901l29.422,26.369l14.355-10.589l-19.649-33.189l39.91-23.314l21.176,37.669l16.596-3.768l0.711-50.497
	l-12.012-13.54h-119.118v-28.711h119.118l12.012-12.013v-21.176h56.505V316.627z M1365.875,670.925
	c21.107-13.1,35.939-21.143,44.49-24.13c28.168-8.077,52.806-9.095,73.915-3.054c9.025,3.054,23.585,10.352,43.675,21.889
	c25.657,15.068,40.996,23.857,46.019,26.369c15.066,7.534,27.862,12.318,38.382,14.354c13.1,2.512,27.93,1.732,44.491-2.34
	c29.117-6.516,58.269-18.326,87.453-35.431c-22.126,27.691-44.727,47.817-67.805,60.374c-33.732,18.054-65.158,22.804-94.275,14.254
	c-10.046-2.987-30.407-12.523-61.086-28.61c-27.148-13.573-46.73-21.107-58.743-22.601c-25.657-2.987-48.021,2.036-67.093,15.068
	l-55.792,35.429l-2.239-52.024C1346.294,684.431,1355.829,677.915,1365.875,670.925z M1390.003,728.956
	c17.104-11.606,36.958-17.886,59.559-18.834c13.575-0.543,27.387,2.205,41.438,8.246c7.534,4.005,18.835,10.282,33.901,18.834
	c8.077,4.005,19.887,10.283,35.431,18.835c13.575,6.041,25.894,9.062,36.957,9.062c17.104,0,34.954-4.277,53.552-12.829
	l-27.185,24.13c-14.048,10.046-31.119,15.848-51.209,17.409c-18.598,0.95-40.962-4.854-67.093-17.409
	c-15.611-6.991-24.909-10.996-27.896-12.015c-12.556-4.005-25.385-5.26-38.483-3.766c-13.032,1.493-24.096,5.259-33.191,11.3
	c-5.496,3.529-13.778,9.57-24.84,18.123c-13.032,9.025-25.826,15.542-38.383,19.547l-1.527-46.018l14.253-8.96
	C1370.897,741.512,1382.471,732.959,1390.003,728.956z M1232.505,233.652l1.426,37.772l-14.254,14.253h-3.768
	c0-0.475,0-1.969,0-4.48v-35.43c0-9.57-0.78-15.611-2.341-18.122c-1.493-2.036-3.496-3.53-6.007-4.48h-24.842l1.526,30.848
	c0,3.054,0.238,5.057,0.713,6.007l-6.821,22.704h-11.3c-2.987,0-8.756,0.237-17.308,0.712l-1.527-1.527l5.294-22.602l6.006-0.713
	h7.535c0-17.104-0.476-27.657-1.426-31.662c-0.543-3.53-2.817-6.041-6.821-7.534c-3.529-0.543-6.04-2.579-7.534-6.109l10.589-24.129
	h3.767l4.479,5.294c2.512,1.561,6.788,2.341,12.828,2.341h30.135c8.553,0,14.323,2.511,17.308,7.534
	c2.036,1.969,3.055,7.466,3.055,16.494L1232.505,233.652z M847.97,106.29h35.43l9.062,46.729
	c5.023,21.109,9.062,35.431,12.116,42.964h2.238c2.987,0,5.498-1.018,7.535-3.054c2.511-2.511,3.767-5.497,3.767-8.959v-42.964
	h-14.355l6.821-34.716h39.909v73.099c0,17.579-3.767,30.407-11.3,38.484c-6.992,8.552-16.527,12.829-28.609,12.829h-70.146
	l6.109-34.718h27.895c-7.059-16.085-13.099-34.411-18.122-54.977h-14.354L847.97,106.29z M677.644,106.29h82.975v124.411h-32.478
	v-89.695h-56.505L677.644,106.29z M782.405,106.29h41.538v76.153h-32.478v-41.437h-15.067L782.405,106.29z M755.323,262.363
	l93.461,131.843c10.521-13.575,16.799-32.41,18.835-56.504h-36.957l13.541-75.339h105.576l-9.773,58.032
	c-9.027,50.77-31.154,87.455-66.38,110.056L947.54,534.5h-79.921L766.625,391.967c-5.565,9.568-9.096,21.141-10.589,34.716
	l-3.767,33.189h37.669L775.686,534.5h-99.569l10.588-82.975c5.498-41.674,24.332-73.066,56.505-94.174l-67.806-94.989H755.323z
	 M655.754,182.442h-33.088v-41.437h-14.354l6.006-34.716h41.437V182.442z M851.839,691.999l-21.177-23.417l27.184,14.355
	c21.584,10.045,41.437,17.071,59.559,21.076c17.036,4.073,32.104,4.852,45.204,2.34c10.52-2.036,23.348-6.82,38.483-14.354
	c5.497-2.512,20.804-11.301,45.916-26.369c20.09-11.537,34.683-18.835,43.778-21.889c21.108-6.041,45.475-5.023,73.099,3.054
	c14.051,4.48,38.653,19.04,73.812,43.677l-2.239,52.024l-55.792-35.429c-19.547-13.032-41.911-18.055-67.092-15.068
	c-12.014,1.493-31.595,9.027-58.744,22.601c-31.153,16.087-51.516,25.623-61.086,28.61c-29.117,8.55-60.78,3.8-94.988-14.254
	C883.706,720.879,868.399,708.561,851.839,691.999z M1083.964,718.368c13.575-6.041,27.149-8.789,40.725-8.246
	c23.076,0.948,43.167,7.228,60.271,18.834c7.059,4.003,18.631,12.556,34.718,25.655l14.254,8.96l-1.426,46.018
	c-12.625-4.005-25.453-10.521-38.485-19.547c-11.063-8.553-19.343-14.594-24.841-18.123c-9.095-6.041-20.158-9.807-33.189-11.3
	c-13.1-1.494-25.928-0.239-38.483,3.766c-4.48,1.493-13.779,5.498-27.896,12.015c-26.132,12.555-48.495,18.359-67.093,17.409
	c-20.091-1.562-37.16-7.363-51.21-17.409l-27.184-24.13l17.41,6.822c13.507,4.005,25.554,6.007,36.143,6.007
	c11.063,0,23.382-3.021,36.957-9.062c8.008-4.005,19.818-10.282,35.429-18.835C1058.071,733.198,1069.372,726.92,1083.964,718.368z
	 M643.028,428.211h-71.675v-90.509h-32.375l13.541-75.339h90.509V428.211z M1232.505,826.185l-1.527,34.615
	c-38.688-4.005-69.604-8.01-92.748-12.015c-29.118-5.022-53.247-11.063-72.387-18.123c-8.009-2.984-16.527-6.753-25.555-11.3
	l-11.402-6.72l23.416-6.108c17.104-4.479,30.916-8.722,41.437-12.726c15.61-6.041,24.163-9.332,25.656-9.875
	c5.497-1.493,13.541-1.732,24.128-0.714c8.01,1.018,19.311,6.041,33.903,15.068c19.071,11.537,30.136,18.054,33.189,19.547
	L1232.505,826.185z M1481.226,793.809c16.561,6.516,38.179,12.793,64.852,18.834c-11.606,7.535-23.925,13.542-36.957,18.02
	c-19.139,7.06-43.27,13.101-72.387,18.123c-14.591,2.512-34.443,5.26-59.558,8.246l-33.19,3.769l-1.425-34.615l21.787-8.35
	c3.055-1.493,14.118-8.01,33.189-19.547c14.594-9.027,25.894-14.051,33.903-15.068c10.589-1.019,18.63-0.779,24.128,0.714
	C1457.062,784.477,1465.614,787.768,1481.226,793.809z M591.716,106.29v76.153H559.34v-41.437h-14.354l6.006-34.716H591.716z
	 M417.622,106.29h110.77v124.411h-32.376v-89.695h-29.422v46.731c0,28.642-11.811,42.964-35.429,42.964h-23.315l6.007-33.903h12.828
	c5.022,0,7.534-3.02,7.534-9.061v-46.731h-23.416L417.622,106.29z M379.952,187.737v74.626h135.61l-30.848,169.614
	c-6.584,38.688-17.884,65.802-33.902,81.346c-14.118,14.118-34.751,21.177-61.9,21.177h-56.504l15.882-74.627h31.663
	c17.036,0,28.066-13.575,33.088-40.724l14.356-81.447h-119.83V187.737H379.952z M21.074,262.363h245.056V534.5h-71.673V337.702
	h-64.039v103.235c0,62.375-26.403,93.563-79.208,93.563H0l14.354-73.916h27.081c11.539,0,17.308-6.548,17.308-19.648V337.702H7.533
	L21.074,262.363z"/>
</svg>
