<?xml version="1.0" encoding="UTF-8" standalone="no"?>
<!-- Created with Inkscape (http://www.inkscape.org/) -->

<svg
   xmlns:dc="http://purl.org/dc/elements/1.1/"
   xmlns:cc="http://creativecommons.org/ns#"
   xmlns:rdf="http://www.w3.org/1999/02/22-rdf-syntax-ns#"
   xmlns:svg="http://www.w3.org/2000/svg"
   xmlns="http://www.w3.org/2000/svg"
   xmlns:sodipodi="http://sodipodi.sourceforge.net/DTD/sodipodi-0.dtd"
   xmlns:inkscape="http://www.inkscape.org/namespaces/inkscape"
   version="1.1"
   id="svg2"
   xml:space="preserve"
   width="201.47459"
   height="207.40181"
   viewBox="0 0 201.4746 207.40181"
   sodipodi:docname="QiryatBialik.svg"
   inkscape:version="0.92.3 (2405546, 2018-03-11)"><metadata
     id="metadata8"><rdf:RDF><cc:Work
         rdf:about=""><dc:format>image/svg+xml</dc:format><dc:type
           rdf:resource="http://purl.org/dc/dcmitype/StillImage" /><dc:title></dc:title></cc:Work></rdf:RDF></metadata><defs
     id="defs6"><clipPath
       clipPathUnits="userSpaceOnUse"
       id="clipPath18"><path
         d="M 0,102.4 H 419.528 V 555.277 H 0 Z"
         id="path16"
         inkscape:connector-curvature="0" /></clipPath><clipPath
       clipPathUnits="userSpaceOnUse"
       id="clipPath32"><path
         d="M 0,0 H 419.528 V 555.277 H 0 Z"
         id="path30"
         inkscape:connector-curvature="0" /></clipPath><clipPath
       clipPathUnits="userSpaceOnUse"
       id="clipPath56"><path
         d="M 0,0 H 419.528 V 595.275 H 0 Z"
         id="path54"
         inkscape:connector-curvature="0" /></clipPath><clipPath
       clipPathUnits="userSpaceOnUse"
       id="clipPath102"><path
         d="m 364.09129,534.62525 h 33.11899 v 47.0391 h -33.11899 z"
         id="path100"
         inkscape:connector-curvature="0" /></clipPath><radialGradient
       fx="0"
       fy="0"
       cx="0"
       cy="0"
       r="1"
       gradientUnits="userSpaceOnUse"
       gradientTransform="matrix(61.627437,0,0,61.627437,329.81762,505.48273)"
       spreadMethod="pad"
       id="radialGradient108"><stop
         style="stop-opacity:1;stop-color:#ffffff"
         offset="0"
         id="stop104" /><stop
         style="stop-opacity:1;stop-color:#56c9f4"
         offset="1"
         id="stop106" /></radialGradient><clipPath
       clipPathUnits="userSpaceOnUse"
       id="clipPath118"><path
         d="M 352.099,530.663 H 409.5 v 55.735 h -57.401 z"
         id="path116"
         inkscape:connector-curvature="0" /></clipPath><clipPath
       clipPathUnits="userSpaceOnUse"
       id="clipPath138"><path
         d="m 373.248,559.552 -3.447,-1.167 -2.891,-2.045 c 0,0 2.05,-0.145 3.9,0 v 0 c 1.847,0.134 4.53,0.295 5.719,0.576 v 0 c 1.186,0.275 2.548,0.333 2.774,-0.317 v 0 h 1.449 l -0.016,0.945 -0.989,1.552 -3.218,0.871 z"
         id="path136"
         inkscape:connector-curvature="0" /></clipPath><clipPath
       clipPathUnits="userSpaceOnUse"
       id="clipPath198"><path
         d="M 352.099,530.663 H 409.5 v 55.735 h -57.401 z"
         id="path196"
         inkscape:connector-curvature="0" /></clipPath><clipPath
       clipPathUnits="userSpaceOnUse"
       id="clipPath222"><path
         d="m 381.672,559.096 -0.995,-1.552 -0.009,-0.945 h 1.446 c 0.225,0.65 1.588,0.592 2.778,0.317 v 0 c 1.187,-0.281 3.868,-0.442 5.721,-0.576 v 0 c 1.846,-0.145 3.897,0 3.897,0 v 0 l -2.894,2.045 -3.449,1.167 -3.275,0.415 z"
         id="path220"
         inkscape:connector-curvature="0" /></clipPath><clipPath
       clipPathUnits="userSpaceOnUse"
       id="clipPath282"><path
         d="M 352.099,530.663 H 409.5 v 55.735 h -57.401 z"
         id="path280"
         inkscape:connector-curvature="0" /></clipPath><clipPath
       clipPathUnits="userSpaceOnUse"
       id="clipPath356"><path
         d="m 381.1043,560.22924 h 3.35799 v 9.26202 h -3.35799 z"
         id="path354"
         inkscape:connector-curvature="0" /></clipPath><linearGradient
       x1="0"
       y1="0"
       x2="1"
       y2="0"
       gradientUnits="userSpaceOnUse"
       gradientTransform="matrix(9.5248354,0,0,9.5248354,331.62139,525.46663)"
       spreadMethod="pad"
       id="linearGradient366"><stop
         style="stop-opacity:1;stop-color:#e90e8b"
         offset="0"
         id="stop358" /><stop
         style="stop-opacity:1;stop-color:#dc108b"
         offset="0.410004"
         id="stop360" /><stop
         style="stop-opacity:1;stop-color:#a2268d"
         offset="0.699997"
         id="stop362" /><stop
         style="stop-opacity:1;stop-color:#6d51a1"
         offset="1"
         id="stop364" /></linearGradient><clipPath
       clipPathUnits="userSpaceOnUse"
       id="clipPath386"><path
         d="m 386.5093,562.98627 h 2.48099 v 3.67895 h -2.48099 z"
         id="path384"
         inkscape:connector-curvature="0" /></clipPath><linearGradient
       x1="0"
       y1="0"
       x2="1"
       y2="0"
       gradientUnits="userSpaceOnUse"
       gradientTransform="matrix(6.6351987,0,0,6.6351987,348.33003,525.37169)"
       spreadMethod="pad"
       id="linearGradient392"><stop
         style="stop-opacity:1;stop-color:#ffc315"
         offset="0"
         id="stop388" /><stop
         style="stop-opacity:1;stop-color:#f27623"
         offset="1"
         id="stop390" /></linearGradient><clipPath
       clipPathUnits="userSpaceOnUse"
       id="clipPath412"><path
         d="m 393.86129,561.43322 h 1.82101 v 2.47401 h -1.82101 z"
         id="path410"
         inkscape:connector-curvature="0" /></clipPath><radialGradient
       fx="0"
       fy="0"
       cx="0"
       cy="0"
       r="1"
       gradientUnits="userSpaceOnUse"
       gradientTransform="matrix(3.0369641,0,0,3.1428726,372.91831,519.01102)"
       spreadMethod="pad"
       id="radialGradient418"><stop
         style="stop-opacity:1;stop-color:#8ed7f7"
         offset="0"
         id="stop414" /><stop
         style="stop-opacity:1;stop-color:#1d93d1"
         offset="1"
         id="stop416" /></radialGradient><clipPath
       clipPathUnits="userSpaceOnUse"
       id="clipPath438"><path
         d="m 388.40428,559.40624 h 1.54301 v 3.10901 h -1.54301 z"
         id="path436"
         inkscape:connector-curvature="0" /></clipPath><linearGradient
       x1="0"
       y1="0"
       x2="1"
       y2="0"
       gradientUnits="userSpaceOnUse"
       gradientTransform="matrix(3.8910134,0,0,3.8910134,354.04989,513.62342)"
       spreadMethod="pad"
       id="linearGradient448"><stop
         style="stop-opacity:1;stop-color:#e90e8b"
         offset="0"
         id="stop440" /><stop
         style="stop-opacity:1;stop-color:#dc108b"
         offset="0.410004"
         id="stop442" /><stop
         style="stop-opacity:1;stop-color:#a2268d"
         offset="0.699997"
         id="stop444" /><stop
         style="stop-opacity:1;stop-color:#7d52a0"
         offset="1"
         id="stop446" /></linearGradient><clipPath
       clipPathUnits="userSpaceOnUse"
       id="clipPath468"><path
         d="m 392.25828,560.57624 h 0.71399 v 2.26 h -0.71399 z"
         id="path466"
         inkscape:connector-curvature="0" /></clipPath><radialGradient
       fx="0"
       fy="0"
       cx="0"
       cy="0"
       r="1"
       gradientUnits="userSpaceOnUse"
       gradientTransform="matrix(2.3596858,0,0,2.4419792,366.0592,516.02057)"
       spreadMethod="pad"
       id="radialGradient478"><stop
         style="stop-opacity:1;stop-color:#b4d889"
         offset="0"
         id="stop470" /><stop
         style="stop-opacity:1;stop-color:#9bca3c"
         offset="0.369995"
         id="stop472" /><stop
         style="stop-opacity:1;stop-color:#4dae48"
         offset="0.720001"
         id="stop474" /><stop
         style="stop-opacity:1;stop-color:#00a050"
         offset="1"
         id="stop476" /></radialGradient><clipPath
       clipPathUnits="userSpaceOnUse"
       id="clipPath498"><path
         d="m 388.44227,559.85724 h 1.05002 v 0.22699 h -1.05002 z"
         id="path496"
         inkscape:connector-curvature="0" /></clipPath><linearGradient
       x1="0"
       y1="0"
       x2="1"
       y2="0"
       gradientUnits="userSpaceOnUse"
       gradientTransform="matrix(3.1963496,0,0,3.1963496,353.43279,510.60925)"
       spreadMethod="pad"
       id="linearGradient508"><stop
         style="stop-opacity:1;stop-color:#e90e8b"
         offset="0"
         id="stop500" /><stop
         style="stop-opacity:1;stop-color:#dc108b"
         offset="0.410004"
         id="stop502" /><stop
         style="stop-opacity:1;stop-color:#a2268d"
         offset="0.699997"
         id="stop504" /><stop
         style="stop-opacity:1;stop-color:#7d52a0"
         offset="1"
         id="stop506" /></linearGradient><clipPath
       clipPathUnits="userSpaceOnUse"
       id="clipPath528"><path
         d="m 395.93727,559.46423 h 0.79501 v 2.09003 h -0.79501 z"
         id="path526"
         inkscape:connector-curvature="0" /></clipPath><linearGradient
       x1="0"
       y1="0"
       x2="1"
       y2="0"
       gradientUnits="userSpaceOnUse"
       gradientTransform="matrix(1.6284118,0,0,1.6284118,376.40717,512.25872)"
       spreadMethod="pad"
       id="linearGradient534"><stop
         style="stop-opacity:1;stop-color:#ffc315"
         offset="0"
         id="stop530" /><stop
         style="stop-opacity:1;stop-color:#f27623"
         offset="1"
         id="stop532" /></linearGradient><clipPath
       clipPathUnits="userSpaceOnUse"
       id="clipPath544"><path
         d="M 352.099,530.663 H 409.5 v 55.735 h -57.401 z"
         id="path542"
         inkscape:connector-curvature="0" /></clipPath><clipPath
       clipPathUnits="userSpaceOnUse"
       id="clipPath632"><path
         d="m 154.713,528.096 h 110.102 v 55.705 H 154.713 Z"
         id="path630"
         inkscape:connector-curvature="0" /></clipPath><clipPath
       clipPathUnits="userSpaceOnUse"
       id="clipPath1170"><path
         d="m 192.35904,543.21492 h 3.40124 v -4.82966 h -3.40124 z"
         id="path1168"
         inkscape:connector-curvature="0" /></clipPath><radialGradient
       fx="0"
       fy="0"
       cx="0"
       cy="0"
       r="1"
       gradientUnits="userSpaceOnUse"
       gradientTransform="matrix(2.0877006,0,0,-2.0877006,194.05328,540.82837)"
       spreadMethod="pad"
       id="radialGradient1176"><stop
         style="stop-opacity:1;stop-color:#ffffff"
         offset="0"
         id="stop1172" /><stop
         style="stop-opacity:1;stop-color:#52caf5"
         offset="1"
         id="stop1174" /></radialGradient><clipPath
       clipPathUnits="userSpaceOnUse"
       id="clipPath1186"><path
         d="m 191.128,537.977 h 5.893 v 5.723 h -5.893 z"
         id="path1184"
         inkscape:connector-curvature="0" /></clipPath><clipPath
       clipPathUnits="userSpaceOnUse"
       id="clipPath1206"><path
         d="m 193.3,540.944 -0.353,-0.121 -0.298,-0.21 c 0,0 0.21,-0.013 0.4,0 v 0 c 0.19,0.016 0.465,0.031 0.587,0.061 v 0 c 0.122,0.027 0.263,0.034 0.286,-0.033 v 0 h 0.149 l -0.003,0.097 -0.101,0.16 -0.331,0.089 z"
         id="path1204"
         inkscape:connector-curvature="0" /></clipPath><clipPath
       clipPathUnits="userSpaceOnUse"
       id="clipPath1266"><path
         d="m 191.128,537.977 h 5.893 v 5.723 h -5.893 z"
         id="path1264"
         inkscape:connector-curvature="0" /></clipPath><clipPath
       clipPathUnits="userSpaceOnUse"
       id="clipPath1290"><path
         d="m 194.164,540.898 -0.102,-0.16 -0.001,-0.097 h 0.149 c 0.023,0.067 0.163,0.06 0.284,0.033 v 0 c 0.122,-0.03 0.398,-0.045 0.589,-0.061 v 0 c 0.189,-0.013 0.4,0 0.4,0 v 0 l -0.297,0.21 -0.354,0.121 -0.338,0.043 z"
         id="path1288"
         inkscape:connector-curvature="0" /></clipPath><clipPath
       clipPathUnits="userSpaceOnUse"
       id="clipPath1350"><path
         d="m 191.128,537.977 h 5.893 v 5.723 h -5.893 z"
         id="path1348"
         inkscape:connector-curvature="0" /></clipPath><clipPath
       clipPathUnits="userSpaceOnUse"
       id="clipPath1424"><path
         d="m 194.10577,541.96527 h 0.34452 v -0.95105 h -0.34452 z"
         id="path1422"
         inkscape:connector-curvature="0" /></clipPath><linearGradient
       x1="0"
       y1="0"
       x2="1"
       y2="0"
       gradientUnits="userSpaceOnUse"
       gradientTransform="matrix(0.3226194,0,0,-0.3226194,194.12096,541.49011)"
       spreadMethod="pad"
       id="linearGradient1434"><stop
         style="stop-opacity:1;stop-color:#ec008c"
         offset="0"
         id="stop1426" /><stop
         style="stop-opacity:1;stop-color:#dd078c"
         offset="0.410004"
         id="stop1428" /><stop
         style="stop-opacity:1;stop-color:#a3238e"
         offset="0.699997"
         id="stop1430" /><stop
         style="stop-opacity:1;stop-color:#6d51a1"
         offset="1"
         id="stop1432" /></linearGradient><clipPath
       clipPathUnits="userSpaceOnUse"
       id="clipPath1454"><path
         d="m 194.66129,541.67557 h 0.25399 v -0.37833 h -0.25399 z"
         id="path1452"
         inkscape:connector-curvature="0" /></clipPath><linearGradient
       x1="0"
       y1="0"
       x2="1"
       y2="0"
       gradientUnits="userSpaceOnUse"
       gradientTransform="matrix(0.2237846,0,0,-0.2237846,194.68973,541.48639)"
       spreadMethod="pad"
       id="linearGradient1460"><stop
         style="stop-opacity:1;stop-color:#ffc40c"
         offset="0"
         id="stop1456" /><stop
         style="stop-opacity:1;stop-color:#f47521"
         offset="1"
         id="stop1458" /></linearGradient><clipPath
       clipPathUnits="userSpaceOnUse"
       id="clipPath1480"><path
         d="m 195.41629,541.39026 h 0.18698 v -0.25365 h -0.18698 z"
         id="path1478"
         inkscape:connector-curvature="0" /></clipPath><radialGradient
       fx="0"
       fy="0"
       cx="0"
       cy="0"
       r="1"
       gradientUnits="userSpaceOnUse"
       gradientTransform="matrix(0.1037179,0,0,-0.107335,195.51683,541.26819)"
       spreadMethod="pad"
       id="radialGradient1486"><stop
         style="stop-opacity:1;stop-color:#8ed8f8"
         offset="0"
         id="stop1482" /><stop
         style="stop-opacity:1;stop-color:#0095da"
         offset="1"
         id="stop1484" /></radialGradient><clipPath
       clipPathUnits="userSpaceOnUse"
       id="clipPath1506"><path
         d="m 194.85569,541.24803 h 0.1576 v -0.31749 h -0.1576 z"
         id="path1504"
         inkscape:connector-curvature="0" /></clipPath><linearGradient
       x1="0"
       y1="0"
       x2="1"
       y2="0"
       gradientUnits="userSpaceOnUse"
       gradientTransform="matrix(0.1310549,0,0,-0.1310549,194.88095,541.08917)"
       spreadMethod="pad"
       id="linearGradient1516"><stop
         style="stop-opacity:1;stop-color:#ec008c"
         offset="0"
         id="stop1508" /><stop
         style="stop-opacity:1;stop-color:#dd078c"
         offset="0.410004"
         id="stop1510" /><stop
         style="stop-opacity:1;stop-color:#a3238e"
         offset="0.699997"
         id="stop1512" /><stop
         style="stop-opacity:1;stop-color:#7c51a1"
         offset="1"
         id="stop1514" /></linearGradient><clipPath
       clipPathUnits="userSpaceOnUse"
       id="clipPath1536"><path
         d="m 195.25129,541.28125 h 0.073 v -0.23239 h -0.073 z"
         id="path1534"
         inkscape:connector-curvature="0" /></clipPath><radialGradient
       fx="0"
       fy="0"
       cx="0"
       cy="0"
       r="1"
       gradientUnits="userSpaceOnUse"
       gradientTransform="matrix(0.0797054,0,0,-0.0824852,195.28545,541.17011)"
       spreadMethod="pad"
       id="radialGradient1546"><stop
         style="stop-opacity:1;stop-color:#b4d88a"
         offset="0"
         id="stop1538" /><stop
         style="stop-opacity:1;stop-color:#9ccb3b"
         offset="0.369995"
         id="stop1540" /><stop
         style="stop-opacity:1;stop-color:#4aae48"
         offset="0.720001"
         id="stop1542" /><stop
         style="stop-opacity:1;stop-color:#009f51"
         offset="1"
         id="stop1544" /></radialGradient><clipPath
       clipPathUnits="userSpaceOnUse"
       id="clipPath1566"><path
         d="m 194.85928,540.99864 h 0.10783 v -0.0224 h -0.10783 z"
         id="path1564"
         inkscape:connector-curvature="0" /></clipPath><linearGradient
       x1="0"
       y1="0"
       x2="1"
       y2="0"
       gradientUnits="userSpaceOnUse"
       gradientTransform="matrix(0.1078862,0,0,-0.1078862,194.85899,540.98737)"
       spreadMethod="pad"
       id="linearGradient1576"><stop
         style="stop-opacity:1;stop-color:#ec008c"
         offset="0"
         id="stop1568" /><stop
         style="stop-opacity:1;stop-color:#dd078c"
         offset="0.410004"
         id="stop1570" /><stop
         style="stop-opacity:1;stop-color:#a3238e"
         offset="0.699997"
         id="stop1572" /><stop
         style="stop-opacity:1;stop-color:#7c51a1"
         offset="1"
         id="stop1574" /></linearGradient><clipPath
       clipPathUnits="userSpaceOnUse"
       id="clipPath1596"><path
         d="m 195.62929,541.15027 h 0.0817 v -0.21503 h -0.0817 z"
         id="path1594"
         inkscape:connector-curvature="0" /></clipPath><linearGradient
       x1="0"
       y1="0"
       x2="1"
       y2="0"
       gradientUnits="userSpaceOnUse"
       gradientTransform="matrix(0.0551732,0,0,-0.0551732,195.63629,541.04291)"
       spreadMethod="pad"
       id="linearGradient1602"><stop
         style="stop-opacity:1;stop-color:#ffc40c"
         offset="0"
         id="stop1598" /><stop
         style="stop-opacity:1;stop-color:#f47521"
         offset="1"
         id="stop1600" /></linearGradient><clipPath
       clipPathUnits="userSpaceOnUse"
       id="clipPath1612"><path
         d="m 191.128,537.977 h 5.893 v 5.723 h -5.893 z"
         id="path1610"
         inkscape:connector-curvature="0" /></clipPath><clipPath
       clipPathUnits="userSpaceOnUse"
       id="clipPath1700"><path
         d="M 0,0 H 419.528 V 595.275 H 0 Z"
         id="path1698"
         inkscape:connector-curvature="0" /></clipPath></defs><sodipodi:namedview
     pagecolor="#ffffff"
     bordercolor="#666666"
     borderopacity="1"
     objecttolerance="10"
     gridtolerance="10"
     guidetolerance="10"
     inkscape:pageopacity="0"
     inkscape:pageshadow="2"
     inkscape:window-width="1920"
     inkscape:window-height="1005"
     id="namedview4"
     showgrid="false"
     inkscape:zoom="1.846833"
     inkscape:cx="223.36543"
     inkscape:cy="139.01479"
     inkscape:window-x="-9"
     inkscape:window-y="-9"
     inkscape:window-maximized="1"
     inkscape:current-layer="g10"
     fit-margin-top="0"
     fit-margin-left="0"
     fit-margin-right="0"
     fit-margin-bottom="0" /><g
     id="g10"
     inkscape:groupmode="layer"
     inkscape:label="R_event"
     transform="matrix(1.3333333,0,0,-1.3333333,-339.3534,778.91138)"><path
       inkscape:connector-curvature="0"
       id="path110"
       style="fill:url(#radialGradient108);stroke:none;stroke-width:3.0379343"
       d="m 329.74556,576.53251 c -0.78075,0 -1.50682,-0.50126 -1.81365,-1.28201 v 0 c -0.0699,-0.17923 -6.92041,-15.16536 -46.49255,-15.16536 v 0 c -1.09669,0 -1.98377,-0.95392 -1.98377,-2.09922 v 0 -71.30336 c 0,-28.89075 47.50418,-51.96994 49.50922,-52.89955 v 0 c 0.25822,-0.12455 0.52253,-0.15493 0.80809,-0.15493 v 0 c 0.24911,0 0.54987,0.0304 0.78379,0.15493 v 0 c 2.02934,0.92961 49.51225,24.0088 49.51225,52.89955 v 0 71.30336 c 0,1.1453 -0.87188,2.09922 -1.96858,2.09922 v 0 c -39.70276,0 -46.42571,14.98613 -46.48951,15.13499 v 0 c -0.29772,0.77467 -1.01163,1.29719 -1.81972,1.31238 v 0 z" /><path
       inkscape:connector-curvature="0"
       id="path122"
       style="fill:#013e59;fill-opacity:1;fill-rule:nonzero;stroke:none;stroke-width:3.0379343"
       d="m 380.07107,486.68408 c 0,-28.89076 -47.48595,-51.96994 -49.51529,-52.89955 -0.23392,-0.12456 -0.53164,-0.15494 -0.78379,-0.15494 -0.28557,0 -0.54683,0.0304 -0.80809,0.15494 -2.002,0.92961 -49.50618,24.00879 -49.50618,52.89955 v 71.30032 c 0,1.14834 0.88708,2.10225 1.98377,2.10225 39.5691,0 46.42268,14.98613 46.49255,15.16537 0.30379,0.77771 1.02986,1.27897 1.81365,1.27897 h 0.0334 c 0.82025,-0.0152 1.53416,-0.53468 1.83188,-1.31543 0.0577,-0.14278 6.78371,-15.12891 46.48951,-15.12891 1.09669,0 1.96858,-0.95391 1.96858,-2.10225 z m 3.43287,78.64605 c -44.15638,0 -51.62059,17.24939 -51.68438,17.42863 -0.33114,0.83543 -1.11492,1.39137 -2.02934,1.42479 h -0.0425 c -0.87189,0 -1.68302,-0.55595 -2.02934,-1.40049 -0.0699,-0.17316 -7.69509,-17.45293 -51.6935,-17.45293 -1.20909,0 -2.19642,-1.04202 -2.19642,-1.54024 v -77.35492 c 0,-32.39957 52.80841,-56.60887 55.04737,-57.60835 0.30379,-0.13671 0.58328,-0.19443 0.89619,-0.19443 0.29772,0 0.59544,0.0577 0.87189,0.19443 2.25718,0.99948 55.07167,25.20878 55.07167,57.60835 v 77.35492 c -0.0152,0.49822 -0.9934,1.54024 -2.21161,1.54024" /><path
       inkscape:connector-curvature="0"
       id="path126"
       style="fill:#3b3b3c;fill-opacity:1;fill-rule:nonzero;stroke:none;stroke-width:3.0379343"
       d="m 293.13389,532.93694 -7.21206,-34.12816 h 44.14727 l -0.54683,35.20055 z" /><path
       inkscape:connector-curvature="0"
       id="path130"
       style="fill:#f3f3f3;fill-opacity:1;fill-rule:nonzero;stroke:none;stroke-width:3.0379343"
       d="m 288.01923,499.59834 c 0,0 6.2308,-0.4405 11.84794,0 5.61107,0.40708 13.76488,0.89315 17.37091,1.73466 3.60603,0.85062 7.7437,1.02682 8.43331,-0.95391 h 4.39893 l -0.0365,2.87692 -3.01363,4.71488 -9.78215,2.64604 -9.96442,-1.26378 -10.47176,-3.54527 z" /><path
       inkscape:connector-curvature="0"
       id="path142"
       style="fill:#e0e1df;fill-opacity:1;fill-rule:nonzero;stroke:none;stroke-width:3.0379343"
       d="m 329.91265,501.01159 c -1.73162,5.75689 -9.28697,5.12196 -11.06416,4.66931 -2.44553,-0.61974 -10.11328,-2.38782 -16.0889,-2.81921 -6.24599,-0.48607 -8.66722,0 -8.74621,0.0243 l 0.27645,0.32505 c 0.0273,0 2.26934,-0.47088 8.44546,0 5.94827,0.45569 13.58564,2.20554 16.03422,2.81921 1.83187,0.48303 9.66367,1.10884 11.47427,-4.90323 z" /><path
       inkscape:connector-curvature="0"
       id="path146"
       style="fill:#e0e1df;fill-opacity:1;fill-rule:nonzero;stroke:none;stroke-width:3.0379343"
       d="m 329.91265,500.30011 c -0.83543,2.42427 -2.79794,3.91286 -5.8541,4.3807 -2.83743,0.45873 -5.8541,-0.11848 -7.02067,-0.37974 l -0.76556,-0.17316 c -3.52096,-0.81113 -8.83431,-2.02934 -14.80081,-2.48807 -6.37663,-0.48303 -8.36344,0.65923 -8.45154,0.71999 l 0.29772,0.2643 -0.0881,-0.16101 0.0881,0.16101 c 0.0182,-0.0121 1.8896,-1.08758 8.12648,-0.62581 5.9422,0.44657 11.24643,1.66782 14.75524,2.47895 l 0.75949,0.17924 c 1.4734,0.31898 4.3564,0.83239 7.16952,0.39493 3.17161,-0.51645 5.23436,-2.05972 6.10625,-4.61766 z" /><path
       inkscape:connector-curvature="0"
       id="path150"
       style="fill:#e0e1df;fill-opacity:1;fill-rule:nonzero;stroke:none;stroke-width:3.0379343"
       d="m 330.08763,500.33261 c -1.34884,2.2663 -3.94628,3.18983 -5.88752,3.55438 -2.59743,0.51341 -5.01259,0.24911 -6.27333,-0.13367 -3.23236,-0.96606 -12.99628,-3.32046 -18.05748,-3.3721 -5.19183,-0.082 -7.97154,1.30023 -8.07483,1.36099 l 0.30987,0.21873 c 0.0365,0 2.63085,-1.29112 7.75584,-1.21517 5.04297,0.0456 14.76436,2.39085 17.96027,3.36299 3.1716,0.95391 10.07987,0.57113 12.55578,-3.58476 z" /><path
       inkscape:connector-curvature="0"
       id="path154"
       style="fill:#e0e1df;fill-opacity:1;fill-rule:nonzero;stroke:none;stroke-width:3.0379343"
       d="m 298.44754,499.70346 h -1.01163 c -4.39589,0.16101 -7.61307,0.86277 -7.63129,0.881 l 0.2886,0.30379 c 0.0273,0 2.9954,-0.67138 7.3518,-0.82024 4.31387,-0.14582 12.71072,0.76556 15.49043,1.69213 8.28445,2.7311 14.05045,2.27541 16.66307,-1.33973 l -0.27038,-0.21873 c -2.53363,3.48451 -8.15381,3.90678 -16.28029,1.19999 -2.61566,-0.85974 -10.07075,-1.69821 -14.60031,-1.69821" /><path
       inkscape:connector-curvature="0"
       id="path158"
       style="fill:#e0e1df;fill-opacity:1;fill-rule:nonzero;stroke:none;stroke-width:3.0379343"
       d="m 310.6971,500.14274 -0.27949,0.24607 c 0.0608,0.0334 6.21865,1.60707 7.98673,2.22073 0.95087,0.32202 2.87389,0.54379 4.72399,0.30987 1.60099,-0.2005 3.70628,-0.80505 4.56298,-2.5306 l -0.29772,-0.17316 c -1.42783,2.83439 -6.9508,2.71591 -8.88596,2.05668 -1.77719,-0.63189 -7.7437,-2.12048 -7.81053,-2.12959" /><path
       inkscape:connector-curvature="0"
       id="path162"
       style="fill:#e0e1df;fill-opacity:1;fill-rule:nonzero;stroke:none;stroke-width:3.0379343"
       d="m 326.08849,500.26152 c -0.0182,0.0699 -0.43746,1.70124 -3.02274,1.42175 l -0.47088,0.22177 c 3.22324,0.54075 3.82475,-1.52504 3.82475,-1.55846 z" /><path
       inkscape:connector-curvature="0"
       id="path166"
       style="fill:#e7e5e5;fill-opacity:1;fill-rule:nonzero;stroke:none;stroke-width:3.0379343"
       d="m 299.86838,535.19924 -5.44398,-2.92553 -6.40396,-32.67602 8.07483,4.45361 z" /><path
       inkscape:connector-curvature="0"
       id="path170"
       style="fill:#cecdcd;fill-opacity:1;fill-rule:nonzero;stroke:none;stroke-width:3.0379343"
       d="m 293.86329,502.82033 0.39189,0.21569 4.41412,22.28021 0.55898,4.61463 z" /><path
       inkscape:connector-curvature="0"
       id="path174"
       style="fill:#cecdcd;fill-opacity:1;fill-rule:nonzero;stroke:none;stroke-width:3.0379343"
       d="m 299.10586,534.79003 -6.28549,-32.54539 0.41924,0.23088 6.27637,32.53324 z" /><path
       inkscape:connector-curvature="0"
       id="path178"
       style="fill:#cecdcd;fill-opacity:1;fill-rule:nonzero;stroke:none;stroke-width:3.0379343"
       d="m 298.15711,534.28026 -6.12751,-32.47248 0.40404,0.22481 6.13359,32.46944 z" /><path
       inkscape:connector-curvature="0"
       id="path182"
       style="fill:#cecdcd;fill-opacity:1;fill-rule:nonzero;stroke:none;stroke-width:3.0379343"
       d="m 296.75723,533.52807 -6.13359,-32.49375 0.39797,0.21873 6.12751,32.48464 z" /><path
       inkscape:connector-curvature="0"
       id="path186"
       style="fill:#cecdcd;fill-opacity:1;fill-rule:nonzero;stroke:none;stroke-width:3.0379343"
       d="m 295.80575,533.01648 -6.14574,-32.51501 0.39797,0.21873 6.12144,32.49678 z" /><path
       inkscape:connector-curvature="0"
       id="path190"
       style="fill:#cecdcd;fill-opacity:1;fill-rule:nonzero;stroke:none;stroke-width:3.0379343"
       d="m 294.42349,532.27371 -0.79898,-4.08298 -5.36195,-28.45937 0.38582,0.21265 6.13055,32.52109 z" /><path
       inkscape:connector-curvature="0"
       id="path202"
       style="fill:#ffffff;fill-opacity:1;fill-rule:nonzero;stroke:none;stroke-width:3.0379343"
       d="m 330.06971,533.98442 c 0,0 -0.52252,6.79586 -10.03734,5.26474 -9.52696,-1.54327 -17.63824,-3.44502 -19.64328,-1.36403 l -6.37662,-32.83096 c 0,0 0.77771,-1.37011 5.05512,-1.18176 4.28349,0.1762 11.08542,0.54379 17.73546,2.3544 6.63485,1.80757 13.26666,0.54076 13.26666,-5.15841 z" /><path
       inkscape:connector-curvature="0"
       id="path206"
       style="fill:#ee4923;fill-opacity:1;fill-rule:nonzero;stroke:none;stroke-width:3.0379343"
       d="m 330.06971,498.80787 v -0.8567 h -44.9675 c 0,0 6.647,34.95448 8.03229,34.98486 l -7.21205,-34.12816 z" /><path
       inkscape:connector-curvature="0"
       id="path210"
       style="fill:#3b3b3c;fill-opacity:1;fill-rule:nonzero;stroke:none;stroke-width:3.0379343"
       d="m 366.74456,532.93694 7.21206,-34.12816 h -44.13815 l 0.54683,35.20055 z" /><path
       inkscape:connector-curvature="0"
       id="path214"
       style="fill:#f3f3f3;fill-opacity:1;fill-rule:nonzero;stroke:none;stroke-width:3.0379343"
       d="m 371.8653,499.59834 c 0,0 -6.22777,-0.4405 -11.83579,0 -5.62929,0.40708 -13.77703,0.89315 -17.38003,1.73466 -3.61817,0.85062 -7.75584,1.02682 -8.44241,-0.95391 h -4.38982 l 0.0243,2.87692 3.02275,4.71488 9.78518,2.64604 9.9462,-1.26378 10.47784,-3.54527 z" /><path
       inkscape:connector-curvature="0"
       id="path226"
       style="fill:#e0e1df;fill-opacity:1;fill-rule:nonzero;stroke:none;stroke-width:3.0379343"
       d="m 329.97492,501.01159 c 1.73162,5.75689 9.29608,5.12196 11.06416,4.66931 2.43642,-0.61974 10.10417,-2.38782 16.07978,-2.81921 6.24296,-0.48607 8.65812,0 8.74318,0.0243 l -0.26734,0.32505 c -0.0273,0 -2.2663,-0.47088 -8.44242,0 -5.96043,0.45569 -13.59779,2.20554 -16.03725,2.81921 -1.83795,0.48303 -9.66064,1.10884 -11.47124,-4.90323 z" /><path
       inkscape:connector-curvature="0"
       id="path230"
       style="fill:#e0e1df;fill-opacity:1;fill-rule:nonzero;stroke:none;stroke-width:3.0379343"
       d="m 329.97492,500.30011 c 0.82024,2.42427 2.78579,3.91286 5.83587,4.3807 2.84655,0.45873 5.86322,-0.11848 7.02674,-0.37974 l 0.7686,-0.17316 c 3.52097,-0.81113 8.84039,-2.02934 14.80082,-2.48807 6.37662,-0.48303 8.36951,0.65923 8.45153,0.71999 l -0.29772,0.2643 0.0942,-0.16101 -0.0851,0.16101 c -0.0273,-0.0121 -1.89871,-1.08758 -8.13863,-0.62581 -5.93005,0.44657 -11.24339,1.66782 -14.75525,2.47895 l -0.74733,0.17924 c -1.48251,0.31898 -4.36551,0.83239 -7.16345,0.39493 -3.18983,-0.51645 -5.24955,-2.05972 -6.12143,-4.61766 z" /><path
       inkscape:connector-curvature="0"
       id="path234"
       style="fill:#e0e1df;fill-opacity:1;fill-rule:nonzero;stroke:none;stroke-width:3.0379343"
       d="m 329.79082,500.33261 c 1.34884,2.2663 3.95539,3.18983 5.88752,3.55438 2.61566,0.51341 5.00955,0.24911 6.27333,-0.13367 3.22021,-0.96606 12.99628,-3.32046 18.07571,-3.3721 5.1736,-0.082 7.95331,1.30023 8.06572,1.36099 l -0.31291,0.21873 c -0.0365,0 -2.64908,-1.29112 -7.75281,-1.21517 -5.03689,0.0456 -14.77347,2.39085 -17.97242,3.36299 -3.1716,0.95391 -10.06771,0.57113 -12.56186,-3.58476 z" /><path
       inkscape:connector-curvature="0"
       id="path238"
       style="fill:#e0e1df;fill-opacity:1;fill-rule:nonzero;stroke:none;stroke-width:3.0379343"
       d="m 361.42818,499.70346 h 1.02075 c 4.39892,0.16101 7.59483,0.86277 7.62217,0.881 l -0.27949,0.30379 c -0.0273,0 -2.98629,-0.67138 -7.36091,-0.82024 -4.31083,-0.14582 -12.70161,0.76556 -15.49043,1.69213 -8.28141,2.7311 -14.05045,2.27541 -16.66307,-1.33973 l 0.27949,-0.21873 c 2.52756,3.48451 8.15382,3.90678 16.28029,1.19999 2.60655,-0.85974 10.07075,-1.69821 14.5912,-1.69821" /><path
       inkscape:connector-curvature="0"
       id="path242"
       style="fill:#e0e1df;fill-opacity:1;fill-rule:nonzero;stroke:none;stroke-width:3.0379343"
       d="m 349.17254,500.14274 0.2886,0.24607 c -0.0729,0.0334 -6.22776,1.60707 -7.98065,2.22073 -0.95999,0.32202 -2.883,0.54379 -4.72095,0.30987 -1.61011,-0.2005 -3.70324,-0.80505 -4.57513,-2.5306 l 0.30683,-0.17316 c 1.42783,2.83439 6.93257,2.71591 8.87685,2.05668 1.76807,-0.63189 7.74977,-2.12048 7.80445,-2.12959" /><path
       inkscape:connector-curvature="0"
       id="path246"
       style="fill:#e0e1df;fill-opacity:1;fill-rule:nonzero;stroke:none;stroke-width:3.0379343"
       d="m 333.79027,500.26152 c 0.0152,0.0699 0.43442,1.70124 3.01971,1.42175 l 0.47088,0.22177 c -3.22933,0.54075 -3.83084,-1.52504 -3.83084,-1.55846 z" /><path
       inkscape:connector-curvature="0"
       id="path250"
       style="fill:#e7e5e5;fill-opacity:1;fill-rule:nonzero;stroke:none;stroke-width:3.0379343"
       d="m 360.02798,535.19924 5.43486,-2.92553 6.40093,-32.67602 -8.07483,4.45361 z" /><path
       inkscape:connector-curvature="0"
       id="path254"
       style="fill:#cecdcd;fill-opacity:1;fill-rule:nonzero;stroke:none;stroke-width:3.0379343"
       d="m 361.24498,525.12454 4.3807,-22.08882 0.39189,-0.21569 -5.33765,26.99204 z" /><path
       inkscape:connector-curvature="0"
       id="path258"
       style="fill:#cecdcd;fill-opacity:1;fill-rule:nonzero;stroke:none;stroke-width:3.0379343"
       d="m 366.65068,502.47188 0.40708,-0.22481 -6.29156,32.55451 -0.39493,0.21265 z" /><path
       inkscape:connector-curvature="0"
       id="path262"
       style="fill:#cecdcd;fill-opacity:1;fill-rule:nonzero;stroke:none;stroke-width:3.0379343"
       d="m 367.45513,502.02834 0.38886,-0.21569 -6.12752,32.47855 -0.39797,0.21266 z" /><path
       inkscape:connector-curvature="0"
       id="path266"
       style="fill:#cecdcd;fill-opacity:1;fill-rule:nonzero;stroke:none;stroke-width:3.0379343"
       d="m 368.86777,501.25002 0.38886,-0.21569 -6.14575,32.50589 -0.38581,0.20658 z" /><path
       inkscape:connector-curvature="0"
       id="path270"
       style="fill:#cecdcd;fill-opacity:1;fill-rule:nonzero;stroke:none;stroke-width:3.0379343"
       d="m 369.81894,500.72567 0.40708,-0.22481 -6.13359,32.50894 -0.39797,0.21569 z" /><path
       inkscape:connector-curvature="0"
       id="path274"
       style="fill:#cecdcd;fill-opacity:1;fill-rule:nonzero;stroke:none;stroke-width:3.0379343"
       d="m 371.23492,499.94553 0.37974,-0.20962 -5.50474,29.21278 -0.65011,3.32654 -0.36152,0.19443 z" /><path
       inkscape:connector-curvature="0"
       id="path286"
       style="fill:#f6f7f8;fill-opacity:1;fill-rule:nonzero;stroke:none;stroke-width:3.0379343"
       d="m 329.81756,533.98442 c 0,0 0.51341,6.79586 10.02518,5.26474 9.52393,-1.54327 17.63825,-3.44502 19.64633,-1.36403 l 6.37358,-32.83096 c 0,0 -0.77467,-1.37011 -5.0612,-1.18176 -4.28652,0.1762 -11.08846,0.54379 -17.72634,2.3544 -6.61966,1.80757 -13.25755,0.54076 -13.25755,-5.15841 z" /><path
       inkscape:connector-curvature="0"
       id="path290"
       style="fill:#ee4923;fill-opacity:1;fill-rule:nonzero;stroke:none;stroke-width:3.0379343"
       d="m 329.81756,498.80787 v -0.8567 h 44.95839 c 0,0 -6.64092,34.95448 -8.0323,34.98486 l 7.21206,-34.12816 z" /><path
       inkscape:connector-curvature="0"
       id="path294"
       style="fill:#ebdfc6;fill-opacity:1;fill-rule:nonzero;stroke:none;stroke-width:3.0379343"
       d="m 334.73962,500.21687 c 0,-0.27038 -0.14886,-0.47999 -0.33113,-0.47999 h -8.93153 c -0.18835,0 -0.34633,0.20961 -0.34633,0.47999 0,0.27341 0.15798,0.49822 0.34633,0.49822 h 8.93153 c 0.18227,0 0.33113,-0.22481 0.33113,-0.49822" /><path
       inkscape:connector-curvature="0"
       id="path298"
       style="fill:#ee4923;fill-opacity:1;fill-rule:nonzero;stroke:none;stroke-width:3.0379343"
       d="m 325.13033,498.80787 c 0,0 1.3853,-2.13263 4.68753,-2.13263 3.28401,0 4.92146,2.13263 4.92146,2.13263 z" /><path
       inkscape:connector-curvature="0"
       id="path302"
       style="fill:#3b3b3c;fill-opacity:1;fill-rule:nonzero;stroke:none;stroke-width:3.0379343"
       d="m 325.47726,499.73627 c 0,0 0.43746,-1.78327 4.34121,-1.78327 3.89159,0 4.58728,1.78327 4.58728,1.78327 z" /><path
       inkscape:connector-curvature="0"
       id="path306"
       style="fill:#e90f8b;fill-opacity:1;fill-rule:nonzero;stroke:none;stroke-width:3.0379343"
       d="m 330.79972,534.15333 v -0.92657 c 0,0 4.40804,1.65871 7.92597,1.2091 3.53919,-0.42835 5.62018,-0.86885 6.26726,-6.37663 0.65316,-5.52904 1.06935,-6.9994 1.06935,-6.9994 0,0 -0.87188,6.23688 -0.94783,7.17257 -0.0881,0.92353 0.1124,6.25814 -5.93309,6.54371 -6.0303,0.28556 -8.38166,-0.62278 -8.38166,-0.62278" /><path
       inkscape:connector-curvature="0"
       id="path310"
       style="fill:#ac98c8;fill-opacity:1;fill-rule:nonzero;stroke:none;stroke-width:3.0379343"
       d="m 330.76691,529.9224 v -0.99948 c 0,0 3.39641,2.11744 7.09054,1.88352 3.70324,-0.23696 5.38929,-0.41316 10.36543,-3.89767 4.95791,-3.46628 6.13359,-3.93716 9.55734,-3.46628 0,0 0.80809,0.14885 1.3853,-0.11545 0,0 -0.0273,0.43747 -1.52504,0.34025 -1.4977,-0.076 -3.02275,-1.04505 -9.45405,3.56654 -6.43739,4.61462 -10.26822,4.65715 -17.41952,2.68857" /><path
       inkscape:connector-curvature="0"
       id="path314"
       style="fill:#c7a0ca;fill-opacity:1;fill-rule:nonzero;stroke:none;stroke-width:3.0379343"
       d="m 330.76691,525.10757 v -0.97214 c 0,0 3.50881,2.68554 7.77104,2.84047 4.28652,0.15797 5.10373,-0.62278 7.70116,-1.86833 2.74022,-1.59795 6.90522,-4.51133 9.81557,-4.004 2.90122,0.48303 3.26578,0.45873 3.77919,0.32506 0,0 -0.11241,0.63493 -3.69109,-0.1124 -3.5635,-0.54379 -9.53912,3.99488 -9.53912,3.99488 0,0 -3.66678,2.39389 -8.09306,1.98377 -4.54778,-0.3524 -7.74369,-2.18731 -7.74369,-2.18731" /><path
       inkscape:connector-curvature="0"
       id="path318"
       style="fill:#c7a0ca;fill-opacity:1;fill-rule:nonzero;stroke:none;stroke-width:3.0379343"
       d="m 330.79972,518.30321 v 1.09973 c 0,0 3.73058,2.31795 6.41308,2.80705 2.67338,0.48304 5.77511,1.38226 10.65404,-0.94479 4.88803,-2.28757 6.48902,-3.25363 11.15833,-1.47948 0,0 0.54986,0.11544 1.17568,0 0,0 -0.62582,0 -1.121,-0.20658 -0.51645,-0.19443 -2.99844,-1.06935 -4.27133,-1.01771 -1.26379,0.0608 -3.91894,0.72303 -7.21206,2.46073 -3.30224,1.71947 -6.41308,1.65264 -9.12292,1.07543 -2.69768,-0.57721 -5.40752,-1.66783 -7.67382,-3.79438" /><path
       inkscape:connector-curvature="0"
       id="path322"
       style="fill:#a5cd39;fill-opacity:1;fill-rule:nonzero;stroke:none;stroke-width:3.0379343"
       d="m 330.74929,512.91118 v 1.01163 c 0,0 4.05868,3.54223 10.15885,4.67538 4.1802,0.67139 7.92597,-1.09062 7.92597,-1.09062 0,0 5.2769,-2.69161 9.11077,-0.23392 2.2906,1.32454 3.91893,0.20051 3.91893,0.20051 0,0 -2.2268,0.71087 -3.71843,-0.42228 -1.50074,-1.14833 -3.83995,-1.73466 -6.88092,-0.70783 -3.04097,1.01467 -7.45813,3.42679 -13.1816,1.12099 -5.73258,-2.32402 -7.33357,-4.55386 -7.33357,-4.55386" /><path
       inkscape:connector-curvature="0"
       id="path326"
       style="fill:#e90f8b;fill-opacity:1;fill-rule:nonzero;stroke:none;stroke-width:3.0379343"
       d="m 336.5077,510.76214 -0.2005,0.54379 c 0,0 3.91286,3.51185 8.62165,4.36855 4.72399,0.85062 7.26674,-2.22377 11.15226,-1.17872 3.89463,1.0572 3.32654,2.02934 6.34928,1.70428 0,0 -1.83491,0.11848 -3.77919,-1.0572 -1.94427,-1.16049 -3.71235,-1.62529 -6.37966,-0.83543 -2.65515,0.78075 -5.72043,1.70732 -8.80393,0.58632 -3.06832,-1.121 -4.22577,-1.78023 -6.95991,-4.13159" /><path
       inkscape:connector-curvature="0"
       id="path330"
       style="fill:#e90f8b;fill-opacity:1;fill-rule:nonzero;stroke:none;stroke-width:3.0379343"
       d="m 362.05703,522.6748 c 0,0 -0.72303,-3.39033 0.71391,-6.3584 0,0 0.20051,-0.4648 -0.4891,-0.85366 -0.66835,-0.3767 -3.77008,-2.0263 -2.73414,-3.58476 1.04808,-1.54327 4.01615,-0.9934 5.90574,-0.32506 1.8896,0.6805 8.94064,3.90982 15.08942,2.50022 l -0.0182,0.16405 c 0,0 -4.15589,1.42479 -11.18567,-1.07543 -7.02067,-2.52452 -9.27785,-2.2025 -9.06824,0 0,0 0.0699,0.78379 2.13263,2.04149 1.01164,0.54683 0.36759,1.52808 0.36759,1.52808 0,0 -1.12403,2.2663 -0.0516,5.59588 z" /><path
       inkscape:connector-curvature="0"
       id="path334"
       style="fill:#a5cd39;fill-opacity:1;fill-rule:nonzero;stroke:none;stroke-width:3.0379343"
       d="m 360.80236,512.61468 0.47088,-0.58328 c 0,0 2.14174,0.0243 3.94628,1.08454 2.02934,0.80809 8.12647,4.74525 14.89499,3.33565 l 0.0334,0.24911 c 0,0 -5.79031,1.77719 -13.7102,-2.86173 0,0 -3.50274,-1.87137 -5.63537,-1.22429" /><path
       inkscape:connector-curvature="0"
       id="path338"
       style="fill:#c7a0ca;fill-opacity:1;fill-rule:nonzero;stroke:none;stroke-width:3.0379343"
       d="m 361.30666,514.01182 -0.31291,-0.3524 c 0,0 1.762,-0.14278 3.78223,1.13011 2.02934,1.29112 7.67382,5.2617 15.20182,3.8916 v 0.16404 c 0,0 -6.8475,1.79238 -14.68841,-3.49362 0,0 -2.22984,-1.5615 -3.98273,-1.33973" /><path
       inkscape:connector-curvature="0"
       id="path368"
       style="fill:url(#linearGradient366);stroke:none;stroke-width:3.0379343"
       d="m 335.83054,529.9549 c -0.7686,-0.64708 -3.78526,-3.37818 -4.21969,-6.4951 v 0 c -0.47088,-3.55742 1.83795,-4.86373 1.83795,-4.86373 v 0 c 1.95036,-0.99948 3.764,-1.06328 5.11588,-0.47392 v 0 l 0.36456,-1.47948 c 0,0 0.881,-3.10173 -1.04505,-4.07083 v 0 c -2.28453,-1.16049 -3.04098,1.16049 -3.04098,1.16049 v 0 c 0,0 0.53164,-0.42531 1.15746,0.0121 v 0 c 1.26985,0.78987 0.16405,3.21718 -1.10885,2.43035 v 0 c -1.26682,-0.80201 -0.40101,-2.15086 -0.40101,-2.15086 v 0 c 0,0 0.44658,-2.50933 2.94984,-1.95643 v 0 c 2.97414,0.69569 1.48859,5.58677 1.48859,5.58677 v 0 l -0.13975,0.56201 c 1.27897,0.62886 2.12655,1.85011 2.28149,3.33262 v 0 c 0.27038,2.46984 -2.14174,4.42019 -3.99792,3.80349 v 0 c -0.27038,0.94176 -0.47088,1.8258 -0.61063,2.63085 v 0 c 0.66227,0.57113 1.88352,1.71947 2.46681,2.94984 v 0 c 2.3149,4.14374 -0.82025,8.61558 -0.82025,8.61558 v 0 c -2.70072,-3.01667 -2.58832,-7.36395 -2.27845,-9.5938 m 2.0263,7.29712 c 1.54935,-4.17108 -0.93264,-6.4465 -1.66478,-7.01155 v 0 c -0.3038,5.00044 1.66478,7.01155 1.66478,7.01155 m -4.01614,-18.25798 c -1.84707,1.36099 -1.63138,4.00703 -1.11493,5.21005 v 0 c 0.50734,1.19391 3.2749,3.41464 3.2749,3.41464 v 0 c 0,0 0.0881,0.0547 0.23696,0.17316 v 0 l 0.58935,-2.54275 c -0.37062,-0.16405 -0.71087,-0.45265 -0.99644,-0.88404 v 0 c -1.72251,-2.51844 0.17013,-4.11336 0.17013,-4.11336 v 0 c -0.89619,1.75289 -0.0516,3.15338 1.11796,3.71843 v 0 l 1.40048,-5.66878 c -0.45569,-0.19139 -1.02074,-0.29165 -1.62225,-0.29165 v 0 c -0.99341,0 -2.10529,0.29165 -3.05616,0.9843 m 3.54526,5.07942 c 0.95999,0.3524 2.04453,0.17316 2.55491,-0.74733 v 0 c 1.22732,-2.17212 0.37366,-3.58172 -0.67442,-4.55994 v 0 c -0.13975,-0.12759 -0.31899,-0.25822 -0.52253,-0.36151 v 0 z" /><path
       inkscape:connector-curvature="0"
       id="path394"
       style="fill:url(#linearGradient392);stroke:none;stroke-width:3.0379343"
       d="m 349.36454,528.1048 0.53164,-5.59891 c -2.33617,-0.5924 -1.70732,-2.71895 -0.44658,-2.01719 v 0 c 1.2729,0.7048 0.64404,1.92909 0.64404,1.92909 v 0 l -0.35543,4.96398 c 2.50022,-0.58936 4.45057,1.46732 4.45057,1.46732 v 0 l 0.54075,-4.40804 c 0,0 -0.84151,0.1762 -1.41264,-0.64708 v 0 c -0.56202,-0.82328 -0.0851,-1.6982 0.85062,-1.3215 v 0 c 0.92961,0.38582 0.78075,1.83795 0.78075,1.83795 v 0 l -0.7048,6.65308 c -2.00503,-2.81617 -4.87892,-2.8587 -4.87892,-2.8587" /><path
       inkscape:connector-curvature="0"
       id="path420"
       style="fill:url(#radialGradient418);stroke:none;stroke-width:3.0379343"
       d="m 371.69032,520.9535 -0.0668,-4.07994 c -1.72555,-0.2157 -1.45821,-1.80454 -0.48304,-1.4096 v 0 c 0.9691,0.39796 0.60455,1.33972 0.60455,1.33972 v 0 l 0.15494,3.59996 c 1.74985,-0.63189 3.31135,0.64708 3.31135,0.64708 v 0 l 0.0334,-3.18983 c 0,0 -0.58328,0.18835 -1.06631,-0.3524 v 0 c -0.46481,-0.52557 -0.19443,-1.20606 0.51645,-1.01771 v 0 c 0.68049,0.19139 0.69872,1.25163 0.69872,1.25163 v 0 l 0.0334,4.8455 c -1.66479,-1.85618 -3.73666,-1.63441 -3.73666,-1.63441" /><path
       inkscape:connector-curvature="0"
       id="path450"
       style="fill:url(#linearGradient448);stroke:none;stroke-width:3.0379343"
       d="m 355.68648,511.6635 c -2.36959,-0.16709 -1.83491,-2.75237 -0.56505,-2.02934 v 0 c 1.27289,0.7048 0.75948,1.91997 0.75948,1.91997 v 0 l -0.29164,4.70576 c 0.29164,0.11545 0.24303,-0.35543 1.11796,-0.4405 v 0 c 0.87188,-0.0881 1.23947,-1.04808 1.23947,-1.04808 v 0 c 0,0 0.0577,2.15389 -1.06327,2.27845 v 0 c -1.13315,0.10329 -1.78631,1.30631 -1.78631,1.30631 v 0 z" /><path
       inkscape:connector-curvature="0"
       id="path480"
       style="fill:url(#radialGradient478);stroke:none;stroke-width:3.0379343"
       d="m 366.65646,514.46751 c -0.93872,0.0273 -1.39441,-0.44354 -1.50074,-0.91442 v 0 c -0.12759,-0.52556 0.23392,-1.08758 0.87493,-0.81416 v 0 c 1.16353,0.50126 0.80809,1.63744 0.80809,1.63744 v 0 l 0.0851,4.93969 -0.27645,0.0182 z" /><path
       inkscape:connector-curvature="0"
       id="path510"
       style="fill:url(#linearGradient508);stroke:none;stroke-width:3.0379343"
       d="m 353.43537,510.45744 v -0.17316 l 3.15945,0.50429 0.0273,0.18228 z" /><path
       inkscape:connector-curvature="0"
       id="path536"
       style="fill:url(#linearGradient534);stroke:none;stroke-width:3.0379343"
       d="m 377.63252,515.43661 c -1.43087,-0.23695 -1.22125,-1.41264 -1.22125,-1.41264 v 0 -4.93664 c 0,0 0.3767,0.66227 0.75037,1.16961 v 0 c 1.45821,2.01718 0.64404,3.43286 0.64404,3.43286 v 0 c 0.35848,-2.07187 -1.17568,-3.40552 -1.17568,-3.40552 v 0 3.59691 l 0.0516,-0.0395 c 0.46176,-0.13975 0.9691,0.3281 1.21213,0.78379 v 0 c 0.20354,0.41012 0.20658,0.81112 -0.20658,0.81112 v 0 z" /><path
       inkscape:connector-curvature="0"
       id="path548"
       style="fill:#c7a0ca;fill-opacity:1;fill-rule:nonzero;stroke:none;stroke-width:3.0379343"
       d="m 304.06651,524.84206 c 3.00452,0.24303 4.14678,0.42531 6.7351,0.60151 -0.0365,-2.16301 -0.0729,-3.2354 -0.1124,-5.4136 -2.7706,-0.13671 -4.11337,-0.30379 -7.09358,-0.5529 0.19139,2.17516 0.27949,3.19894 0.47088,5.36499" /><path
       inkscape:connector-curvature="0"
       id="path552"
       style="fill:#c7a0ca;fill-opacity:1;fill-rule:nonzero;stroke:none;stroke-width:3.0379343"
       d="m 324.66735,517.40428 v -6.68649 c -2.83135,0.36759 -5.66879,0.69265 -8.52748,0.83543 v 6.60143 c 2.84958,-0.16405 5.68094,-0.45873 8.52748,-0.75037" /><path
       inkscape:connector-curvature="0"
       id="path556"
       style="fill:#0b6db6;fill-opacity:1;fill-rule:nonzero;stroke:none;stroke-width:3.0379343"
       d="m 316.13227,521.76706 c 2.33617,-0.11544 3.52704,-0.2643 5.84499,-0.46784 v 1.14834 c -3.40553,0.29468 -6.69865,0.48303 -10.13152,0.4648 0.0182,1.02986 0.0274,1.5615 0.0456,2.60047 4.28349,0.079 8.50014,-0.30683 12.77756,-0.59543 v -6.3827 c -2.84959,0.25215 -5.68094,0.57417 -8.5366,0.73518 v 2.49718" /><path
       inkscape:connector-curvature="0"
       id="path560"
       style="fill:#0b6db6;fill-opacity:1;fill-rule:nonzero;stroke:none;stroke-width:3.0379343"
       d="m 315.03436,515.49707 c -1.30935,0.0425 -1.95339,0.0425 -3.25667,0 0.0152,2.57313 0.0395,3.80653 0.0577,6.28549 1.24555,0.0456 1.88959,0.0607 3.19894,0.0182 v -6.30371" /><path
       inkscape:connector-curvature="0"
       id="path564"
       style="fill:#0b6db6;fill-opacity:1;fill-rule:nonzero;stroke:none;stroke-width:3.0379343"
       d="m 310.65245,518.97702 c -0.0456,-1.82276 -0.0547,-2.73414 -0.10329,-4.62981 0.36455,0.0304 0.54075,0.0304 0.88708,0.0425 v -0.0121 c 1.45213,0.0456 2.15997,0.0456 3.59691,0.0121 v -2.80401 c -4.0526,0.079 -8.06571,-0.41013 -12.09098,-0.86582 0.079,1.43999 0.12152,2.09922 0.22785,3.40553 2.13263,0.19746 3.23236,0.31594 5.3741,0.47695 0.0243,0.46785 0.0334,0.68962 0.0425,1.14227 -2.10832,-0.14886 -3.18071,-0.26126 -5.34068,-0.44354 0.0972,1.28201 0.14885,1.91086 0.25518,3.13211 2.98629,0.23696 4.35336,0.41316 7.1513,0.54379" /><path
       inkscape:connector-curvature="0"
       id="path568"
       style="fill:#eb2227;fill-opacity:1;fill-rule:evenodd;stroke:none;stroke-width:3.0379343"
       d="m 304.36301,525.90989 c 6.8475,0.66227 13.22413,0.58632 20.07771,0.12152 -3.46628,2.71895 -6.90826,5.4622 -10.39278,8.13862 -3.25666,-2.75236 -6.32497,-5.62929 -9.68493,-8.26014" /><path
       inkscape:connector-curvature="0"
       id="path572"
       style="fill:#013e59;fill-opacity:1;fill-rule:nonzero;stroke:none;stroke-width:3.0379343"
       d="m 273.80291,484.72887 c 0,0 57.03114,-18.63165 111.4527,0 l 4.62374,-20.7734 c 0,0 -55.66408,-22.02806 -119.99538,0 z" /><path
       inkscape:connector-curvature="0"
       id="path576"
       style="fill:#013e59;fill-opacity:1;fill-rule:nonzero;stroke:none;stroke-width:3.0379343"
       d="m 270.75586,478.23194 -3.15338,-15.55726 8.71888,-2.57313 c 0,0 -7.79534,0.9448 -18.40685,-5.94828 0,0 1.26986,7.62826 3.55438,12.28541 0,0 -6.29763,3.6516 -6.95383,5.22525 0,0 3.87944,4.62981 16.2408,6.56801" /><path
       inkscape:connector-curvature="0"
       id="path580"
       style="fill:#013e59;fill-opacity:1;fill-rule:nonzero;stroke:none;stroke-width:3.0379343"
       d="m 389.0187,478.02141 3.51793,-15.55119 -8.71887,-2.57313 c 0,0 7.80445,0.94176 18.41595,-5.92397 0,0 -1.282,7.61306 -3.55438,12.27022 0,0 6.27941,3.66375 6.94168,5.2374 0,0 -4.24399,4.60854 -16.60231,6.54067" /><path
       inkscape:connector-curvature="0"
       id="path584"
       style="fill:#ffffff;fill-opacity:1;fill-rule:nonzero;stroke:none;stroke-width:3.0379343"
       d="m 287.49731,468.9787 c -0.27949,-1.09062 -0.84455,-1.88048 -1.68302,-2.36351 -0.80809,-0.48303 -1.78326,-0.57417 -2.88907,-0.27949 l -1.42175,0.38278 c -0.19139,0.0456 -0.24304,0.15797 -0.20658,0.36759 l 0.66227,2.403 c 0.0486,0.20962 0.17012,0.27038 0.33721,0.22785 l 0.76859,-0.21266 c 0.68961,-0.18531 1.121,0.0638 1.2972,0.73822 l 0.68657,2.55187 -6.74117,1.8106 c -0.18228,0.0577 -0.26126,0.17924 -0.20962,0.36759 l 0.6805,2.49415 c 0.0365,0.17924 0.15797,0.27037 0.35544,0.19139 l 9.70316,-2.57617 c 0.18531,-0.0456 0.26126,-0.18228 0.20354,-0.36759 z m -8.19635,-4.83032 c -0.0516,-0.19442 -0.16708,-0.2643 -0.36455,-0.20961 l -2.69465,0.71695 c -0.19139,0.0638 -0.26126,0.17924 -0.20658,0.37063 l 2.0901,7.768 c 0.0425,0.21265 0.17316,0.28252 0.36455,0.22784 l 2.6825,-0.72303 c 0.19139,-0.0577 0.2643,-0.15797 0.20962,-0.3524 z" /><path
       inkscape:connector-curvature="0"
       id="path588"
       style="fill:#ffffff;fill-opacity:1;fill-rule:nonzero;stroke:none;stroke-width:3.0379343"
       d="m 293.74513,468.52179 c -0.0365,-0.18835 -0.15797,-0.2643 -0.35848,-0.23088 l -2.70983,0.56809 c -0.19139,0.0577 -0.26127,0.17924 -0.22481,0.36759 l 0.45873,2.17516 -1.21821,0.26126 c -0.19747,0.0456 -0.27038,0.16405 -0.23393,0.34025 l 0.54987,2.56098 c 0.0395,0.17316 0.14582,0.24304 0.33721,0.20051 l 4.23184,-0.89316 c 0.19443,-0.0395 0.27038,-0.16101 0.24,-0.3524 z" /><path
       inkscape:connector-curvature="0"
       id="path592"
       style="fill:#ffffff;fill-opacity:1;fill-rule:nonzero;stroke:none;stroke-width:3.0379343"
       d="m 303.59472,466.18714 c -0.20658,-1.2334 -0.71088,-2.12655 -1.4977,-2.70376 -0.7929,-0.57113 -1.79542,-0.76556 -3.03794,-0.55594 l -2.11136,0.3524 c -0.18228,0.0304 -0.26734,0.14278 -0.24304,0.33721 l 0.41013,2.4668 c 0.0365,0.19443 0.14885,0.27949 0.34024,0.2643 l 1.67998,-0.28253 c 0.65316,-0.10936 1.03594,0.16101 1.14227,0.81113 l 0.44353,2.67642 -5.14018,0.85062 c -0.18228,0.0152 -0.27038,0.13063 -0.24304,0.33721 l 0.81113,4.82424 c 0.0273,0.20051 0.13975,0.27949 0.33721,0.24304 l 2.71288,-0.4405 c 0.18835,-0.0395 0.28253,-0.14582 0.25215,-0.33114 l -0.33418,-2.01415 5.16753,-0.84151 c 0.19139,-0.0395 0.26734,-0.14278 0.24607,-0.33721 z" /><path
       inkscape:connector-curvature="0"
       id="path596"
       style="fill:#ffffff;fill-opacity:1;fill-rule:nonzero;stroke:none;stroke-width:3.0379343"
       d="m 313.98719,460.62134 c -0.14582,-0.12152 -0.27949,-0.10633 -0.41012,0.0304 l -4.7726,5.50474 c -0.37366,0.0425 -0.58024,-0.1762 -0.63492,-0.65924 l -0.0699,-0.86884 0.99341,-0.0851 c 0.19139,-0.0334 0.28556,-0.13367 0.26126,-0.33721 l -0.24303,-2.35136 c -0.009,-0.19443 -0.12456,-0.27645 -0.32506,-0.26734 l -3.85514,0.40101 c -0.19443,0.009 -0.27949,0.11848 -0.25215,0.31898 l 0.28253,2.883 c 0.14886,1.42479 0.92657,2.36352 2.31186,2.80098 l -1.84706,1.97162 c -0.13063,0.14886 -0.12152,0.29468 0.0425,0.42835 l 2.05668,1.70428 c 0.14886,0.11848 0.29772,0.10633 0.41924,-0.0425 l 4.52044,-5.22221 c 0.31291,-0.0273 0.48607,0.14886 0.5043,0.51948 l 0.0942,0.83847 -0.98429,0.10026 c -0.18835,0.0182 -0.27949,0.13063 -0.26127,0.32506 l 0.24304,2.3787 c 0.009,0.18531 0.12455,0.27949 0.32506,0.26126 l 3.83083,-0.39797 c 0.18532,-0.009 0.27038,-0.11544 0.25215,-0.32202 l -0.27645,-2.72807 c -0.13974,-1.41567 -0.88708,-2.32098 -2.22073,-2.76452 l 2.03845,-2.36655 c 0.13064,-0.16101 0.11241,-0.27949 -0.0456,-0.42531 z" /><path
       inkscape:connector-curvature="0"
       id="path600"
       style="fill:#ffffff;fill-opacity:1;fill-rule:nonzero;stroke:none;stroke-width:3.0379343"
       d="m 322.19325,465.15728 c -0.0152,-0.18835 -0.1124,-0.29164 -0.31291,-0.27341 l -2.76148,0.14278 c -0.2005,0 -0.29468,0.12455 -0.29468,0.29772 l 0.12152,2.23895 -1.24555,0.079 c -0.20051,0.0121 -0.29772,0.11544 -0.28861,0.30683 l 0.13063,2.57313 c 0.0182,0.19139 0.11544,0.29468 0.31291,0.26734 l 4.31387,-0.22177 c 0.2005,0 0.29468,-0.10025 0.27949,-0.29772 z" /><path
       inkscape:connector-curvature="0"
       id="path604"
       style="fill:#ffffff;fill-opacity:1;fill-rule:nonzero;stroke:none;stroke-width:3.0379343"
       d="m 332.57661,460.73861 c 0,-0.20658 -0.10329,-0.31595 -0.29468,-0.29772 l -8.41508,0.0759 c -0.20962,0 -0.30683,0.10329 -0.30683,0.29468 l 0.0273,2.50022 c 0,0.2005 0.0972,0.30683 0.29772,0.30683 l 4.30475,-0.0486 0.0213,3.70628 -4.1802,0.0425 c -0.19139,0 -0.28557,0.0911 -0.28557,0.27645 l 0.009,2.59136 c 0,0.18227 0.1124,0.28556 0.29468,0.28556 l 7.27585,-0.0516 c 0.18835,0 0.2886,-0.10633 0.2886,-0.29468 l -0.0456,-6.58624 h 0.73821 c 0.18532,-0.0152 0.29772,-0.11848 0.28861,-0.30076 z" /><path
       inkscape:connector-curvature="0"
       id="path608"
       style="fill:#ffffff;fill-opacity:1;fill-rule:nonzero;stroke:none;stroke-width:3.0379343"
       d="m 348.76333,461.65059 c 0,-0.20962 -0.0759,-0.32506 -0.2886,-0.32506 l -2.7706,-0.20658 c -0.18835,-0.0152 -0.30076,0.0881 -0.31898,0.28253 l -0.46481,6.48599 -2.46376,-0.1762 0.29468,-4.12552 c 0.13063,-1.77719 -0.71392,-2.72806 -2.50022,-2.84654 l -1.98377,-0.15493 c -0.19443,-0.009 -0.30683,0.0759 -0.32506,0.27341 l -0.17924,2.5063 c -0.009,0.19746 0.0759,0.29771 0.27645,0.30986 l 0.77771,0.0577 c 0.36455,0.0304 0.5286,0.23392 0.49519,0.63796 l -0.21874,3.09869 -1.20909,-0.0881 c -0.19443,-0.0182 -0.30683,0.0699 -0.32506,0.27646 l -0.17316,2.57009 c -0.0182,0.19139 0.079,0.29468 0.27037,0.30683 l 10.10417,0.73822 c 0.20051,0.0182 0.30683,-0.0759 0.31291,-0.27949 z" /><path
       inkscape:connector-curvature="0"
       id="path612"
       style="fill:#ffffff;fill-opacity:1;fill-rule:nonzero;stroke:none;stroke-width:3.0379343"
       d="m 354.64325,466.67017 c 0.009,-0.20658 -0.0668,-0.30683 -0.27038,-0.32202 l -2.75236,-0.3524 c -0.19139,-0.0152 -0.30684,0.0699 -0.33114,0.2643 l -0.25215,2.21769 -1.25467,-0.14582 c -0.19138,-0.0152 -0.30379,0.0577 -0.33113,0.24607 l -0.31291,2.59136 c -0.0182,0.19139 0.0699,0.29164 0.25215,0.32506 l 4.31083,0.51037 c 0.19443,0.0152 0.29772,-0.0608 0.31595,-0.2643 z" /><path
       inkscape:connector-curvature="0"
       id="path616"
       style="fill:#ffffff;fill-opacity:1;fill-rule:nonzero;stroke:none;stroke-width:3.0379343"
       d="m 360.66292,467.55482 c 0.0182,-0.19139 -0.0668,-0.30987 -0.25215,-0.32506 l -2.75237,-0.44354 c -0.19442,-0.0243 -0.29771,0.0759 -0.33417,0.27038 l -0.3281,2.20554 -1.24555,-0.18228 c -0.19443,-0.0425 -0.31595,0.0486 -0.33417,0.24 l -0.39797,2.56705 c -0.0273,0.16405 0.0516,0.29165 0.25215,0.31291 l 4.27741,0.66227 c 0.18227,0.0243 0.30379,-0.0668 0.33113,-0.25519 z" /><path
       inkscape:connector-curvature="0"
       id="path620"
       style="fill:#ffffff;fill-opacity:1;fill-rule:nonzero;stroke:none;stroke-width:3.0379343"
       d="m 370.77651,465.11262 c 0.0365,-0.2005 -0.0456,-0.32202 -0.24303,-0.34025 l -2.71896,-0.53771 c -0.2005,-0.0486 -0.3129,0.0456 -0.34024,0.23392 l -1.0086,5.15537 c -0.0881,0.44354 -0.23696,0.7443 -0.45265,0.89923 -0.21266,0.14582 -0.53164,0.19139 -0.94176,0.10025 l -3.26578,-0.63189 c -0.20354,-0.0456 -0.31595,0.0273 -0.34936,0.21873 l -0.49519,2.54276 c -0.0456,0.19442 0.0334,0.29467 0.22481,0.34024 l 4.85158,0.95392 c 1.91694,0.36759 3.06528,-0.41316 3.44198,-2.32402 z" /><path
       inkscape:connector-curvature="0"
       id="path624"
       style="fill:#ffffff;fill-opacity:1;fill-rule:nonzero;stroke:none;stroke-width:3.0379343"
       d="m 377.45753,463.27953 c 0.0547,-0.19443 -0.0273,-0.32506 -0.21569,-0.36759 l -2.68554,-0.7048 c -0.2005,-0.0486 -0.3129,0.0182 -0.36455,0.20354 l -2.04757,7.81661 c -0.0547,0.19139 0.0182,0.30683 0.20962,0.3524 l 2.69161,0.71087 c 0.19139,0.0395 0.31595,-0.0182 0.36455,-0.21569 z m 4.7331,8.25711 c 0.28253,-1.08758 0.19747,-2.05669 -0.27949,-2.87997 -0.47999,-0.82328 -1.28201,-1.39441 -2.38781,-1.68909 l -1.42783,-0.36759 c -0.18532,-0.0456 -0.29772,0.0152 -0.35848,0.20354 l -0.62581,2.43643 c -0.0547,0.19746 0.0182,0.30075 0.19746,0.35544 l 0.75037,0.20658 c 0.70784,0.16101 0.95087,0.60151 0.76556,1.27289 l -0.66227,2.56098 -6.74118,-1.74985 c -0.19139,-0.0577 -0.32202,0.0152 -0.36455,0.19139 l -0.66227,2.50022 c -0.0456,0.18835 0.0273,0.30683 0.22481,0.36455 l 9.71228,2.54579 c 0.19442,0.0425 0.30683,-0.0213 0.3524,-0.19139 z" /></g></svg>